M48
; DRILL file {KiCad 7.0.1} date Fri Apr 21 00:10:28 2023
; FORMAT={-:-/ absolute / metric / decimal}
; #@! TF.CreationDate,2023-04-21T00:10:28+02:00
; #@! TF.GenerationSoftware,Kicad,Pcbnew,7.0.1
; #@! TF.FileFunction,Plated,1,2,PTH
FMAT,2
METRIC
; #@! TA.AperFunction,Plated,PTH,ViaDrill
T1C0.400
; #@! TA.AperFunction,Plated,PTH,ComponentDrill
T2C0.600
; #@! TA.AperFunction,Plated,PTH,ComponentDrill
T3C0.650
; #@! TA.AperFunction,Plated,PTH,ComponentDrill
T4C0.800
; #@! TA.AperFunction,Plated,PTH,ComponentDrill
T5C0.900
; #@! TA.AperFunction,Plated,PTH,ComponentDrill
T6C0.920
; #@! TA.AperFunction,Plated,PTH,ComponentDrill
T7C1.000
; #@! TA.AperFunction,Plated,PTH,ComponentDrill
T8C1.100
; #@! TA.AperFunction,Plated,PTH,ComponentDrill
T9C1.600
; #@! TA.AperFunction,Plated,PTH,ComponentDrill
T10C1.800
; #@! TA.AperFunction,Plated,PTH,ComponentDrill
T11C2.300
%
G90
G05
T1
X46.7Y-53.4
X47.432Y-58.068
X75.2Y-134.4
X79.1Y-83.8
X79.288Y-82.412
X84.2Y-50.526
X85.4Y-49.9
X87.2Y-49.5
X87.5Y-52.6
X88.5Y-49.5
X88.6Y-51.8
X93.3Y-143.6
X102.43Y-93.3
X106.174Y-98.4
X111.0Y-74.0
X111.33Y-75.525
X112.0Y-73.275
X112.009Y-74.791
X114.3Y-98.7
X117.1Y-69.9
X117.8Y-82.0
X118.7Y-86.3
X118.907Y-93.068
X120.288Y-91.688
X121.2Y-104.3
X121.619Y-81.448
X121.8Y-69.6
X122.0Y-131.8
X122.4Y-78.7
X122.7Y-84.5
X123.0Y-70.0
X124.312Y-70.288
X125.0Y-62.5
X126.2Y-88.7
X126.225Y-89.8
X126.25Y-68.35
X126.358Y-90.83
X126.6Y-91.9
X127.0Y-69.1
X128.038Y-67.038
X128.362Y-68.762
X131.2Y-85.224
X132.2Y-62.8
X132.923Y-67.632
X133.6Y-70.3
X133.679Y-66.787
X134.8Y-84.7
X134.9Y-69.4
X135.2Y-62.8
X135.4Y-60.0
X135.862Y-93.238
X135.9Y-94.3
X136.225Y-81.0
X136.3Y-68.8
X137.7Y-67.8
X138.9Y-67.1
X139.674Y-72.1
X139.7Y-81.1
X141.4Y-65.8
X143.6Y-81.474
X143.765Y-111.435
X145.1Y-66.2
X149.7Y-97.5
X149.8Y-96.124
X149.8Y-99.0
X149.8Y-100.3
X149.9Y-101.4
X149.9Y-112.8
X149.9Y-114.1
X150.0Y-102.5
X150.0Y-103.7
X150.0Y-104.8
X150.0Y-106.2
X150.0Y-109.0
X150.0Y-111.4
X150.1Y-107.4
X151.635Y-95.4
X152.7Y-88.3
X153.4Y-87.575
X155.1Y-90.2
X155.716Y-139.9
X156.715Y-139.9
X158.6Y-88.975
X158.6Y-96.775
X158.7Y-100.1
X159.5Y-101.3
X160.2Y-103.4
X160.8Y-104.7
X162.225Y-119.224
X163.8Y-120.5
X164.8Y-129.8
X165.2Y-114.6
X166.0Y-98.0
X167.2Y-116.4
X168.2Y-118.5
X168.3Y-112.0
X169.0Y-100.0
X169.718Y-79.518
X170.0Y-101.0
X170.025Y-98.275
X171.067Y-98.275
X171.45Y-103.9
T2
X75.1Y-103.1
X77.1Y-103.1
X111.0Y-70.0
X113.0Y-70.0
X123.427Y-100.2
X125.427Y-100.2
X148.327Y-82.2
X150.327Y-82.2
T3
X42.8Y-73.09
X42.8Y-74.36
X42.8Y-75.63
X42.8Y-76.9
X42.8Y-78.17
X42.8Y-79.44
X42.8Y-80.71
X42.8Y-81.98
X42.8Y-83.25
X42.8Y-84.52
X42.9Y-94.06
X42.9Y-95.33
X42.9Y-96.6
X42.9Y-97.87
X42.9Y-99.14
X42.9Y-100.41
X42.9Y-101.68
X42.9Y-102.95
X59.53Y-141.4
X59.53Y-142.67
X60.8Y-141.4
X60.8Y-142.67
X62.07Y-141.4
X62.07Y-142.67
X63.34Y-141.4
X63.34Y-142.67
X64.61Y-141.4
X64.61Y-142.67
X65.88Y-141.4
X65.88Y-142.67
X99.73Y-34.4
X101.0Y-34.4
X102.27Y-34.4
X103.54Y-34.4
X104.81Y-34.4
X106.08Y-34.4
X107.35Y-34.4
X108.62Y-34.4
X109.89Y-34.4
X111.16Y-34.4
X112.43Y-34.4
X113.7Y-34.4
X114.97Y-34.4
X116.24Y-34.4
X117.51Y-34.4
X118.78Y-34.4
X123.45Y-34.2
X124.72Y-34.2
X125.99Y-34.2
X127.26Y-34.2
X128.53Y-34.2
X129.8Y-34.2
X131.07Y-34.2
X132.34Y-34.2
X133.61Y-34.2
X134.88Y-34.2
X136.15Y-34.2
X137.42Y-34.2
X138.0Y-145.78
X138.0Y-147.05
X138.69Y-34.2
X139.96Y-34.2
X141.23Y-34.2
X142.5Y-34.2
X150.77Y-34.2
X152.04Y-34.2
X152.36Y-146.3
X153.31Y-34.2
X153.63Y-146.3
X154.58Y-34.2
X154.9Y-146.3
X155.85Y-34.2
X156.17Y-146.3
X157.12Y-34.2
X157.44Y-146.3
X158.39Y-34.2
X158.71Y-146.3
X159.66Y-34.2
X159.98Y-146.3
X160.93Y-34.2
X161.25Y-146.3
X162.2Y-34.2
X163.47Y-34.2
X164.74Y-34.2
X166.01Y-34.2
X167.28Y-34.2
X168.55Y-34.2
X169.82Y-34.2
X174.0Y-33.95
X174.0Y-35.22
X174.0Y-36.49
X174.0Y-37.76
X174.0Y-39.03
X174.0Y-40.3
X174.0Y-41.57
X174.0Y-42.84
X174.0Y-44.11
X174.0Y-45.38
X174.0Y-46.65
X174.0Y-47.92
X174.0Y-49.19
X174.0Y-50.46
X174.0Y-51.73
X174.0Y-53.0
X179.6Y-35.9
X179.6Y-37.17
X185.5Y-35.9
X185.5Y-37.17
X189.84Y-129.73
X189.84Y-131.0
X189.88Y-67.5
X189.88Y-68.77
X191.11Y-129.73
X191.11Y-131.0
X191.15Y-67.5
X191.15Y-68.77
X192.38Y-129.73
X192.38Y-131.0
X192.42Y-67.5
X192.42Y-68.77
X193.65Y-129.73
X193.65Y-131.0
X193.69Y-67.5
X193.69Y-68.77
X194.92Y-129.73
X194.92Y-131.0
X194.96Y-67.5
X194.96Y-68.77
X196.19Y-129.73
X196.19Y-131.0
X196.23Y-67.5
X196.23Y-68.77
X197.46Y-129.73
X197.46Y-131.0
X197.5Y-67.5
X197.5Y-68.77
X198.73Y-129.73
X198.73Y-131.0
X198.77Y-67.5
X198.77Y-68.77
X200.0Y-129.73
X200.0Y-131.0
X200.04Y-67.5
X200.04Y-68.77
X201.27Y-129.73
X201.27Y-131.0
X201.31Y-67.5
X201.31Y-68.77
X202.54Y-129.73
X202.54Y-131.0
X202.58Y-67.5
X202.58Y-68.77
X203.81Y-129.73
X203.81Y-131.0
X203.85Y-67.5
X203.85Y-68.77
X205.08Y-129.73
X205.08Y-131.0
X205.12Y-67.5
X205.12Y-68.77
X206.35Y-129.73
X206.35Y-131.0
X206.39Y-67.5
X206.39Y-68.77
X207.62Y-129.73
X207.62Y-131.0
X207.66Y-67.5
X207.66Y-68.77
X208.89Y-129.73
X208.89Y-131.0
X208.93Y-67.5
X208.93Y-68.77
X210.16Y-129.73
X210.16Y-131.0
X210.2Y-67.5
X210.2Y-68.77
X211.43Y-129.73
X211.43Y-131.0
X211.47Y-67.5
X211.47Y-68.77
X212.7Y-129.73
X212.7Y-131.0
X212.74Y-67.5
X212.74Y-68.77
T4
X48.92Y-115.0
X53.835Y-119.4
X53.835Y-127.02
X55.5Y-61.42
X55.5Y-71.58
X56.375Y-119.4
X56.375Y-127.02
X59.08Y-115.0
X59.55Y-61.42
X59.55Y-71.58
X60.62Y-92.9
X60.62Y-104.95
X60.7Y-97.0
X60.74Y-100.8
X63.6Y-61.42
X63.6Y-71.58
X64.92Y-115.0
X67.65Y-61.42
X67.65Y-71.58
X69.67Y-119.4
X69.67Y-127.02
X70.78Y-92.9
X70.78Y-104.95
X70.86Y-97.0
X70.9Y-100.8
X71.7Y-61.42
X71.7Y-71.58
X72.21Y-119.4
X72.21Y-127.02
X75.08Y-115.0
X75.75Y-61.42
X75.75Y-71.58
X79.8Y-61.42
X79.8Y-71.58
X80.92Y-115.0
X82.16Y-33.3
X82.16Y-40.92
X83.85Y-61.42
X83.85Y-71.58
X84.7Y-33.3
X84.7Y-40.92
X85.935Y-119.3
X85.935Y-126.92
X86.9Y-140.1
X87.0Y-145.7
X87.02Y-133.9
X87.24Y-33.3
X87.24Y-40.92
X88.475Y-119.3
X88.475Y-126.92
X89.78Y-33.3
X89.78Y-40.92
X90.62Y-87.9
X90.62Y-96.0
X91.08Y-115.0
X93.14Y-59.1
X93.14Y-63.9
X93.14Y-67.95
X93.14Y-72.0
X93.14Y-76.05
X93.22Y-54.9
X97.06Y-140.1
X97.16Y-145.7
X97.18Y-133.9
X97.92Y-115.0
X100.78Y-87.9
X100.78Y-96.0
X101.635Y-119.3
X101.635Y-126.92
X102.6Y-134.1
X102.7Y-140.4
X102.7Y-146.0
X103.3Y-59.1
X103.3Y-63.9
X103.3Y-67.95
X103.3Y-72.0
X103.3Y-76.05
X103.38Y-54.9
X104.175Y-119.3
X104.175Y-126.92
X108.08Y-115.0
X112.76Y-134.1
X112.86Y-140.4
X112.86Y-146.0
X114.92Y-115.0
X119.415Y-119.3
X119.415Y-126.92
X121.955Y-119.3
X121.955Y-126.92
X125.08Y-115.0
X130.92Y-115.0
X134.735Y-119.2
X134.735Y-126.82
X137.275Y-119.2
X137.275Y-126.82
X141.08Y-115.0
T5
X44.0Y-53.12
X44.0Y-55.66
X49.47Y-53.12
X49.47Y-55.66
X54.94Y-53.12
X54.94Y-55.66
X60.409Y-53.12
X60.409Y-55.66
X65.879Y-53.12
X65.879Y-55.66
X71.349Y-53.12
X71.349Y-55.66
X76.819Y-53.12
X76.819Y-55.66
X82.289Y-53.12
X82.289Y-55.66
T6
X203.5Y-38.0
X203.5Y-41.2
X206.0Y-38.0
X206.0Y-41.2
T7
X45.6Y-44.35
X48.1Y-44.35
X50.6Y-44.35
T8
X61.3Y-33.65
X61.3Y-40.15
X65.8Y-33.65
X65.8Y-40.15
X69.85Y-33.65
X69.85Y-40.15
X74.35Y-33.65
X74.35Y-40.15
X179.92Y-49.0
X182.46Y-49.0
X185.0Y-49.0
T9
X124.9Y-143.4
X128.4Y-143.4
T11
X198.73Y-38.49
X210.77Y-38.49
T10
G00X43.7Y-37.5
M15
G01X43.7Y-37.2
M16
G05
G00X52.5Y-37.5
M15
G01X52.5Y-37.2
M16
G05
T0
M30
