%TF.GenerationSoftware,KiCad,Pcbnew,7.0.1*%
%TF.CreationDate,2023-04-21T00:10:28+02:00*%
%TF.ProjectId,SimpleLattice,53696d70-6c65-44c6-9174-746963652e6b,rev?*%
%TF.SameCoordinates,Original*%
%TF.FileFunction,Drillmap*%
%TF.FilePolarity,Positive*%
%FSLAX45Y45*%
G04 Gerber Fmt 4.5, Leading zero omitted, Abs format (unit mm)*
G04 Created by KiCad (PCBNEW 7.0.1) date 2023-04-21 00:10:28*
%MOMM*%
%LPD*%
G01*
G04 APERTURE LIST*
%ADD10C,0.100000*%
%ADD11C,0.200000*%
G04 APERTURE END LIST*
D10*
X4000000Y-3000000D02*
X22000000Y-3000000D01*
X22000000Y-15000000D01*
X4000000Y-15000000D01*
X4000000Y-3000000D01*
D11*
X4242619Y-15317524D02*
X4242619Y-15117524D01*
X4242619Y-15117524D02*
X4290238Y-15117524D01*
X4290238Y-15117524D02*
X4318810Y-15127048D01*
X4318810Y-15127048D02*
X4337857Y-15146095D01*
X4337857Y-15146095D02*
X4347381Y-15165143D01*
X4347381Y-15165143D02*
X4356905Y-15203238D01*
X4356905Y-15203238D02*
X4356905Y-15231809D01*
X4356905Y-15231809D02*
X4347381Y-15269905D01*
X4347381Y-15269905D02*
X4337857Y-15288952D01*
X4337857Y-15288952D02*
X4318810Y-15308000D01*
X4318810Y-15308000D02*
X4290238Y-15317524D01*
X4290238Y-15317524D02*
X4242619Y-15317524D01*
X4442619Y-15317524D02*
X4442619Y-15184190D01*
X4442619Y-15222286D02*
X4452143Y-15203238D01*
X4452143Y-15203238D02*
X4461667Y-15193714D01*
X4461667Y-15193714D02*
X4480714Y-15184190D01*
X4480714Y-15184190D02*
X4499762Y-15184190D01*
X4566429Y-15317524D02*
X4566429Y-15184190D01*
X4566429Y-15117524D02*
X4556905Y-15127048D01*
X4556905Y-15127048D02*
X4566429Y-15136571D01*
X4566429Y-15136571D02*
X4575952Y-15127048D01*
X4575952Y-15127048D02*
X4566429Y-15117524D01*
X4566429Y-15117524D02*
X4566429Y-15136571D01*
X4690238Y-15317524D02*
X4671190Y-15308000D01*
X4671190Y-15308000D02*
X4661667Y-15288952D01*
X4661667Y-15288952D02*
X4661667Y-15117524D01*
X4795000Y-15317524D02*
X4775952Y-15308000D01*
X4775952Y-15308000D02*
X4766429Y-15288952D01*
X4766429Y-15288952D02*
X4766429Y-15117524D01*
X5023571Y-15317524D02*
X5023571Y-15117524D01*
X5023571Y-15117524D02*
X5090238Y-15260381D01*
X5090238Y-15260381D02*
X5156905Y-15117524D01*
X5156905Y-15117524D02*
X5156905Y-15317524D01*
X5337857Y-15317524D02*
X5337857Y-15212762D01*
X5337857Y-15212762D02*
X5328333Y-15193714D01*
X5328333Y-15193714D02*
X5309286Y-15184190D01*
X5309286Y-15184190D02*
X5271190Y-15184190D01*
X5271190Y-15184190D02*
X5252143Y-15193714D01*
X5337857Y-15308000D02*
X5318810Y-15317524D01*
X5318810Y-15317524D02*
X5271190Y-15317524D01*
X5271190Y-15317524D02*
X5252143Y-15308000D01*
X5252143Y-15308000D02*
X5242619Y-15288952D01*
X5242619Y-15288952D02*
X5242619Y-15269905D01*
X5242619Y-15269905D02*
X5252143Y-15250857D01*
X5252143Y-15250857D02*
X5271190Y-15241333D01*
X5271190Y-15241333D02*
X5318810Y-15241333D01*
X5318810Y-15241333D02*
X5337857Y-15231809D01*
X5433095Y-15184190D02*
X5433095Y-15384190D01*
X5433095Y-15193714D02*
X5452143Y-15184190D01*
X5452143Y-15184190D02*
X5490238Y-15184190D01*
X5490238Y-15184190D02*
X5509286Y-15193714D01*
X5509286Y-15193714D02*
X5518810Y-15203238D01*
X5518810Y-15203238D02*
X5528333Y-15222286D01*
X5528333Y-15222286D02*
X5528333Y-15279428D01*
X5528333Y-15279428D02*
X5518810Y-15298476D01*
X5518810Y-15298476D02*
X5509286Y-15308000D01*
X5509286Y-15308000D02*
X5490238Y-15317524D01*
X5490238Y-15317524D02*
X5452143Y-15317524D01*
X5452143Y-15317524D02*
X5433095Y-15308000D01*
X5614048Y-15298476D02*
X5623571Y-15308000D01*
X5623571Y-15308000D02*
X5614048Y-15317524D01*
X5614048Y-15317524D02*
X5604524Y-15308000D01*
X5604524Y-15308000D02*
X5614048Y-15298476D01*
X5614048Y-15298476D02*
X5614048Y-15317524D01*
X5614048Y-15193714D02*
X5623571Y-15203238D01*
X5623571Y-15203238D02*
X5614048Y-15212762D01*
X5614048Y-15212762D02*
X5604524Y-15203238D01*
X5604524Y-15203238D02*
X5614048Y-15193714D01*
X5614048Y-15193714D02*
X5614048Y-15212762D01*
M02*
