%TF.GenerationSoftware,KiCad,Pcbnew,7.0.1*%
%TF.CreationDate,2023-04-21T00:10:31+02:00*%
%TF.ProjectId,SimpleLattice,53696d70-6c65-44c6-9174-746963652e6b,rev?*%
%TF.SameCoordinates,Original*%
%TF.FileFunction,Soldermask,Top*%
%TF.FilePolarity,Negative*%
%FSLAX46Y46*%
G04 Gerber Fmt 4.6, Leading zero omitted, Abs format (unit mm)*
G04 Created by KiCad (PCBNEW 7.0.1) date 2023-04-21 00:10:31*
%MOMM*%
%LPD*%
G01*
G04 APERTURE LIST*
G04 Aperture macros list*
%AMRoundRect*
0 Rectangle with rounded corners*
0 $1 Rounding radius*
0 $2 $3 $4 $5 $6 $7 $8 $9 X,Y pos of 4 corners*
0 Add a 4 corners polygon primitive as box body*
4,1,4,$2,$3,$4,$5,$6,$7,$8,$9,$2,$3,0*
0 Add four circle primitives for the rounded corners*
1,1,$1+$1,$2,$3*
1,1,$1+$1,$4,$5*
1,1,$1+$1,$6,$7*
1,1,$1+$1,$8,$9*
0 Add four rect primitives between the rounded corners*
20,1,$1+$1,$2,$3,$4,$5,0*
20,1,$1+$1,$4,$5,$6,$7,0*
20,1,$1+$1,$6,$7,$8,$9,0*
20,1,$1+$1,$8,$9,$2,$3,0*%
G04 Aperture macros list end*
%ADD10R,1.000000X1.000000*%
%ADD11O,1.000000X1.000000*%
%ADD12C,1.600000*%
%ADD13O,1.600000X1.600000*%
%ADD14C,2.000000*%
%ADD15R,1.800000X1.800000*%
%ADD16C,1.800000*%
%ADD17R,1.200000X1.200000*%
%ADD18C,1.200000*%
%ADD19R,1.600000X1.600000*%
%ADD20R,1.800000X2.000000*%
%ADD21R,1.475000X0.300000*%
%ADD22R,0.300000X1.475000*%
%ADD23R,1.905000X2.000000*%
%ADD24O,1.905000X2.000000*%
%ADD25RoundRect,0.750000X0.750000X-1.250000X0.750000X1.250000X-0.750000X1.250000X-0.750000X-1.250000X0*%
%ADD26RoundRect,0.250000X-0.750000X-1.050000X0.750000X-1.050000X0.750000X1.050000X-0.750000X1.050000X0*%
%ADD27O,2.000000X2.600000*%
%ADD28R,1.400000X1.400000*%
%ADD29C,1.400000*%
%ADD30C,3.000000*%
G04 APERTURE END LIST*
D10*
%TO.C,J16*%
X179600000Y-35900000D03*
D11*
X179600000Y-37170000D03*
%TD*%
D12*
%TO.C,R22*%
X102700000Y-140400000D03*
D13*
X112860000Y-140400000D03*
%TD*%
D12*
%TO.C,R6*%
X90620000Y-96000000D03*
D13*
X100780000Y-96000000D03*
%TD*%
D12*
%TO.C,R16*%
X93140000Y-67950000D03*
D13*
X103300000Y-67950000D03*
%TD*%
D12*
%TO.C,R30*%
X86900000Y-140100000D03*
D13*
X97060000Y-140100000D03*
%TD*%
D14*
%TO.C,SW3*%
X65800000Y-33650000D03*
X65800000Y-40150000D03*
X61300000Y-33650000D03*
X61300000Y-40150000D03*
%TD*%
D10*
%TO.C,J4*%
X212740000Y-67500000D03*
D11*
X212740000Y-68770000D03*
X211470000Y-67500000D03*
X211470000Y-68770000D03*
X210200000Y-67500000D03*
X210200000Y-68770000D03*
X208930000Y-67500000D03*
X208930000Y-68770000D03*
X207660000Y-67500000D03*
X207660000Y-68770000D03*
X206390000Y-67500000D03*
X206390000Y-68770000D03*
X205120000Y-67500000D03*
X205120000Y-68770000D03*
X203850000Y-67500000D03*
X203850000Y-68770000D03*
X202580000Y-67500000D03*
X202580000Y-68770000D03*
X201310000Y-67500000D03*
X201310000Y-68770000D03*
X200040000Y-67500000D03*
X200040000Y-68770000D03*
X198770000Y-67500000D03*
X198770000Y-68770000D03*
X197500000Y-67500000D03*
X197500000Y-68770000D03*
X196230000Y-67500000D03*
X196230000Y-68770000D03*
X194960000Y-67500000D03*
X194960000Y-68770000D03*
X193690000Y-67500000D03*
X193690000Y-68770000D03*
X192420000Y-67500000D03*
X192420000Y-68770000D03*
X191150000Y-67500000D03*
X191150000Y-68770000D03*
X189880000Y-67500000D03*
X189880000Y-68770000D03*
%TD*%
D15*
%TO.C,D6*%
X54939596Y-53120000D03*
D16*
X54939596Y-55660000D03*
%TD*%
D12*
%TO.C,R1*%
X70780000Y-92900000D03*
D13*
X60620000Y-92900000D03*
%TD*%
D10*
%TO.C,J6*%
X138000000Y-147050000D03*
D11*
X138000000Y-145780000D03*
%TD*%
D17*
%TO.C,C4*%
X148327401Y-82200000D03*
D18*
X150327401Y-82200000D03*
%TD*%
D12*
%TO.C,R2*%
X70900000Y-100800000D03*
D13*
X60740000Y-100800000D03*
%TD*%
D12*
%TO.C,R23*%
X64920000Y-115000000D03*
D13*
X75080000Y-115000000D03*
%TD*%
D19*
%TO.C,SW1*%
X89780000Y-33300000D03*
D13*
X87240000Y-33300000D03*
X84700000Y-33300000D03*
X82160000Y-33300000D03*
X82160000Y-40920000D03*
X84700000Y-40920000D03*
X87240000Y-40920000D03*
X89780000Y-40920000D03*
%TD*%
D12*
%TO.C,R21*%
X48920000Y-115000000D03*
D13*
X59080000Y-115000000D03*
%TD*%
D19*
%TO.C,U2*%
X72210000Y-119400000D03*
D13*
X69670000Y-119400000D03*
X69670000Y-127020000D03*
X72210000Y-127020000D03*
%TD*%
D20*
%TO.C,Y1*%
X111160000Y-102900000D03*
X116240000Y-102900000D03*
X116240000Y-98700000D03*
X111160000Y-98700000D03*
%TD*%
D21*
%TO.C,IC1*%
X119962000Y-67250000D03*
X119962000Y-67750000D03*
X119962000Y-68250000D03*
X119962000Y-68750000D03*
X119962000Y-69250000D03*
X119962000Y-69750000D03*
X119962000Y-70250000D03*
X119962000Y-70750000D03*
X119962000Y-71250000D03*
X119962000Y-71750000D03*
X119962000Y-72250000D03*
X119962000Y-72750000D03*
X119962000Y-73250000D03*
X119962000Y-73750000D03*
X119962000Y-74250000D03*
X119962000Y-74750000D03*
X119962000Y-75250000D03*
X119962000Y-75750000D03*
X119962000Y-76250000D03*
X119962000Y-76750000D03*
X119962000Y-77250000D03*
X119962000Y-77750000D03*
X119962000Y-78250000D03*
X119962000Y-78750000D03*
X119962000Y-79250000D03*
X119962000Y-79750000D03*
X119962000Y-80250000D03*
X119962000Y-80750000D03*
X119962000Y-81250000D03*
X119962000Y-81750000D03*
X119962000Y-82250000D03*
X119962000Y-82750000D03*
X119962000Y-83250000D03*
X119962000Y-83750000D03*
X119962000Y-84250000D03*
X119962000Y-84750000D03*
D22*
X121950000Y-86738000D03*
X122450000Y-86738000D03*
X122950000Y-86738000D03*
X123450000Y-86738000D03*
X123950000Y-86738000D03*
X124450000Y-86738000D03*
X124950000Y-86738000D03*
X125450000Y-86738000D03*
X125950000Y-86738000D03*
X126450000Y-86738000D03*
X126950000Y-86738000D03*
X127450000Y-86738000D03*
X127950000Y-86738000D03*
X128450000Y-86738000D03*
X128950000Y-86738000D03*
X129450000Y-86738000D03*
X129950000Y-86738000D03*
X130450000Y-86738000D03*
X130950000Y-86738000D03*
X131450000Y-86738000D03*
X131950000Y-86738000D03*
X132450000Y-86738000D03*
X132950000Y-86738000D03*
X133450000Y-86738000D03*
X133950000Y-86738000D03*
X134450000Y-86738000D03*
X134950000Y-86738000D03*
X135450000Y-86738000D03*
X135950000Y-86738000D03*
X136450000Y-86738000D03*
X136950000Y-86738000D03*
X137450000Y-86738000D03*
X137950000Y-86738000D03*
X138450000Y-86738000D03*
X138950000Y-86738000D03*
X139450000Y-86738000D03*
D21*
X141438000Y-84750000D03*
X141438000Y-84250000D03*
X141438000Y-83750000D03*
X141438000Y-83250000D03*
X141438000Y-82750000D03*
X141438000Y-82250000D03*
X141438000Y-81750000D03*
X141438000Y-81250000D03*
X141438000Y-80750000D03*
X141438000Y-80250000D03*
X141438000Y-79750000D03*
X141438000Y-79250000D03*
X141438000Y-78750000D03*
X141438000Y-78250000D03*
X141438000Y-77750000D03*
X141438000Y-77250000D03*
X141438000Y-76750000D03*
X141438000Y-76250000D03*
X141438000Y-75750000D03*
X141438000Y-75250000D03*
X141438000Y-74750000D03*
X141438000Y-74250000D03*
X141438000Y-73750000D03*
X141438000Y-73250000D03*
X141438000Y-72750000D03*
X141438000Y-72250000D03*
X141438000Y-71750000D03*
X141438000Y-71250000D03*
X141438000Y-70750000D03*
X141438000Y-70250000D03*
X141438000Y-69750000D03*
X141438000Y-69250000D03*
X141438000Y-68750000D03*
X141438000Y-68250000D03*
X141438000Y-67750000D03*
X141438000Y-67250000D03*
D22*
X139450000Y-65262000D03*
X138950000Y-65262000D03*
X138450000Y-65262000D03*
X137950000Y-65262000D03*
X137450000Y-65262000D03*
X136950000Y-65262000D03*
X136450000Y-65262000D03*
X135950000Y-65262000D03*
X135450000Y-65262000D03*
X134950000Y-65262000D03*
X134450000Y-65262000D03*
X133950000Y-65262000D03*
X133450000Y-65262000D03*
X132950000Y-65262000D03*
X132450000Y-65262000D03*
X131950000Y-65262000D03*
X131450000Y-65262000D03*
X130950000Y-65262000D03*
X130450000Y-65262000D03*
X129950000Y-65262000D03*
X129450000Y-65262000D03*
X128950000Y-65262000D03*
X128450000Y-65262000D03*
X127950000Y-65262000D03*
X127450000Y-65262000D03*
X126950000Y-65262000D03*
X126450000Y-65262000D03*
X125950000Y-65262000D03*
X125450000Y-65262000D03*
X124950000Y-65262000D03*
X124450000Y-65262000D03*
X123950000Y-65262000D03*
X123450000Y-65262000D03*
X122950000Y-65262000D03*
X122450000Y-65262000D03*
X121950000Y-65262000D03*
%TD*%
D19*
%TO.C,U6*%
X137275000Y-119200000D03*
D13*
X134735000Y-119200000D03*
X134735000Y-126820000D03*
X137275000Y-126820000D03*
%TD*%
D12*
%TO.C,R10*%
X71700000Y-61420000D03*
D13*
X71700000Y-71580000D03*
%TD*%
D10*
%TO.C,J9*%
X150770000Y-34200000D03*
D11*
X152040000Y-34200000D03*
X153310000Y-34200000D03*
X154580000Y-34200000D03*
X155850000Y-34200000D03*
X157120000Y-34200000D03*
X158390000Y-34200000D03*
X159660000Y-34200000D03*
X160930000Y-34200000D03*
X162200000Y-34200000D03*
X163470000Y-34200000D03*
X164740000Y-34200000D03*
X166010000Y-34200000D03*
X167280000Y-34200000D03*
X168550000Y-34200000D03*
X169820000Y-34200000D03*
%TD*%
D23*
%TO.C,U7*%
X179920000Y-49000000D03*
D24*
X182460000Y-49000000D03*
X185000000Y-49000000D03*
%TD*%
D12*
%TO.C,R27*%
X97920000Y-115000000D03*
D13*
X108080000Y-115000000D03*
%TD*%
D12*
%TO.C,R13*%
X59550000Y-61420000D03*
D13*
X59550000Y-71580000D03*
%TD*%
D15*
%TO.C,D7*%
X49469798Y-53120000D03*
D16*
X49469798Y-55660000D03*
%TD*%
D12*
%TO.C,R8*%
X79800000Y-61420000D03*
D13*
X79800000Y-71580000D03*
%TD*%
D15*
%TO.C,D8*%
X44000000Y-53120000D03*
D16*
X44000000Y-55660000D03*
%TD*%
D19*
%TO.C,U5*%
X121955000Y-119300000D03*
D13*
X119415000Y-119300000D03*
X119415000Y-126920000D03*
X121955000Y-126920000D03*
%TD*%
D10*
%TO.C,J10*%
X99730000Y-34400000D03*
D11*
X101000000Y-34400000D03*
X102270000Y-34400000D03*
X103540000Y-34400000D03*
X104810000Y-34400000D03*
X106080000Y-34400000D03*
X107350000Y-34400000D03*
X108620000Y-34400000D03*
X109890000Y-34400000D03*
X111160000Y-34400000D03*
X112430000Y-34400000D03*
X113700000Y-34400000D03*
X114970000Y-34400000D03*
X116240000Y-34400000D03*
X117510000Y-34400000D03*
X118780000Y-34400000D03*
%TD*%
D15*
%TO.C,D4*%
X65879192Y-53120000D03*
D16*
X65879192Y-55660000D03*
%TD*%
D12*
%TO.C,R25*%
X80920000Y-115000000D03*
D13*
X91080000Y-115000000D03*
%TD*%
D12*
%TO.C,R12*%
X63600000Y-61420000D03*
D13*
X63600000Y-71580000D03*
%TD*%
D12*
%TO.C,R15*%
X93140000Y-63900000D03*
D13*
X103300000Y-63900000D03*
%TD*%
D12*
%TO.C,R28*%
X87000000Y-145700000D03*
D13*
X97160000Y-145700000D03*
%TD*%
D12*
%TO.C,R19*%
X93140000Y-59100000D03*
D13*
X103300000Y-59100000D03*
%TD*%
D15*
%TO.C,RV1*%
X45600000Y-44350000D03*
D16*
X48100000Y-44350000D03*
X50600000Y-44350000D03*
D25*
X43700000Y-37350000D03*
X52500000Y-37350000D03*
%TD*%
D19*
%TO.C,U3*%
X88475000Y-119300000D03*
D13*
X85935000Y-119300000D03*
X85935000Y-126920000D03*
X88475000Y-126920000D03*
%TD*%
D12*
%TO.C,R29*%
X114920000Y-115000000D03*
D13*
X125080000Y-115000000D03*
%TD*%
D15*
%TO.C,D5*%
X60409394Y-53120000D03*
D16*
X60409394Y-55660000D03*
%TD*%
D17*
%TO.C,C2*%
X75100000Y-103100000D03*
D18*
X77100000Y-103100000D03*
%TD*%
D10*
%TO.C,J13*%
X174000000Y-33950000D03*
D11*
X174000000Y-35220000D03*
X174000000Y-36490000D03*
X174000000Y-37760000D03*
X174000000Y-39030000D03*
X174000000Y-40300000D03*
X174000000Y-41570000D03*
X174000000Y-42840000D03*
X174000000Y-44110000D03*
X174000000Y-45380000D03*
X174000000Y-46650000D03*
X174000000Y-47920000D03*
X174000000Y-49190000D03*
X174000000Y-50460000D03*
X174000000Y-51730000D03*
X174000000Y-53000000D03*
%TD*%
D17*
%TO.C,C1*%
X123427401Y-100200000D03*
D18*
X125427401Y-100200000D03*
%TD*%
D12*
%TO.C,R3*%
X70860000Y-97000000D03*
D13*
X60700000Y-97000000D03*
%TD*%
D14*
%TO.C,SW2*%
X74350000Y-33650000D03*
X74350000Y-40150000D03*
X69850000Y-33650000D03*
X69850000Y-40150000D03*
%TD*%
D12*
%TO.C,R11*%
X67650000Y-61420000D03*
D13*
X67650000Y-71580000D03*
%TD*%
D10*
%TO.C,J11*%
X123450000Y-34200000D03*
D11*
X124720000Y-34200000D03*
X125990000Y-34200000D03*
X127260000Y-34200000D03*
X128530000Y-34200000D03*
X129800000Y-34200000D03*
X131070000Y-34200000D03*
X132340000Y-34200000D03*
X133610000Y-34200000D03*
X134880000Y-34200000D03*
X136150000Y-34200000D03*
X137420000Y-34200000D03*
X138690000Y-34200000D03*
X139960000Y-34200000D03*
X141230000Y-34200000D03*
X142500000Y-34200000D03*
%TD*%
D26*
%TO.C,J7*%
X124900000Y-143400000D03*
D27*
X128400000Y-143400000D03*
%TD*%
D12*
%TO.C,R7*%
X83850000Y-61420000D03*
D13*
X83850000Y-71580000D03*
%TD*%
D12*
%TO.C,R5*%
X90620000Y-87900000D03*
D13*
X100780000Y-87900000D03*
%TD*%
D10*
%TO.C,J2*%
X152360000Y-146300000D03*
D11*
X153630000Y-146300000D03*
X154900000Y-146300000D03*
X156170000Y-146300000D03*
X157440000Y-146300000D03*
X158710000Y-146300000D03*
X159980000Y-146300000D03*
X161250000Y-146300000D03*
%TD*%
D12*
%TO.C,R9*%
X75750000Y-61420000D03*
D13*
X75750000Y-71580000D03*
%TD*%
D15*
%TO.C,D1*%
X82288586Y-53120000D03*
D16*
X82288586Y-55660000D03*
%TD*%
D12*
%TO.C,R17*%
X93140000Y-72000000D03*
D13*
X103300000Y-72000000D03*
%TD*%
D10*
%TO.C,J15*%
X185500000Y-35900000D03*
D11*
X185500000Y-37170000D03*
%TD*%
D12*
%TO.C,R18*%
X93140000Y-76050000D03*
D13*
X103300000Y-76050000D03*
%TD*%
D12*
%TO.C,R26*%
X102600000Y-134100000D03*
D13*
X112760000Y-134100000D03*
%TD*%
D10*
%TO.C,J3*%
X42800000Y-84520000D03*
D11*
X42800000Y-83250000D03*
X42800000Y-81980000D03*
X42800000Y-80710000D03*
X42800000Y-79440000D03*
X42800000Y-78170000D03*
X42800000Y-76900000D03*
X42800000Y-75630000D03*
X42800000Y-74360000D03*
X42800000Y-73090000D03*
%TD*%
D10*
%TO.C,J5*%
X212700000Y-129730000D03*
D11*
X212700000Y-131000000D03*
X211430000Y-129730000D03*
X211430000Y-131000000D03*
X210160000Y-129730000D03*
X210160000Y-131000000D03*
X208890000Y-129730000D03*
X208890000Y-131000000D03*
X207620000Y-129730000D03*
X207620000Y-131000000D03*
X206350000Y-129730000D03*
X206350000Y-131000000D03*
X205080000Y-129730000D03*
X205080000Y-131000000D03*
X203810000Y-129730000D03*
X203810000Y-131000000D03*
X202540000Y-129730000D03*
X202540000Y-131000000D03*
X201270000Y-129730000D03*
X201270000Y-131000000D03*
X200000000Y-129730000D03*
X200000000Y-131000000D03*
X198730000Y-129730000D03*
X198730000Y-131000000D03*
X197460000Y-129730000D03*
X197460000Y-131000000D03*
X196190000Y-129730000D03*
X196190000Y-131000000D03*
X194920000Y-129730000D03*
X194920000Y-131000000D03*
X193650000Y-129730000D03*
X193650000Y-131000000D03*
X192380000Y-129730000D03*
X192380000Y-131000000D03*
X191110000Y-129730000D03*
X191110000Y-131000000D03*
X189840000Y-129730000D03*
X189840000Y-131000000D03*
%TD*%
D12*
%TO.C,R24*%
X102700000Y-146000000D03*
D13*
X112860000Y-146000000D03*
%TD*%
D12*
%TO.C,R14*%
X55500000Y-61420000D03*
D13*
X55500000Y-71580000D03*
%TD*%
D12*
%TO.C,R32*%
X87020000Y-133900000D03*
D13*
X97180000Y-133900000D03*
%TD*%
D12*
%TO.C,R4*%
X60620000Y-104950000D03*
D13*
X70780000Y-104950000D03*
%TD*%
D10*
%TO.C,J1*%
X42900000Y-94060000D03*
D11*
X42900000Y-95330000D03*
X42900000Y-96600000D03*
X42900000Y-97870000D03*
X42900000Y-99140000D03*
X42900000Y-100410000D03*
X42900000Y-101680000D03*
X42900000Y-102950000D03*
%TD*%
D17*
%TO.C,C3*%
X111000000Y-70000000D03*
D18*
X113000000Y-70000000D03*
%TD*%
D15*
%TO.C,D3*%
X71348990Y-53120000D03*
D16*
X71348990Y-55660000D03*
%TD*%
D28*
%TO.C,J14*%
X203500000Y-41200000D03*
D29*
X206000000Y-41200000D03*
X206000000Y-38000000D03*
X203500000Y-38000000D03*
D30*
X210770000Y-38490000D03*
X198730000Y-38490000D03*
%TD*%
D15*
%TO.C,D2*%
X76818788Y-53120000D03*
D16*
X76818788Y-55660000D03*
%TD*%
D19*
%TO.C,U1*%
X56375000Y-119400000D03*
D13*
X53835000Y-119400000D03*
X53835000Y-127020000D03*
X56375000Y-127020000D03*
%TD*%
D12*
%TO.C,R31*%
X130920000Y-115000000D03*
D13*
X141080000Y-115000000D03*
%TD*%
D19*
%TO.C,U4*%
X104175000Y-119300000D03*
D13*
X101635000Y-119300000D03*
X101635000Y-126920000D03*
X104175000Y-126920000D03*
%TD*%
D12*
%TO.C,R20*%
X93220000Y-54900000D03*
D13*
X103380000Y-54900000D03*
%TD*%
D10*
%TO.C,J8*%
X59530000Y-141400000D03*
D11*
X59530000Y-142670000D03*
X60800000Y-141400000D03*
X60800000Y-142670000D03*
X62070000Y-141400000D03*
X62070000Y-142670000D03*
X63340000Y-141400000D03*
X63340000Y-142670000D03*
X64610000Y-141400000D03*
X64610000Y-142670000D03*
X65880000Y-141400000D03*
X65880000Y-142670000D03*
%TD*%
M02*
