%TF.GenerationSoftware,KiCad,Pcbnew,7.0.1*%
%TF.CreationDate,2023-04-21T00:09:37+02:00*%
%TF.ProjectId,SimpleLattice,53696d70-6c65-44c6-9174-746963652e6b,rev?*%
%TF.SameCoordinates,Original*%
%TF.FileFunction,Legend,Top*%
%TF.FilePolarity,Positive*%
%FSLAX46Y46*%
G04 Gerber Fmt 4.6, Leading zero omitted, Abs format (unit mm)*
G04 Created by KiCad (PCBNEW 7.0.1) date 2023-04-21 00:09:37*
%MOMM*%
%LPD*%
G01*
G04 APERTURE LIST*
%ADD10C,0.150000*%
%ADD11C,0.254000*%
%ADD12C,0.120000*%
%ADD13C,0.200000*%
%ADD14C,0.100000*%
G04 APERTURE END LIST*
D10*
%TO.C,J16*%
X178790476Y-33667619D02*
X178790476Y-34381904D01*
X178790476Y-34381904D02*
X178742857Y-34524761D01*
X178742857Y-34524761D02*
X178647619Y-34620000D01*
X178647619Y-34620000D02*
X178504762Y-34667619D01*
X178504762Y-34667619D02*
X178409524Y-34667619D01*
X179790476Y-34667619D02*
X179219048Y-34667619D01*
X179504762Y-34667619D02*
X179504762Y-33667619D01*
X179504762Y-33667619D02*
X179409524Y-33810476D01*
X179409524Y-33810476D02*
X179314286Y-33905714D01*
X179314286Y-33905714D02*
X179219048Y-33953333D01*
X180647619Y-33667619D02*
X180457143Y-33667619D01*
X180457143Y-33667619D02*
X180361905Y-33715238D01*
X180361905Y-33715238D02*
X180314286Y-33762857D01*
X180314286Y-33762857D02*
X180219048Y-33905714D01*
X180219048Y-33905714D02*
X180171429Y-34096190D01*
X180171429Y-34096190D02*
X180171429Y-34477142D01*
X180171429Y-34477142D02*
X180219048Y-34572380D01*
X180219048Y-34572380D02*
X180266667Y-34620000D01*
X180266667Y-34620000D02*
X180361905Y-34667619D01*
X180361905Y-34667619D02*
X180552381Y-34667619D01*
X180552381Y-34667619D02*
X180647619Y-34620000D01*
X180647619Y-34620000D02*
X180695238Y-34572380D01*
X180695238Y-34572380D02*
X180742857Y-34477142D01*
X180742857Y-34477142D02*
X180742857Y-34239047D01*
X180742857Y-34239047D02*
X180695238Y-34143809D01*
X180695238Y-34143809D02*
X180647619Y-34096190D01*
X180647619Y-34096190D02*
X180552381Y-34048571D01*
X180552381Y-34048571D02*
X180361905Y-34048571D01*
X180361905Y-34048571D02*
X180266667Y-34096190D01*
X180266667Y-34096190D02*
X180219048Y-34143809D01*
X180219048Y-34143809D02*
X180171429Y-34239047D01*
%TO.C,R22*%
X107137142Y-138492619D02*
X106803809Y-138016428D01*
X106565714Y-138492619D02*
X106565714Y-137492619D01*
X106565714Y-137492619D02*
X106946666Y-137492619D01*
X106946666Y-137492619D02*
X107041904Y-137540238D01*
X107041904Y-137540238D02*
X107089523Y-137587857D01*
X107089523Y-137587857D02*
X107137142Y-137683095D01*
X107137142Y-137683095D02*
X107137142Y-137825952D01*
X107137142Y-137825952D02*
X107089523Y-137921190D01*
X107089523Y-137921190D02*
X107041904Y-137968809D01*
X107041904Y-137968809D02*
X106946666Y-138016428D01*
X106946666Y-138016428D02*
X106565714Y-138016428D01*
X107518095Y-137587857D02*
X107565714Y-137540238D01*
X107565714Y-137540238D02*
X107660952Y-137492619D01*
X107660952Y-137492619D02*
X107899047Y-137492619D01*
X107899047Y-137492619D02*
X107994285Y-137540238D01*
X107994285Y-137540238D02*
X108041904Y-137587857D01*
X108041904Y-137587857D02*
X108089523Y-137683095D01*
X108089523Y-137683095D02*
X108089523Y-137778333D01*
X108089523Y-137778333D02*
X108041904Y-137921190D01*
X108041904Y-137921190D02*
X107470476Y-138492619D01*
X107470476Y-138492619D02*
X108089523Y-138492619D01*
X108470476Y-137587857D02*
X108518095Y-137540238D01*
X108518095Y-137540238D02*
X108613333Y-137492619D01*
X108613333Y-137492619D02*
X108851428Y-137492619D01*
X108851428Y-137492619D02*
X108946666Y-137540238D01*
X108946666Y-137540238D02*
X108994285Y-137587857D01*
X108994285Y-137587857D02*
X109041904Y-137683095D01*
X109041904Y-137683095D02*
X109041904Y-137778333D01*
X109041904Y-137778333D02*
X108994285Y-137921190D01*
X108994285Y-137921190D02*
X108422857Y-138492619D01*
X108422857Y-138492619D02*
X109041904Y-138492619D01*
%TO.C,R6*%
X95533333Y-94092619D02*
X95200000Y-93616428D01*
X94961905Y-94092619D02*
X94961905Y-93092619D01*
X94961905Y-93092619D02*
X95342857Y-93092619D01*
X95342857Y-93092619D02*
X95438095Y-93140238D01*
X95438095Y-93140238D02*
X95485714Y-93187857D01*
X95485714Y-93187857D02*
X95533333Y-93283095D01*
X95533333Y-93283095D02*
X95533333Y-93425952D01*
X95533333Y-93425952D02*
X95485714Y-93521190D01*
X95485714Y-93521190D02*
X95438095Y-93568809D01*
X95438095Y-93568809D02*
X95342857Y-93616428D01*
X95342857Y-93616428D02*
X94961905Y-93616428D01*
X96390476Y-93092619D02*
X96200000Y-93092619D01*
X96200000Y-93092619D02*
X96104762Y-93140238D01*
X96104762Y-93140238D02*
X96057143Y-93187857D01*
X96057143Y-93187857D02*
X95961905Y-93330714D01*
X95961905Y-93330714D02*
X95914286Y-93521190D01*
X95914286Y-93521190D02*
X95914286Y-93902142D01*
X95914286Y-93902142D02*
X95961905Y-93997380D01*
X95961905Y-93997380D02*
X96009524Y-94045000D01*
X96009524Y-94045000D02*
X96104762Y-94092619D01*
X96104762Y-94092619D02*
X96295238Y-94092619D01*
X96295238Y-94092619D02*
X96390476Y-94045000D01*
X96390476Y-94045000D02*
X96438095Y-93997380D01*
X96438095Y-93997380D02*
X96485714Y-93902142D01*
X96485714Y-93902142D02*
X96485714Y-93664047D01*
X96485714Y-93664047D02*
X96438095Y-93568809D01*
X96438095Y-93568809D02*
X96390476Y-93521190D01*
X96390476Y-93521190D02*
X96295238Y-93473571D01*
X96295238Y-93473571D02*
X96104762Y-93473571D01*
X96104762Y-93473571D02*
X96009524Y-93521190D01*
X96009524Y-93521190D02*
X95961905Y-93568809D01*
X95961905Y-93568809D02*
X95914286Y-93664047D01*
%TO.C,R16*%
X97577142Y-66042619D02*
X97243809Y-65566428D01*
X97005714Y-66042619D02*
X97005714Y-65042619D01*
X97005714Y-65042619D02*
X97386666Y-65042619D01*
X97386666Y-65042619D02*
X97481904Y-65090238D01*
X97481904Y-65090238D02*
X97529523Y-65137857D01*
X97529523Y-65137857D02*
X97577142Y-65233095D01*
X97577142Y-65233095D02*
X97577142Y-65375952D01*
X97577142Y-65375952D02*
X97529523Y-65471190D01*
X97529523Y-65471190D02*
X97481904Y-65518809D01*
X97481904Y-65518809D02*
X97386666Y-65566428D01*
X97386666Y-65566428D02*
X97005714Y-65566428D01*
X98529523Y-66042619D02*
X97958095Y-66042619D01*
X98243809Y-66042619D02*
X98243809Y-65042619D01*
X98243809Y-65042619D02*
X98148571Y-65185476D01*
X98148571Y-65185476D02*
X98053333Y-65280714D01*
X98053333Y-65280714D02*
X97958095Y-65328333D01*
X99386666Y-65042619D02*
X99196190Y-65042619D01*
X99196190Y-65042619D02*
X99100952Y-65090238D01*
X99100952Y-65090238D02*
X99053333Y-65137857D01*
X99053333Y-65137857D02*
X98958095Y-65280714D01*
X98958095Y-65280714D02*
X98910476Y-65471190D01*
X98910476Y-65471190D02*
X98910476Y-65852142D01*
X98910476Y-65852142D02*
X98958095Y-65947380D01*
X98958095Y-65947380D02*
X99005714Y-65995000D01*
X99005714Y-65995000D02*
X99100952Y-66042619D01*
X99100952Y-66042619D02*
X99291428Y-66042619D01*
X99291428Y-66042619D02*
X99386666Y-65995000D01*
X99386666Y-65995000D02*
X99434285Y-65947380D01*
X99434285Y-65947380D02*
X99481904Y-65852142D01*
X99481904Y-65852142D02*
X99481904Y-65614047D01*
X99481904Y-65614047D02*
X99434285Y-65518809D01*
X99434285Y-65518809D02*
X99386666Y-65471190D01*
X99386666Y-65471190D02*
X99291428Y-65423571D01*
X99291428Y-65423571D02*
X99100952Y-65423571D01*
X99100952Y-65423571D02*
X99005714Y-65471190D01*
X99005714Y-65471190D02*
X98958095Y-65518809D01*
X98958095Y-65518809D02*
X98910476Y-65614047D01*
%TO.C,R30*%
X91337142Y-138192619D02*
X91003809Y-137716428D01*
X90765714Y-138192619D02*
X90765714Y-137192619D01*
X90765714Y-137192619D02*
X91146666Y-137192619D01*
X91146666Y-137192619D02*
X91241904Y-137240238D01*
X91241904Y-137240238D02*
X91289523Y-137287857D01*
X91289523Y-137287857D02*
X91337142Y-137383095D01*
X91337142Y-137383095D02*
X91337142Y-137525952D01*
X91337142Y-137525952D02*
X91289523Y-137621190D01*
X91289523Y-137621190D02*
X91241904Y-137668809D01*
X91241904Y-137668809D02*
X91146666Y-137716428D01*
X91146666Y-137716428D02*
X90765714Y-137716428D01*
X91670476Y-137192619D02*
X92289523Y-137192619D01*
X92289523Y-137192619D02*
X91956190Y-137573571D01*
X91956190Y-137573571D02*
X92099047Y-137573571D01*
X92099047Y-137573571D02*
X92194285Y-137621190D01*
X92194285Y-137621190D02*
X92241904Y-137668809D01*
X92241904Y-137668809D02*
X92289523Y-137764047D01*
X92289523Y-137764047D02*
X92289523Y-138002142D01*
X92289523Y-138002142D02*
X92241904Y-138097380D01*
X92241904Y-138097380D02*
X92194285Y-138145000D01*
X92194285Y-138145000D02*
X92099047Y-138192619D01*
X92099047Y-138192619D02*
X91813333Y-138192619D01*
X91813333Y-138192619D02*
X91718095Y-138145000D01*
X91718095Y-138145000D02*
X91670476Y-138097380D01*
X92908571Y-137192619D02*
X93003809Y-137192619D01*
X93003809Y-137192619D02*
X93099047Y-137240238D01*
X93099047Y-137240238D02*
X93146666Y-137287857D01*
X93146666Y-137287857D02*
X93194285Y-137383095D01*
X93194285Y-137383095D02*
X93241904Y-137573571D01*
X93241904Y-137573571D02*
X93241904Y-137811666D01*
X93241904Y-137811666D02*
X93194285Y-138002142D01*
X93194285Y-138002142D02*
X93146666Y-138097380D01*
X93146666Y-138097380D02*
X93099047Y-138145000D01*
X93099047Y-138145000D02*
X93003809Y-138192619D01*
X93003809Y-138192619D02*
X92908571Y-138192619D01*
X92908571Y-138192619D02*
X92813333Y-138145000D01*
X92813333Y-138145000D02*
X92765714Y-138097380D01*
X92765714Y-138097380D02*
X92718095Y-138002142D01*
X92718095Y-138002142D02*
X92670476Y-137811666D01*
X92670476Y-137811666D02*
X92670476Y-137573571D01*
X92670476Y-137573571D02*
X92718095Y-137383095D01*
X92718095Y-137383095D02*
X92765714Y-137287857D01*
X92765714Y-137287857D02*
X92813333Y-137240238D01*
X92813333Y-137240238D02*
X92908571Y-137192619D01*
%TO.C,SW3*%
X68215000Y-38233332D02*
X68262619Y-38090475D01*
X68262619Y-38090475D02*
X68262619Y-37852380D01*
X68262619Y-37852380D02*
X68215000Y-37757142D01*
X68215000Y-37757142D02*
X68167380Y-37709523D01*
X68167380Y-37709523D02*
X68072142Y-37661904D01*
X68072142Y-37661904D02*
X67976904Y-37661904D01*
X67976904Y-37661904D02*
X67881666Y-37709523D01*
X67881666Y-37709523D02*
X67834047Y-37757142D01*
X67834047Y-37757142D02*
X67786428Y-37852380D01*
X67786428Y-37852380D02*
X67738809Y-38042856D01*
X67738809Y-38042856D02*
X67691190Y-38138094D01*
X67691190Y-38138094D02*
X67643571Y-38185713D01*
X67643571Y-38185713D02*
X67548333Y-38233332D01*
X67548333Y-38233332D02*
X67453095Y-38233332D01*
X67453095Y-38233332D02*
X67357857Y-38185713D01*
X67357857Y-38185713D02*
X67310238Y-38138094D01*
X67310238Y-38138094D02*
X67262619Y-38042856D01*
X67262619Y-38042856D02*
X67262619Y-37804761D01*
X67262619Y-37804761D02*
X67310238Y-37661904D01*
X67262619Y-37328570D02*
X68262619Y-37090475D01*
X68262619Y-37090475D02*
X67548333Y-36899999D01*
X67548333Y-36899999D02*
X68262619Y-36709523D01*
X68262619Y-36709523D02*
X67262619Y-36471428D01*
X67262619Y-36185713D02*
X67262619Y-35566666D01*
X67262619Y-35566666D02*
X67643571Y-35899999D01*
X67643571Y-35899999D02*
X67643571Y-35757142D01*
X67643571Y-35757142D02*
X67691190Y-35661904D01*
X67691190Y-35661904D02*
X67738809Y-35614285D01*
X67738809Y-35614285D02*
X67834047Y-35566666D01*
X67834047Y-35566666D02*
X68072142Y-35566666D01*
X68072142Y-35566666D02*
X68167380Y-35614285D01*
X68167380Y-35614285D02*
X68215000Y-35661904D01*
X68215000Y-35661904D02*
X68262619Y-35757142D01*
X68262619Y-35757142D02*
X68262619Y-36042856D01*
X68262619Y-36042856D02*
X68215000Y-36138094D01*
X68215000Y-36138094D02*
X68167380Y-36185713D01*
%TO.C,J4*%
X213897619Y-68468333D02*
X214611904Y-68468333D01*
X214611904Y-68468333D02*
X214754761Y-68515952D01*
X214754761Y-68515952D02*
X214850000Y-68611190D01*
X214850000Y-68611190D02*
X214897619Y-68754047D01*
X214897619Y-68754047D02*
X214897619Y-68849285D01*
X214230952Y-67563571D02*
X214897619Y-67563571D01*
X213850000Y-67801666D02*
X214564285Y-68039761D01*
X214564285Y-68039761D02*
X214564285Y-67420714D01*
%TO.C,D6*%
X58362215Y-55128094D02*
X57362215Y-55128094D01*
X57362215Y-55128094D02*
X57362215Y-54889999D01*
X57362215Y-54889999D02*
X57409834Y-54747142D01*
X57409834Y-54747142D02*
X57505072Y-54651904D01*
X57505072Y-54651904D02*
X57600310Y-54604285D01*
X57600310Y-54604285D02*
X57790786Y-54556666D01*
X57790786Y-54556666D02*
X57933643Y-54556666D01*
X57933643Y-54556666D02*
X58124119Y-54604285D01*
X58124119Y-54604285D02*
X58219357Y-54651904D01*
X58219357Y-54651904D02*
X58314596Y-54747142D01*
X58314596Y-54747142D02*
X58362215Y-54889999D01*
X58362215Y-54889999D02*
X58362215Y-55128094D01*
X57362215Y-53699523D02*
X57362215Y-53889999D01*
X57362215Y-53889999D02*
X57409834Y-53985237D01*
X57409834Y-53985237D02*
X57457453Y-54032856D01*
X57457453Y-54032856D02*
X57600310Y-54128094D01*
X57600310Y-54128094D02*
X57790786Y-54175713D01*
X57790786Y-54175713D02*
X58171738Y-54175713D01*
X58171738Y-54175713D02*
X58266976Y-54128094D01*
X58266976Y-54128094D02*
X58314596Y-54080475D01*
X58314596Y-54080475D02*
X58362215Y-53985237D01*
X58362215Y-53985237D02*
X58362215Y-53794761D01*
X58362215Y-53794761D02*
X58314596Y-53699523D01*
X58314596Y-53699523D02*
X58266976Y-53651904D01*
X58266976Y-53651904D02*
X58171738Y-53604285D01*
X58171738Y-53604285D02*
X57933643Y-53604285D01*
X57933643Y-53604285D02*
X57838405Y-53651904D01*
X57838405Y-53651904D02*
X57790786Y-53699523D01*
X57790786Y-53699523D02*
X57743167Y-53794761D01*
X57743167Y-53794761D02*
X57743167Y-53985237D01*
X57743167Y-53985237D02*
X57790786Y-54080475D01*
X57790786Y-54080475D02*
X57838405Y-54128094D01*
X57838405Y-54128094D02*
X57933643Y-54175713D01*
%TO.C,R1*%
X65533333Y-95732619D02*
X65200000Y-95256428D01*
X64961905Y-95732619D02*
X64961905Y-94732619D01*
X64961905Y-94732619D02*
X65342857Y-94732619D01*
X65342857Y-94732619D02*
X65438095Y-94780238D01*
X65438095Y-94780238D02*
X65485714Y-94827857D01*
X65485714Y-94827857D02*
X65533333Y-94923095D01*
X65533333Y-94923095D02*
X65533333Y-95065952D01*
X65533333Y-95065952D02*
X65485714Y-95161190D01*
X65485714Y-95161190D02*
X65438095Y-95208809D01*
X65438095Y-95208809D02*
X65342857Y-95256428D01*
X65342857Y-95256428D02*
X64961905Y-95256428D01*
X66485714Y-95732619D02*
X65914286Y-95732619D01*
X66200000Y-95732619D02*
X66200000Y-94732619D01*
X66200000Y-94732619D02*
X66104762Y-94875476D01*
X66104762Y-94875476D02*
X66009524Y-94970714D01*
X66009524Y-94970714D02*
X65914286Y-95018333D01*
%TO.C,J6*%
X137666666Y-148207619D02*
X137666666Y-148921904D01*
X137666666Y-148921904D02*
X137619047Y-149064761D01*
X137619047Y-149064761D02*
X137523809Y-149160000D01*
X137523809Y-149160000D02*
X137380952Y-149207619D01*
X137380952Y-149207619D02*
X137285714Y-149207619D01*
X138571428Y-148207619D02*
X138380952Y-148207619D01*
X138380952Y-148207619D02*
X138285714Y-148255238D01*
X138285714Y-148255238D02*
X138238095Y-148302857D01*
X138238095Y-148302857D02*
X138142857Y-148445714D01*
X138142857Y-148445714D02*
X138095238Y-148636190D01*
X138095238Y-148636190D02*
X138095238Y-149017142D01*
X138095238Y-149017142D02*
X138142857Y-149112380D01*
X138142857Y-149112380D02*
X138190476Y-149160000D01*
X138190476Y-149160000D02*
X138285714Y-149207619D01*
X138285714Y-149207619D02*
X138476190Y-149207619D01*
X138476190Y-149207619D02*
X138571428Y-149160000D01*
X138571428Y-149160000D02*
X138619047Y-149112380D01*
X138619047Y-149112380D02*
X138666666Y-149017142D01*
X138666666Y-149017142D02*
X138666666Y-148779047D01*
X138666666Y-148779047D02*
X138619047Y-148683809D01*
X138619047Y-148683809D02*
X138571428Y-148636190D01*
X138571428Y-148636190D02*
X138476190Y-148588571D01*
X138476190Y-148588571D02*
X138285714Y-148588571D01*
X138285714Y-148588571D02*
X138190476Y-148636190D01*
X138190476Y-148636190D02*
X138142857Y-148683809D01*
X138142857Y-148683809D02*
X138095238Y-148779047D01*
%TO.C,C4*%
X149160734Y-79317380D02*
X149113115Y-79365000D01*
X149113115Y-79365000D02*
X148970258Y-79412619D01*
X148970258Y-79412619D02*
X148875020Y-79412619D01*
X148875020Y-79412619D02*
X148732163Y-79365000D01*
X148732163Y-79365000D02*
X148636925Y-79269761D01*
X148636925Y-79269761D02*
X148589306Y-79174523D01*
X148589306Y-79174523D02*
X148541687Y-78984047D01*
X148541687Y-78984047D02*
X148541687Y-78841190D01*
X148541687Y-78841190D02*
X148589306Y-78650714D01*
X148589306Y-78650714D02*
X148636925Y-78555476D01*
X148636925Y-78555476D02*
X148732163Y-78460238D01*
X148732163Y-78460238D02*
X148875020Y-78412619D01*
X148875020Y-78412619D02*
X148970258Y-78412619D01*
X148970258Y-78412619D02*
X149113115Y-78460238D01*
X149113115Y-78460238D02*
X149160734Y-78507857D01*
X150017877Y-78745952D02*
X150017877Y-79412619D01*
X149779782Y-78365000D02*
X149541687Y-79079285D01*
X149541687Y-79079285D02*
X150160734Y-79079285D01*
%TO.C,R2*%
X65653333Y-103632619D02*
X65320000Y-103156428D01*
X65081905Y-103632619D02*
X65081905Y-102632619D01*
X65081905Y-102632619D02*
X65462857Y-102632619D01*
X65462857Y-102632619D02*
X65558095Y-102680238D01*
X65558095Y-102680238D02*
X65605714Y-102727857D01*
X65605714Y-102727857D02*
X65653333Y-102823095D01*
X65653333Y-102823095D02*
X65653333Y-102965952D01*
X65653333Y-102965952D02*
X65605714Y-103061190D01*
X65605714Y-103061190D02*
X65558095Y-103108809D01*
X65558095Y-103108809D02*
X65462857Y-103156428D01*
X65462857Y-103156428D02*
X65081905Y-103156428D01*
X66034286Y-102727857D02*
X66081905Y-102680238D01*
X66081905Y-102680238D02*
X66177143Y-102632619D01*
X66177143Y-102632619D02*
X66415238Y-102632619D01*
X66415238Y-102632619D02*
X66510476Y-102680238D01*
X66510476Y-102680238D02*
X66558095Y-102727857D01*
X66558095Y-102727857D02*
X66605714Y-102823095D01*
X66605714Y-102823095D02*
X66605714Y-102918333D01*
X66605714Y-102918333D02*
X66558095Y-103061190D01*
X66558095Y-103061190D02*
X65986667Y-103632619D01*
X65986667Y-103632619D02*
X66605714Y-103632619D01*
%TO.C,R23*%
X69357142Y-113092619D02*
X69023809Y-112616428D01*
X68785714Y-113092619D02*
X68785714Y-112092619D01*
X68785714Y-112092619D02*
X69166666Y-112092619D01*
X69166666Y-112092619D02*
X69261904Y-112140238D01*
X69261904Y-112140238D02*
X69309523Y-112187857D01*
X69309523Y-112187857D02*
X69357142Y-112283095D01*
X69357142Y-112283095D02*
X69357142Y-112425952D01*
X69357142Y-112425952D02*
X69309523Y-112521190D01*
X69309523Y-112521190D02*
X69261904Y-112568809D01*
X69261904Y-112568809D02*
X69166666Y-112616428D01*
X69166666Y-112616428D02*
X68785714Y-112616428D01*
X69738095Y-112187857D02*
X69785714Y-112140238D01*
X69785714Y-112140238D02*
X69880952Y-112092619D01*
X69880952Y-112092619D02*
X70119047Y-112092619D01*
X70119047Y-112092619D02*
X70214285Y-112140238D01*
X70214285Y-112140238D02*
X70261904Y-112187857D01*
X70261904Y-112187857D02*
X70309523Y-112283095D01*
X70309523Y-112283095D02*
X70309523Y-112378333D01*
X70309523Y-112378333D02*
X70261904Y-112521190D01*
X70261904Y-112521190D02*
X69690476Y-113092619D01*
X69690476Y-113092619D02*
X70309523Y-113092619D01*
X70642857Y-112092619D02*
X71261904Y-112092619D01*
X71261904Y-112092619D02*
X70928571Y-112473571D01*
X70928571Y-112473571D02*
X71071428Y-112473571D01*
X71071428Y-112473571D02*
X71166666Y-112521190D01*
X71166666Y-112521190D02*
X71214285Y-112568809D01*
X71214285Y-112568809D02*
X71261904Y-112664047D01*
X71261904Y-112664047D02*
X71261904Y-112902142D01*
X71261904Y-112902142D02*
X71214285Y-112997380D01*
X71214285Y-112997380D02*
X71166666Y-113045000D01*
X71166666Y-113045000D02*
X71071428Y-113092619D01*
X71071428Y-113092619D02*
X70785714Y-113092619D01*
X70785714Y-113092619D02*
X70690476Y-113045000D01*
X70690476Y-113045000D02*
X70642857Y-112997380D01*
%TO.C,SW1*%
X93305000Y-38443332D02*
X93352619Y-38300475D01*
X93352619Y-38300475D02*
X93352619Y-38062380D01*
X93352619Y-38062380D02*
X93305000Y-37967142D01*
X93305000Y-37967142D02*
X93257380Y-37919523D01*
X93257380Y-37919523D02*
X93162142Y-37871904D01*
X93162142Y-37871904D02*
X93066904Y-37871904D01*
X93066904Y-37871904D02*
X92971666Y-37919523D01*
X92971666Y-37919523D02*
X92924047Y-37967142D01*
X92924047Y-37967142D02*
X92876428Y-38062380D01*
X92876428Y-38062380D02*
X92828809Y-38252856D01*
X92828809Y-38252856D02*
X92781190Y-38348094D01*
X92781190Y-38348094D02*
X92733571Y-38395713D01*
X92733571Y-38395713D02*
X92638333Y-38443332D01*
X92638333Y-38443332D02*
X92543095Y-38443332D01*
X92543095Y-38443332D02*
X92447857Y-38395713D01*
X92447857Y-38395713D02*
X92400238Y-38348094D01*
X92400238Y-38348094D02*
X92352619Y-38252856D01*
X92352619Y-38252856D02*
X92352619Y-38014761D01*
X92352619Y-38014761D02*
X92400238Y-37871904D01*
X92352619Y-37538570D02*
X93352619Y-37300475D01*
X93352619Y-37300475D02*
X92638333Y-37109999D01*
X92638333Y-37109999D02*
X93352619Y-36919523D01*
X93352619Y-36919523D02*
X92352619Y-36681428D01*
X93352619Y-35776666D02*
X93352619Y-36348094D01*
X93352619Y-36062380D02*
X92352619Y-36062380D01*
X92352619Y-36062380D02*
X92495476Y-36157618D01*
X92495476Y-36157618D02*
X92590714Y-36252856D01*
X92590714Y-36252856D02*
X92638333Y-36348094D01*
%TO.C,R21*%
X53357142Y-113092619D02*
X53023809Y-112616428D01*
X52785714Y-113092619D02*
X52785714Y-112092619D01*
X52785714Y-112092619D02*
X53166666Y-112092619D01*
X53166666Y-112092619D02*
X53261904Y-112140238D01*
X53261904Y-112140238D02*
X53309523Y-112187857D01*
X53309523Y-112187857D02*
X53357142Y-112283095D01*
X53357142Y-112283095D02*
X53357142Y-112425952D01*
X53357142Y-112425952D02*
X53309523Y-112521190D01*
X53309523Y-112521190D02*
X53261904Y-112568809D01*
X53261904Y-112568809D02*
X53166666Y-112616428D01*
X53166666Y-112616428D02*
X52785714Y-112616428D01*
X53738095Y-112187857D02*
X53785714Y-112140238D01*
X53785714Y-112140238D02*
X53880952Y-112092619D01*
X53880952Y-112092619D02*
X54119047Y-112092619D01*
X54119047Y-112092619D02*
X54214285Y-112140238D01*
X54214285Y-112140238D02*
X54261904Y-112187857D01*
X54261904Y-112187857D02*
X54309523Y-112283095D01*
X54309523Y-112283095D02*
X54309523Y-112378333D01*
X54309523Y-112378333D02*
X54261904Y-112521190D01*
X54261904Y-112521190D02*
X53690476Y-113092619D01*
X53690476Y-113092619D02*
X54309523Y-113092619D01*
X55261904Y-113092619D02*
X54690476Y-113092619D01*
X54976190Y-113092619D02*
X54976190Y-112092619D01*
X54976190Y-112092619D02*
X54880952Y-112235476D01*
X54880952Y-112235476D02*
X54785714Y-112330714D01*
X54785714Y-112330714D02*
X54690476Y-112378333D01*
%TO.C,U2*%
X74002619Y-123971904D02*
X74812142Y-123971904D01*
X74812142Y-123971904D02*
X74907380Y-123924285D01*
X74907380Y-123924285D02*
X74955000Y-123876666D01*
X74955000Y-123876666D02*
X75002619Y-123781428D01*
X75002619Y-123781428D02*
X75002619Y-123590952D01*
X75002619Y-123590952D02*
X74955000Y-123495714D01*
X74955000Y-123495714D02*
X74907380Y-123448095D01*
X74907380Y-123448095D02*
X74812142Y-123400476D01*
X74812142Y-123400476D02*
X74002619Y-123400476D01*
X74097857Y-122971904D02*
X74050238Y-122924285D01*
X74050238Y-122924285D02*
X74002619Y-122829047D01*
X74002619Y-122829047D02*
X74002619Y-122590952D01*
X74002619Y-122590952D02*
X74050238Y-122495714D01*
X74050238Y-122495714D02*
X74097857Y-122448095D01*
X74097857Y-122448095D02*
X74193095Y-122400476D01*
X74193095Y-122400476D02*
X74288333Y-122400476D01*
X74288333Y-122400476D02*
X74431190Y-122448095D01*
X74431190Y-122448095D02*
X75002619Y-123019523D01*
X75002619Y-123019523D02*
X75002619Y-122400476D01*
D11*
%TO.C,Y1*%
X114495238Y-100382764D02*
X114495238Y-100987526D01*
X114071905Y-99717526D02*
X114495238Y-100382764D01*
X114495238Y-100382764D02*
X114918572Y-99717526D01*
X116007143Y-100987526D02*
X115281428Y-100987526D01*
X115644285Y-100987526D02*
X115644285Y-99717526D01*
X115644285Y-99717526D02*
X115523333Y-99898954D01*
X115523333Y-99898954D02*
X115402381Y-100019907D01*
X115402381Y-100019907D02*
X115281428Y-100080383D01*
%TO.C,IC1*%
X129460237Y-76587526D02*
X129460237Y-75317526D01*
X130790714Y-76466573D02*
X130730238Y-76527050D01*
X130730238Y-76527050D02*
X130548809Y-76587526D01*
X130548809Y-76587526D02*
X130427857Y-76587526D01*
X130427857Y-76587526D02*
X130246428Y-76527050D01*
X130246428Y-76527050D02*
X130125476Y-76406097D01*
X130125476Y-76406097D02*
X130064999Y-76285145D01*
X130064999Y-76285145D02*
X130004523Y-76043240D01*
X130004523Y-76043240D02*
X130004523Y-75861811D01*
X130004523Y-75861811D02*
X130064999Y-75619907D01*
X130064999Y-75619907D02*
X130125476Y-75498954D01*
X130125476Y-75498954D02*
X130246428Y-75378002D01*
X130246428Y-75378002D02*
X130427857Y-75317526D01*
X130427857Y-75317526D02*
X130548809Y-75317526D01*
X130548809Y-75317526D02*
X130730238Y-75378002D01*
X130730238Y-75378002D02*
X130790714Y-75438478D01*
X132000238Y-76587526D02*
X131274523Y-76587526D01*
X131637380Y-76587526D02*
X131637380Y-75317526D01*
X131637380Y-75317526D02*
X131516428Y-75498954D01*
X131516428Y-75498954D02*
X131395476Y-75619907D01*
X131395476Y-75619907D02*
X131274523Y-75680383D01*
D10*
%TO.C,U6*%
X139067619Y-123771904D02*
X139877142Y-123771904D01*
X139877142Y-123771904D02*
X139972380Y-123724285D01*
X139972380Y-123724285D02*
X140020000Y-123676666D01*
X140020000Y-123676666D02*
X140067619Y-123581428D01*
X140067619Y-123581428D02*
X140067619Y-123390952D01*
X140067619Y-123390952D02*
X140020000Y-123295714D01*
X140020000Y-123295714D02*
X139972380Y-123248095D01*
X139972380Y-123248095D02*
X139877142Y-123200476D01*
X139877142Y-123200476D02*
X139067619Y-123200476D01*
X139067619Y-122295714D02*
X139067619Y-122486190D01*
X139067619Y-122486190D02*
X139115238Y-122581428D01*
X139115238Y-122581428D02*
X139162857Y-122629047D01*
X139162857Y-122629047D02*
X139305714Y-122724285D01*
X139305714Y-122724285D02*
X139496190Y-122771904D01*
X139496190Y-122771904D02*
X139877142Y-122771904D01*
X139877142Y-122771904D02*
X139972380Y-122724285D01*
X139972380Y-122724285D02*
X140020000Y-122676666D01*
X140020000Y-122676666D02*
X140067619Y-122581428D01*
X140067619Y-122581428D02*
X140067619Y-122390952D01*
X140067619Y-122390952D02*
X140020000Y-122295714D01*
X140020000Y-122295714D02*
X139972380Y-122248095D01*
X139972380Y-122248095D02*
X139877142Y-122200476D01*
X139877142Y-122200476D02*
X139639047Y-122200476D01*
X139639047Y-122200476D02*
X139543809Y-122248095D01*
X139543809Y-122248095D02*
X139496190Y-122295714D01*
X139496190Y-122295714D02*
X139448571Y-122390952D01*
X139448571Y-122390952D02*
X139448571Y-122581428D01*
X139448571Y-122581428D02*
X139496190Y-122676666D01*
X139496190Y-122676666D02*
X139543809Y-122724285D01*
X139543809Y-122724285D02*
X139639047Y-122771904D01*
%TO.C,R10*%
X74532619Y-67142857D02*
X74056428Y-67476190D01*
X74532619Y-67714285D02*
X73532619Y-67714285D01*
X73532619Y-67714285D02*
X73532619Y-67333333D01*
X73532619Y-67333333D02*
X73580238Y-67238095D01*
X73580238Y-67238095D02*
X73627857Y-67190476D01*
X73627857Y-67190476D02*
X73723095Y-67142857D01*
X73723095Y-67142857D02*
X73865952Y-67142857D01*
X73865952Y-67142857D02*
X73961190Y-67190476D01*
X73961190Y-67190476D02*
X74008809Y-67238095D01*
X74008809Y-67238095D02*
X74056428Y-67333333D01*
X74056428Y-67333333D02*
X74056428Y-67714285D01*
X74532619Y-66190476D02*
X74532619Y-66761904D01*
X74532619Y-66476190D02*
X73532619Y-66476190D01*
X73532619Y-66476190D02*
X73675476Y-66571428D01*
X73675476Y-66571428D02*
X73770714Y-66666666D01*
X73770714Y-66666666D02*
X73818333Y-66761904D01*
X73532619Y-65571428D02*
X73532619Y-65476190D01*
X73532619Y-65476190D02*
X73580238Y-65380952D01*
X73580238Y-65380952D02*
X73627857Y-65333333D01*
X73627857Y-65333333D02*
X73723095Y-65285714D01*
X73723095Y-65285714D02*
X73913571Y-65238095D01*
X73913571Y-65238095D02*
X74151666Y-65238095D01*
X74151666Y-65238095D02*
X74342142Y-65285714D01*
X74342142Y-65285714D02*
X74437380Y-65333333D01*
X74437380Y-65333333D02*
X74485000Y-65380952D01*
X74485000Y-65380952D02*
X74532619Y-65476190D01*
X74532619Y-65476190D02*
X74532619Y-65571428D01*
X74532619Y-65571428D02*
X74485000Y-65666666D01*
X74485000Y-65666666D02*
X74437380Y-65714285D01*
X74437380Y-65714285D02*
X74342142Y-65761904D01*
X74342142Y-65761904D02*
X74151666Y-65809523D01*
X74151666Y-65809523D02*
X73913571Y-65809523D01*
X73913571Y-65809523D02*
X73723095Y-65761904D01*
X73723095Y-65761904D02*
X73627857Y-65714285D01*
X73627857Y-65714285D02*
X73580238Y-65666666D01*
X73580238Y-65666666D02*
X73532619Y-65571428D01*
%TO.C,J9*%
X148537619Y-34533333D02*
X149251904Y-34533333D01*
X149251904Y-34533333D02*
X149394761Y-34580952D01*
X149394761Y-34580952D02*
X149490000Y-34676190D01*
X149490000Y-34676190D02*
X149537619Y-34819047D01*
X149537619Y-34819047D02*
X149537619Y-34914285D01*
X149537619Y-34009523D02*
X149537619Y-33819047D01*
X149537619Y-33819047D02*
X149490000Y-33723809D01*
X149490000Y-33723809D02*
X149442380Y-33676190D01*
X149442380Y-33676190D02*
X149299523Y-33580952D01*
X149299523Y-33580952D02*
X149109047Y-33533333D01*
X149109047Y-33533333D02*
X148728095Y-33533333D01*
X148728095Y-33533333D02*
X148632857Y-33580952D01*
X148632857Y-33580952D02*
X148585238Y-33628571D01*
X148585238Y-33628571D02*
X148537619Y-33723809D01*
X148537619Y-33723809D02*
X148537619Y-33914285D01*
X148537619Y-33914285D02*
X148585238Y-34009523D01*
X148585238Y-34009523D02*
X148632857Y-34057142D01*
X148632857Y-34057142D02*
X148728095Y-34104761D01*
X148728095Y-34104761D02*
X148966190Y-34104761D01*
X148966190Y-34104761D02*
X149061428Y-34057142D01*
X149061428Y-34057142D02*
X149109047Y-34009523D01*
X149109047Y-34009523D02*
X149156666Y-33914285D01*
X149156666Y-33914285D02*
X149156666Y-33723809D01*
X149156666Y-33723809D02*
X149109047Y-33628571D01*
X149109047Y-33628571D02*
X149061428Y-33580952D01*
X149061428Y-33580952D02*
X148966190Y-33533333D01*
%TO.C,U7*%
X181698095Y-44192619D02*
X181698095Y-45002142D01*
X181698095Y-45002142D02*
X181745714Y-45097380D01*
X181745714Y-45097380D02*
X181793333Y-45145000D01*
X181793333Y-45145000D02*
X181888571Y-45192619D01*
X181888571Y-45192619D02*
X182079047Y-45192619D01*
X182079047Y-45192619D02*
X182174285Y-45145000D01*
X182174285Y-45145000D02*
X182221904Y-45097380D01*
X182221904Y-45097380D02*
X182269523Y-45002142D01*
X182269523Y-45002142D02*
X182269523Y-44192619D01*
X182650476Y-44192619D02*
X183317142Y-44192619D01*
X183317142Y-44192619D02*
X182888571Y-45192619D01*
%TO.C,R27*%
X102357142Y-113092619D02*
X102023809Y-112616428D01*
X101785714Y-113092619D02*
X101785714Y-112092619D01*
X101785714Y-112092619D02*
X102166666Y-112092619D01*
X102166666Y-112092619D02*
X102261904Y-112140238D01*
X102261904Y-112140238D02*
X102309523Y-112187857D01*
X102309523Y-112187857D02*
X102357142Y-112283095D01*
X102357142Y-112283095D02*
X102357142Y-112425952D01*
X102357142Y-112425952D02*
X102309523Y-112521190D01*
X102309523Y-112521190D02*
X102261904Y-112568809D01*
X102261904Y-112568809D02*
X102166666Y-112616428D01*
X102166666Y-112616428D02*
X101785714Y-112616428D01*
X102738095Y-112187857D02*
X102785714Y-112140238D01*
X102785714Y-112140238D02*
X102880952Y-112092619D01*
X102880952Y-112092619D02*
X103119047Y-112092619D01*
X103119047Y-112092619D02*
X103214285Y-112140238D01*
X103214285Y-112140238D02*
X103261904Y-112187857D01*
X103261904Y-112187857D02*
X103309523Y-112283095D01*
X103309523Y-112283095D02*
X103309523Y-112378333D01*
X103309523Y-112378333D02*
X103261904Y-112521190D01*
X103261904Y-112521190D02*
X102690476Y-113092619D01*
X102690476Y-113092619D02*
X103309523Y-113092619D01*
X103642857Y-112092619D02*
X104309523Y-112092619D01*
X104309523Y-112092619D02*
X103880952Y-113092619D01*
%TO.C,R13*%
X62382619Y-67142857D02*
X61906428Y-67476190D01*
X62382619Y-67714285D02*
X61382619Y-67714285D01*
X61382619Y-67714285D02*
X61382619Y-67333333D01*
X61382619Y-67333333D02*
X61430238Y-67238095D01*
X61430238Y-67238095D02*
X61477857Y-67190476D01*
X61477857Y-67190476D02*
X61573095Y-67142857D01*
X61573095Y-67142857D02*
X61715952Y-67142857D01*
X61715952Y-67142857D02*
X61811190Y-67190476D01*
X61811190Y-67190476D02*
X61858809Y-67238095D01*
X61858809Y-67238095D02*
X61906428Y-67333333D01*
X61906428Y-67333333D02*
X61906428Y-67714285D01*
X62382619Y-66190476D02*
X62382619Y-66761904D01*
X62382619Y-66476190D02*
X61382619Y-66476190D01*
X61382619Y-66476190D02*
X61525476Y-66571428D01*
X61525476Y-66571428D02*
X61620714Y-66666666D01*
X61620714Y-66666666D02*
X61668333Y-66761904D01*
X61382619Y-65857142D02*
X61382619Y-65238095D01*
X61382619Y-65238095D02*
X61763571Y-65571428D01*
X61763571Y-65571428D02*
X61763571Y-65428571D01*
X61763571Y-65428571D02*
X61811190Y-65333333D01*
X61811190Y-65333333D02*
X61858809Y-65285714D01*
X61858809Y-65285714D02*
X61954047Y-65238095D01*
X61954047Y-65238095D02*
X62192142Y-65238095D01*
X62192142Y-65238095D02*
X62287380Y-65285714D01*
X62287380Y-65285714D02*
X62335000Y-65333333D01*
X62335000Y-65333333D02*
X62382619Y-65428571D01*
X62382619Y-65428571D02*
X62382619Y-65714285D01*
X62382619Y-65714285D02*
X62335000Y-65809523D01*
X62335000Y-65809523D02*
X62287380Y-65857142D01*
%TO.C,D7*%
X52892417Y-55128094D02*
X51892417Y-55128094D01*
X51892417Y-55128094D02*
X51892417Y-54889999D01*
X51892417Y-54889999D02*
X51940036Y-54747142D01*
X51940036Y-54747142D02*
X52035274Y-54651904D01*
X52035274Y-54651904D02*
X52130512Y-54604285D01*
X52130512Y-54604285D02*
X52320988Y-54556666D01*
X52320988Y-54556666D02*
X52463845Y-54556666D01*
X52463845Y-54556666D02*
X52654321Y-54604285D01*
X52654321Y-54604285D02*
X52749559Y-54651904D01*
X52749559Y-54651904D02*
X52844798Y-54747142D01*
X52844798Y-54747142D02*
X52892417Y-54889999D01*
X52892417Y-54889999D02*
X52892417Y-55128094D01*
X51892417Y-54223332D02*
X51892417Y-53556666D01*
X51892417Y-53556666D02*
X52892417Y-53985237D01*
%TO.C,R8*%
X82632619Y-66666666D02*
X82156428Y-66999999D01*
X82632619Y-67238094D02*
X81632619Y-67238094D01*
X81632619Y-67238094D02*
X81632619Y-66857142D01*
X81632619Y-66857142D02*
X81680238Y-66761904D01*
X81680238Y-66761904D02*
X81727857Y-66714285D01*
X81727857Y-66714285D02*
X81823095Y-66666666D01*
X81823095Y-66666666D02*
X81965952Y-66666666D01*
X81965952Y-66666666D02*
X82061190Y-66714285D01*
X82061190Y-66714285D02*
X82108809Y-66761904D01*
X82108809Y-66761904D02*
X82156428Y-66857142D01*
X82156428Y-66857142D02*
X82156428Y-67238094D01*
X82061190Y-66095237D02*
X82013571Y-66190475D01*
X82013571Y-66190475D02*
X81965952Y-66238094D01*
X81965952Y-66238094D02*
X81870714Y-66285713D01*
X81870714Y-66285713D02*
X81823095Y-66285713D01*
X81823095Y-66285713D02*
X81727857Y-66238094D01*
X81727857Y-66238094D02*
X81680238Y-66190475D01*
X81680238Y-66190475D02*
X81632619Y-66095237D01*
X81632619Y-66095237D02*
X81632619Y-65904761D01*
X81632619Y-65904761D02*
X81680238Y-65809523D01*
X81680238Y-65809523D02*
X81727857Y-65761904D01*
X81727857Y-65761904D02*
X81823095Y-65714285D01*
X81823095Y-65714285D02*
X81870714Y-65714285D01*
X81870714Y-65714285D02*
X81965952Y-65761904D01*
X81965952Y-65761904D02*
X82013571Y-65809523D01*
X82013571Y-65809523D02*
X82061190Y-65904761D01*
X82061190Y-65904761D02*
X82061190Y-66095237D01*
X82061190Y-66095237D02*
X82108809Y-66190475D01*
X82108809Y-66190475D02*
X82156428Y-66238094D01*
X82156428Y-66238094D02*
X82251666Y-66285713D01*
X82251666Y-66285713D02*
X82442142Y-66285713D01*
X82442142Y-66285713D02*
X82537380Y-66238094D01*
X82537380Y-66238094D02*
X82585000Y-66190475D01*
X82585000Y-66190475D02*
X82632619Y-66095237D01*
X82632619Y-66095237D02*
X82632619Y-65904761D01*
X82632619Y-65904761D02*
X82585000Y-65809523D01*
X82585000Y-65809523D02*
X82537380Y-65761904D01*
X82537380Y-65761904D02*
X82442142Y-65714285D01*
X82442142Y-65714285D02*
X82251666Y-65714285D01*
X82251666Y-65714285D02*
X82156428Y-65761904D01*
X82156428Y-65761904D02*
X82108809Y-65809523D01*
X82108809Y-65809523D02*
X82061190Y-65904761D01*
%TO.C,D8*%
X47422619Y-55128094D02*
X46422619Y-55128094D01*
X46422619Y-55128094D02*
X46422619Y-54889999D01*
X46422619Y-54889999D02*
X46470238Y-54747142D01*
X46470238Y-54747142D02*
X46565476Y-54651904D01*
X46565476Y-54651904D02*
X46660714Y-54604285D01*
X46660714Y-54604285D02*
X46851190Y-54556666D01*
X46851190Y-54556666D02*
X46994047Y-54556666D01*
X46994047Y-54556666D02*
X47184523Y-54604285D01*
X47184523Y-54604285D02*
X47279761Y-54651904D01*
X47279761Y-54651904D02*
X47375000Y-54747142D01*
X47375000Y-54747142D02*
X47422619Y-54889999D01*
X47422619Y-54889999D02*
X47422619Y-55128094D01*
X46851190Y-53985237D02*
X46803571Y-54080475D01*
X46803571Y-54080475D02*
X46755952Y-54128094D01*
X46755952Y-54128094D02*
X46660714Y-54175713D01*
X46660714Y-54175713D02*
X46613095Y-54175713D01*
X46613095Y-54175713D02*
X46517857Y-54128094D01*
X46517857Y-54128094D02*
X46470238Y-54080475D01*
X46470238Y-54080475D02*
X46422619Y-53985237D01*
X46422619Y-53985237D02*
X46422619Y-53794761D01*
X46422619Y-53794761D02*
X46470238Y-53699523D01*
X46470238Y-53699523D02*
X46517857Y-53651904D01*
X46517857Y-53651904D02*
X46613095Y-53604285D01*
X46613095Y-53604285D02*
X46660714Y-53604285D01*
X46660714Y-53604285D02*
X46755952Y-53651904D01*
X46755952Y-53651904D02*
X46803571Y-53699523D01*
X46803571Y-53699523D02*
X46851190Y-53794761D01*
X46851190Y-53794761D02*
X46851190Y-53985237D01*
X46851190Y-53985237D02*
X46898809Y-54080475D01*
X46898809Y-54080475D02*
X46946428Y-54128094D01*
X46946428Y-54128094D02*
X47041666Y-54175713D01*
X47041666Y-54175713D02*
X47232142Y-54175713D01*
X47232142Y-54175713D02*
X47327380Y-54128094D01*
X47327380Y-54128094D02*
X47375000Y-54080475D01*
X47375000Y-54080475D02*
X47422619Y-53985237D01*
X47422619Y-53985237D02*
X47422619Y-53794761D01*
X47422619Y-53794761D02*
X47375000Y-53699523D01*
X47375000Y-53699523D02*
X47327380Y-53651904D01*
X47327380Y-53651904D02*
X47232142Y-53604285D01*
X47232142Y-53604285D02*
X47041666Y-53604285D01*
X47041666Y-53604285D02*
X46946428Y-53651904D01*
X46946428Y-53651904D02*
X46898809Y-53699523D01*
X46898809Y-53699523D02*
X46851190Y-53794761D01*
%TO.C,U5*%
X123747619Y-123871904D02*
X124557142Y-123871904D01*
X124557142Y-123871904D02*
X124652380Y-123824285D01*
X124652380Y-123824285D02*
X124700000Y-123776666D01*
X124700000Y-123776666D02*
X124747619Y-123681428D01*
X124747619Y-123681428D02*
X124747619Y-123490952D01*
X124747619Y-123490952D02*
X124700000Y-123395714D01*
X124700000Y-123395714D02*
X124652380Y-123348095D01*
X124652380Y-123348095D02*
X124557142Y-123300476D01*
X124557142Y-123300476D02*
X123747619Y-123300476D01*
X123747619Y-122348095D02*
X123747619Y-122824285D01*
X123747619Y-122824285D02*
X124223809Y-122871904D01*
X124223809Y-122871904D02*
X124176190Y-122824285D01*
X124176190Y-122824285D02*
X124128571Y-122729047D01*
X124128571Y-122729047D02*
X124128571Y-122490952D01*
X124128571Y-122490952D02*
X124176190Y-122395714D01*
X124176190Y-122395714D02*
X124223809Y-122348095D01*
X124223809Y-122348095D02*
X124319047Y-122300476D01*
X124319047Y-122300476D02*
X124557142Y-122300476D01*
X124557142Y-122300476D02*
X124652380Y-122348095D01*
X124652380Y-122348095D02*
X124700000Y-122395714D01*
X124700000Y-122395714D02*
X124747619Y-122490952D01*
X124747619Y-122490952D02*
X124747619Y-122729047D01*
X124747619Y-122729047D02*
X124700000Y-122824285D01*
X124700000Y-122824285D02*
X124652380Y-122871904D01*
%TO.C,J10*%
X97497619Y-35209523D02*
X98211904Y-35209523D01*
X98211904Y-35209523D02*
X98354761Y-35257142D01*
X98354761Y-35257142D02*
X98450000Y-35352380D01*
X98450000Y-35352380D02*
X98497619Y-35495237D01*
X98497619Y-35495237D02*
X98497619Y-35590475D01*
X98497619Y-34209523D02*
X98497619Y-34780951D01*
X98497619Y-34495237D02*
X97497619Y-34495237D01*
X97497619Y-34495237D02*
X97640476Y-34590475D01*
X97640476Y-34590475D02*
X97735714Y-34685713D01*
X97735714Y-34685713D02*
X97783333Y-34780951D01*
X97497619Y-33590475D02*
X97497619Y-33495237D01*
X97497619Y-33495237D02*
X97545238Y-33399999D01*
X97545238Y-33399999D02*
X97592857Y-33352380D01*
X97592857Y-33352380D02*
X97688095Y-33304761D01*
X97688095Y-33304761D02*
X97878571Y-33257142D01*
X97878571Y-33257142D02*
X98116666Y-33257142D01*
X98116666Y-33257142D02*
X98307142Y-33304761D01*
X98307142Y-33304761D02*
X98402380Y-33352380D01*
X98402380Y-33352380D02*
X98450000Y-33399999D01*
X98450000Y-33399999D02*
X98497619Y-33495237D01*
X98497619Y-33495237D02*
X98497619Y-33590475D01*
X98497619Y-33590475D02*
X98450000Y-33685713D01*
X98450000Y-33685713D02*
X98402380Y-33733332D01*
X98402380Y-33733332D02*
X98307142Y-33780951D01*
X98307142Y-33780951D02*
X98116666Y-33828570D01*
X98116666Y-33828570D02*
X97878571Y-33828570D01*
X97878571Y-33828570D02*
X97688095Y-33780951D01*
X97688095Y-33780951D02*
X97592857Y-33733332D01*
X97592857Y-33733332D02*
X97545238Y-33685713D01*
X97545238Y-33685713D02*
X97497619Y-33590475D01*
%TO.C,D4*%
X69301811Y-55128094D02*
X68301811Y-55128094D01*
X68301811Y-55128094D02*
X68301811Y-54889999D01*
X68301811Y-54889999D02*
X68349430Y-54747142D01*
X68349430Y-54747142D02*
X68444668Y-54651904D01*
X68444668Y-54651904D02*
X68539906Y-54604285D01*
X68539906Y-54604285D02*
X68730382Y-54556666D01*
X68730382Y-54556666D02*
X68873239Y-54556666D01*
X68873239Y-54556666D02*
X69063715Y-54604285D01*
X69063715Y-54604285D02*
X69158953Y-54651904D01*
X69158953Y-54651904D02*
X69254192Y-54747142D01*
X69254192Y-54747142D02*
X69301811Y-54889999D01*
X69301811Y-54889999D02*
X69301811Y-55128094D01*
X68635144Y-53699523D02*
X69301811Y-53699523D01*
X68254192Y-53937618D02*
X68968477Y-54175713D01*
X68968477Y-54175713D02*
X68968477Y-53556666D01*
%TO.C,R25*%
X85357142Y-113092619D02*
X85023809Y-112616428D01*
X84785714Y-113092619D02*
X84785714Y-112092619D01*
X84785714Y-112092619D02*
X85166666Y-112092619D01*
X85166666Y-112092619D02*
X85261904Y-112140238D01*
X85261904Y-112140238D02*
X85309523Y-112187857D01*
X85309523Y-112187857D02*
X85357142Y-112283095D01*
X85357142Y-112283095D02*
X85357142Y-112425952D01*
X85357142Y-112425952D02*
X85309523Y-112521190D01*
X85309523Y-112521190D02*
X85261904Y-112568809D01*
X85261904Y-112568809D02*
X85166666Y-112616428D01*
X85166666Y-112616428D02*
X84785714Y-112616428D01*
X85738095Y-112187857D02*
X85785714Y-112140238D01*
X85785714Y-112140238D02*
X85880952Y-112092619D01*
X85880952Y-112092619D02*
X86119047Y-112092619D01*
X86119047Y-112092619D02*
X86214285Y-112140238D01*
X86214285Y-112140238D02*
X86261904Y-112187857D01*
X86261904Y-112187857D02*
X86309523Y-112283095D01*
X86309523Y-112283095D02*
X86309523Y-112378333D01*
X86309523Y-112378333D02*
X86261904Y-112521190D01*
X86261904Y-112521190D02*
X85690476Y-113092619D01*
X85690476Y-113092619D02*
X86309523Y-113092619D01*
X87214285Y-112092619D02*
X86738095Y-112092619D01*
X86738095Y-112092619D02*
X86690476Y-112568809D01*
X86690476Y-112568809D02*
X86738095Y-112521190D01*
X86738095Y-112521190D02*
X86833333Y-112473571D01*
X86833333Y-112473571D02*
X87071428Y-112473571D01*
X87071428Y-112473571D02*
X87166666Y-112521190D01*
X87166666Y-112521190D02*
X87214285Y-112568809D01*
X87214285Y-112568809D02*
X87261904Y-112664047D01*
X87261904Y-112664047D02*
X87261904Y-112902142D01*
X87261904Y-112902142D02*
X87214285Y-112997380D01*
X87214285Y-112997380D02*
X87166666Y-113045000D01*
X87166666Y-113045000D02*
X87071428Y-113092619D01*
X87071428Y-113092619D02*
X86833333Y-113092619D01*
X86833333Y-113092619D02*
X86738095Y-113045000D01*
X86738095Y-113045000D02*
X86690476Y-112997380D01*
%TO.C,R12*%
X66432619Y-67142857D02*
X65956428Y-67476190D01*
X66432619Y-67714285D02*
X65432619Y-67714285D01*
X65432619Y-67714285D02*
X65432619Y-67333333D01*
X65432619Y-67333333D02*
X65480238Y-67238095D01*
X65480238Y-67238095D02*
X65527857Y-67190476D01*
X65527857Y-67190476D02*
X65623095Y-67142857D01*
X65623095Y-67142857D02*
X65765952Y-67142857D01*
X65765952Y-67142857D02*
X65861190Y-67190476D01*
X65861190Y-67190476D02*
X65908809Y-67238095D01*
X65908809Y-67238095D02*
X65956428Y-67333333D01*
X65956428Y-67333333D02*
X65956428Y-67714285D01*
X66432619Y-66190476D02*
X66432619Y-66761904D01*
X66432619Y-66476190D02*
X65432619Y-66476190D01*
X65432619Y-66476190D02*
X65575476Y-66571428D01*
X65575476Y-66571428D02*
X65670714Y-66666666D01*
X65670714Y-66666666D02*
X65718333Y-66761904D01*
X65527857Y-65809523D02*
X65480238Y-65761904D01*
X65480238Y-65761904D02*
X65432619Y-65666666D01*
X65432619Y-65666666D02*
X65432619Y-65428571D01*
X65432619Y-65428571D02*
X65480238Y-65333333D01*
X65480238Y-65333333D02*
X65527857Y-65285714D01*
X65527857Y-65285714D02*
X65623095Y-65238095D01*
X65623095Y-65238095D02*
X65718333Y-65238095D01*
X65718333Y-65238095D02*
X65861190Y-65285714D01*
X65861190Y-65285714D02*
X66432619Y-65857142D01*
X66432619Y-65857142D02*
X66432619Y-65238095D01*
%TO.C,R15*%
X97577142Y-61992619D02*
X97243809Y-61516428D01*
X97005714Y-61992619D02*
X97005714Y-60992619D01*
X97005714Y-60992619D02*
X97386666Y-60992619D01*
X97386666Y-60992619D02*
X97481904Y-61040238D01*
X97481904Y-61040238D02*
X97529523Y-61087857D01*
X97529523Y-61087857D02*
X97577142Y-61183095D01*
X97577142Y-61183095D02*
X97577142Y-61325952D01*
X97577142Y-61325952D02*
X97529523Y-61421190D01*
X97529523Y-61421190D02*
X97481904Y-61468809D01*
X97481904Y-61468809D02*
X97386666Y-61516428D01*
X97386666Y-61516428D02*
X97005714Y-61516428D01*
X98529523Y-61992619D02*
X97958095Y-61992619D01*
X98243809Y-61992619D02*
X98243809Y-60992619D01*
X98243809Y-60992619D02*
X98148571Y-61135476D01*
X98148571Y-61135476D02*
X98053333Y-61230714D01*
X98053333Y-61230714D02*
X97958095Y-61278333D01*
X99434285Y-60992619D02*
X98958095Y-60992619D01*
X98958095Y-60992619D02*
X98910476Y-61468809D01*
X98910476Y-61468809D02*
X98958095Y-61421190D01*
X98958095Y-61421190D02*
X99053333Y-61373571D01*
X99053333Y-61373571D02*
X99291428Y-61373571D01*
X99291428Y-61373571D02*
X99386666Y-61421190D01*
X99386666Y-61421190D02*
X99434285Y-61468809D01*
X99434285Y-61468809D02*
X99481904Y-61564047D01*
X99481904Y-61564047D02*
X99481904Y-61802142D01*
X99481904Y-61802142D02*
X99434285Y-61897380D01*
X99434285Y-61897380D02*
X99386666Y-61945000D01*
X99386666Y-61945000D02*
X99291428Y-61992619D01*
X99291428Y-61992619D02*
X99053333Y-61992619D01*
X99053333Y-61992619D02*
X98958095Y-61945000D01*
X98958095Y-61945000D02*
X98910476Y-61897380D01*
%TO.C,R28*%
X91437142Y-143792619D02*
X91103809Y-143316428D01*
X90865714Y-143792619D02*
X90865714Y-142792619D01*
X90865714Y-142792619D02*
X91246666Y-142792619D01*
X91246666Y-142792619D02*
X91341904Y-142840238D01*
X91341904Y-142840238D02*
X91389523Y-142887857D01*
X91389523Y-142887857D02*
X91437142Y-142983095D01*
X91437142Y-142983095D02*
X91437142Y-143125952D01*
X91437142Y-143125952D02*
X91389523Y-143221190D01*
X91389523Y-143221190D02*
X91341904Y-143268809D01*
X91341904Y-143268809D02*
X91246666Y-143316428D01*
X91246666Y-143316428D02*
X90865714Y-143316428D01*
X91818095Y-142887857D02*
X91865714Y-142840238D01*
X91865714Y-142840238D02*
X91960952Y-142792619D01*
X91960952Y-142792619D02*
X92199047Y-142792619D01*
X92199047Y-142792619D02*
X92294285Y-142840238D01*
X92294285Y-142840238D02*
X92341904Y-142887857D01*
X92341904Y-142887857D02*
X92389523Y-142983095D01*
X92389523Y-142983095D02*
X92389523Y-143078333D01*
X92389523Y-143078333D02*
X92341904Y-143221190D01*
X92341904Y-143221190D02*
X91770476Y-143792619D01*
X91770476Y-143792619D02*
X92389523Y-143792619D01*
X92960952Y-143221190D02*
X92865714Y-143173571D01*
X92865714Y-143173571D02*
X92818095Y-143125952D01*
X92818095Y-143125952D02*
X92770476Y-143030714D01*
X92770476Y-143030714D02*
X92770476Y-142983095D01*
X92770476Y-142983095D02*
X92818095Y-142887857D01*
X92818095Y-142887857D02*
X92865714Y-142840238D01*
X92865714Y-142840238D02*
X92960952Y-142792619D01*
X92960952Y-142792619D02*
X93151428Y-142792619D01*
X93151428Y-142792619D02*
X93246666Y-142840238D01*
X93246666Y-142840238D02*
X93294285Y-142887857D01*
X93294285Y-142887857D02*
X93341904Y-142983095D01*
X93341904Y-142983095D02*
X93341904Y-143030714D01*
X93341904Y-143030714D02*
X93294285Y-143125952D01*
X93294285Y-143125952D02*
X93246666Y-143173571D01*
X93246666Y-143173571D02*
X93151428Y-143221190D01*
X93151428Y-143221190D02*
X92960952Y-143221190D01*
X92960952Y-143221190D02*
X92865714Y-143268809D01*
X92865714Y-143268809D02*
X92818095Y-143316428D01*
X92818095Y-143316428D02*
X92770476Y-143411666D01*
X92770476Y-143411666D02*
X92770476Y-143602142D01*
X92770476Y-143602142D02*
X92818095Y-143697380D01*
X92818095Y-143697380D02*
X92865714Y-143745000D01*
X92865714Y-143745000D02*
X92960952Y-143792619D01*
X92960952Y-143792619D02*
X93151428Y-143792619D01*
X93151428Y-143792619D02*
X93246666Y-143745000D01*
X93246666Y-143745000D02*
X93294285Y-143697380D01*
X93294285Y-143697380D02*
X93341904Y-143602142D01*
X93341904Y-143602142D02*
X93341904Y-143411666D01*
X93341904Y-143411666D02*
X93294285Y-143316428D01*
X93294285Y-143316428D02*
X93246666Y-143268809D01*
X93246666Y-143268809D02*
X93151428Y-143221190D01*
%TO.C,R19*%
X97577142Y-57192619D02*
X97243809Y-56716428D01*
X97005714Y-57192619D02*
X97005714Y-56192619D01*
X97005714Y-56192619D02*
X97386666Y-56192619D01*
X97386666Y-56192619D02*
X97481904Y-56240238D01*
X97481904Y-56240238D02*
X97529523Y-56287857D01*
X97529523Y-56287857D02*
X97577142Y-56383095D01*
X97577142Y-56383095D02*
X97577142Y-56525952D01*
X97577142Y-56525952D02*
X97529523Y-56621190D01*
X97529523Y-56621190D02*
X97481904Y-56668809D01*
X97481904Y-56668809D02*
X97386666Y-56716428D01*
X97386666Y-56716428D02*
X97005714Y-56716428D01*
X98529523Y-57192619D02*
X97958095Y-57192619D01*
X98243809Y-57192619D02*
X98243809Y-56192619D01*
X98243809Y-56192619D02*
X98148571Y-56335476D01*
X98148571Y-56335476D02*
X98053333Y-56430714D01*
X98053333Y-56430714D02*
X97958095Y-56478333D01*
X99005714Y-57192619D02*
X99196190Y-57192619D01*
X99196190Y-57192619D02*
X99291428Y-57145000D01*
X99291428Y-57145000D02*
X99339047Y-57097380D01*
X99339047Y-57097380D02*
X99434285Y-56954523D01*
X99434285Y-56954523D02*
X99481904Y-56764047D01*
X99481904Y-56764047D02*
X99481904Y-56383095D01*
X99481904Y-56383095D02*
X99434285Y-56287857D01*
X99434285Y-56287857D02*
X99386666Y-56240238D01*
X99386666Y-56240238D02*
X99291428Y-56192619D01*
X99291428Y-56192619D02*
X99100952Y-56192619D01*
X99100952Y-56192619D02*
X99005714Y-56240238D01*
X99005714Y-56240238D02*
X98958095Y-56287857D01*
X98958095Y-56287857D02*
X98910476Y-56383095D01*
X98910476Y-56383095D02*
X98910476Y-56621190D01*
X98910476Y-56621190D02*
X98958095Y-56716428D01*
X98958095Y-56716428D02*
X99005714Y-56764047D01*
X99005714Y-56764047D02*
X99100952Y-56811666D01*
X99100952Y-56811666D02*
X99291428Y-56811666D01*
X99291428Y-56811666D02*
X99386666Y-56764047D01*
X99386666Y-56764047D02*
X99434285Y-56716428D01*
X99434285Y-56716428D02*
X99481904Y-56621190D01*
%TO.C,RV1*%
X40912619Y-38895238D02*
X40436428Y-39228571D01*
X40912619Y-39466666D02*
X39912619Y-39466666D01*
X39912619Y-39466666D02*
X39912619Y-39085714D01*
X39912619Y-39085714D02*
X39960238Y-38990476D01*
X39960238Y-38990476D02*
X40007857Y-38942857D01*
X40007857Y-38942857D02*
X40103095Y-38895238D01*
X40103095Y-38895238D02*
X40245952Y-38895238D01*
X40245952Y-38895238D02*
X40341190Y-38942857D01*
X40341190Y-38942857D02*
X40388809Y-38990476D01*
X40388809Y-38990476D02*
X40436428Y-39085714D01*
X40436428Y-39085714D02*
X40436428Y-39466666D01*
X39912619Y-38609523D02*
X40912619Y-38276190D01*
X40912619Y-38276190D02*
X39912619Y-37942857D01*
X40912619Y-37085714D02*
X40912619Y-37657142D01*
X40912619Y-37371428D02*
X39912619Y-37371428D01*
X39912619Y-37371428D02*
X40055476Y-37466666D01*
X40055476Y-37466666D02*
X40150714Y-37561904D01*
X40150714Y-37561904D02*
X40198333Y-37657142D01*
%TO.C,U3*%
X90267619Y-123871904D02*
X91077142Y-123871904D01*
X91077142Y-123871904D02*
X91172380Y-123824285D01*
X91172380Y-123824285D02*
X91220000Y-123776666D01*
X91220000Y-123776666D02*
X91267619Y-123681428D01*
X91267619Y-123681428D02*
X91267619Y-123490952D01*
X91267619Y-123490952D02*
X91220000Y-123395714D01*
X91220000Y-123395714D02*
X91172380Y-123348095D01*
X91172380Y-123348095D02*
X91077142Y-123300476D01*
X91077142Y-123300476D02*
X90267619Y-123300476D01*
X90267619Y-122919523D02*
X90267619Y-122300476D01*
X90267619Y-122300476D02*
X90648571Y-122633809D01*
X90648571Y-122633809D02*
X90648571Y-122490952D01*
X90648571Y-122490952D02*
X90696190Y-122395714D01*
X90696190Y-122395714D02*
X90743809Y-122348095D01*
X90743809Y-122348095D02*
X90839047Y-122300476D01*
X90839047Y-122300476D02*
X91077142Y-122300476D01*
X91077142Y-122300476D02*
X91172380Y-122348095D01*
X91172380Y-122348095D02*
X91220000Y-122395714D01*
X91220000Y-122395714D02*
X91267619Y-122490952D01*
X91267619Y-122490952D02*
X91267619Y-122776666D01*
X91267619Y-122776666D02*
X91220000Y-122871904D01*
X91220000Y-122871904D02*
X91172380Y-122919523D01*
%TO.C,R29*%
X119357142Y-113092619D02*
X119023809Y-112616428D01*
X118785714Y-113092619D02*
X118785714Y-112092619D01*
X118785714Y-112092619D02*
X119166666Y-112092619D01*
X119166666Y-112092619D02*
X119261904Y-112140238D01*
X119261904Y-112140238D02*
X119309523Y-112187857D01*
X119309523Y-112187857D02*
X119357142Y-112283095D01*
X119357142Y-112283095D02*
X119357142Y-112425952D01*
X119357142Y-112425952D02*
X119309523Y-112521190D01*
X119309523Y-112521190D02*
X119261904Y-112568809D01*
X119261904Y-112568809D02*
X119166666Y-112616428D01*
X119166666Y-112616428D02*
X118785714Y-112616428D01*
X119738095Y-112187857D02*
X119785714Y-112140238D01*
X119785714Y-112140238D02*
X119880952Y-112092619D01*
X119880952Y-112092619D02*
X120119047Y-112092619D01*
X120119047Y-112092619D02*
X120214285Y-112140238D01*
X120214285Y-112140238D02*
X120261904Y-112187857D01*
X120261904Y-112187857D02*
X120309523Y-112283095D01*
X120309523Y-112283095D02*
X120309523Y-112378333D01*
X120309523Y-112378333D02*
X120261904Y-112521190D01*
X120261904Y-112521190D02*
X119690476Y-113092619D01*
X119690476Y-113092619D02*
X120309523Y-113092619D01*
X120785714Y-113092619D02*
X120976190Y-113092619D01*
X120976190Y-113092619D02*
X121071428Y-113045000D01*
X121071428Y-113045000D02*
X121119047Y-112997380D01*
X121119047Y-112997380D02*
X121214285Y-112854523D01*
X121214285Y-112854523D02*
X121261904Y-112664047D01*
X121261904Y-112664047D02*
X121261904Y-112283095D01*
X121261904Y-112283095D02*
X121214285Y-112187857D01*
X121214285Y-112187857D02*
X121166666Y-112140238D01*
X121166666Y-112140238D02*
X121071428Y-112092619D01*
X121071428Y-112092619D02*
X120880952Y-112092619D01*
X120880952Y-112092619D02*
X120785714Y-112140238D01*
X120785714Y-112140238D02*
X120738095Y-112187857D01*
X120738095Y-112187857D02*
X120690476Y-112283095D01*
X120690476Y-112283095D02*
X120690476Y-112521190D01*
X120690476Y-112521190D02*
X120738095Y-112616428D01*
X120738095Y-112616428D02*
X120785714Y-112664047D01*
X120785714Y-112664047D02*
X120880952Y-112711666D01*
X120880952Y-112711666D02*
X121071428Y-112711666D01*
X121071428Y-112711666D02*
X121166666Y-112664047D01*
X121166666Y-112664047D02*
X121214285Y-112616428D01*
X121214285Y-112616428D02*
X121261904Y-112521190D01*
%TO.C,D5*%
X63832013Y-55128094D02*
X62832013Y-55128094D01*
X62832013Y-55128094D02*
X62832013Y-54889999D01*
X62832013Y-54889999D02*
X62879632Y-54747142D01*
X62879632Y-54747142D02*
X62974870Y-54651904D01*
X62974870Y-54651904D02*
X63070108Y-54604285D01*
X63070108Y-54604285D02*
X63260584Y-54556666D01*
X63260584Y-54556666D02*
X63403441Y-54556666D01*
X63403441Y-54556666D02*
X63593917Y-54604285D01*
X63593917Y-54604285D02*
X63689155Y-54651904D01*
X63689155Y-54651904D02*
X63784394Y-54747142D01*
X63784394Y-54747142D02*
X63832013Y-54889999D01*
X63832013Y-54889999D02*
X63832013Y-55128094D01*
X62832013Y-53651904D02*
X62832013Y-54128094D01*
X62832013Y-54128094D02*
X63308203Y-54175713D01*
X63308203Y-54175713D02*
X63260584Y-54128094D01*
X63260584Y-54128094D02*
X63212965Y-54032856D01*
X63212965Y-54032856D02*
X63212965Y-53794761D01*
X63212965Y-53794761D02*
X63260584Y-53699523D01*
X63260584Y-53699523D02*
X63308203Y-53651904D01*
X63308203Y-53651904D02*
X63403441Y-53604285D01*
X63403441Y-53604285D02*
X63641536Y-53604285D01*
X63641536Y-53604285D02*
X63736774Y-53651904D01*
X63736774Y-53651904D02*
X63784394Y-53699523D01*
X63784394Y-53699523D02*
X63832013Y-53794761D01*
X63832013Y-53794761D02*
X63832013Y-54032856D01*
X63832013Y-54032856D02*
X63784394Y-54128094D01*
X63784394Y-54128094D02*
X63736774Y-54175713D01*
%TO.C,C2*%
X75933333Y-100217380D02*
X75885714Y-100265000D01*
X75885714Y-100265000D02*
X75742857Y-100312619D01*
X75742857Y-100312619D02*
X75647619Y-100312619D01*
X75647619Y-100312619D02*
X75504762Y-100265000D01*
X75504762Y-100265000D02*
X75409524Y-100169761D01*
X75409524Y-100169761D02*
X75361905Y-100074523D01*
X75361905Y-100074523D02*
X75314286Y-99884047D01*
X75314286Y-99884047D02*
X75314286Y-99741190D01*
X75314286Y-99741190D02*
X75361905Y-99550714D01*
X75361905Y-99550714D02*
X75409524Y-99455476D01*
X75409524Y-99455476D02*
X75504762Y-99360238D01*
X75504762Y-99360238D02*
X75647619Y-99312619D01*
X75647619Y-99312619D02*
X75742857Y-99312619D01*
X75742857Y-99312619D02*
X75885714Y-99360238D01*
X75885714Y-99360238D02*
X75933333Y-99407857D01*
X76314286Y-99407857D02*
X76361905Y-99360238D01*
X76361905Y-99360238D02*
X76457143Y-99312619D01*
X76457143Y-99312619D02*
X76695238Y-99312619D01*
X76695238Y-99312619D02*
X76790476Y-99360238D01*
X76790476Y-99360238D02*
X76838095Y-99407857D01*
X76838095Y-99407857D02*
X76885714Y-99503095D01*
X76885714Y-99503095D02*
X76885714Y-99598333D01*
X76885714Y-99598333D02*
X76838095Y-99741190D01*
X76838095Y-99741190D02*
X76266667Y-100312619D01*
X76266667Y-100312619D02*
X76885714Y-100312619D01*
%TO.C,J13*%
X173190476Y-31717619D02*
X173190476Y-32431904D01*
X173190476Y-32431904D02*
X173142857Y-32574761D01*
X173142857Y-32574761D02*
X173047619Y-32670000D01*
X173047619Y-32670000D02*
X172904762Y-32717619D01*
X172904762Y-32717619D02*
X172809524Y-32717619D01*
X174190476Y-32717619D02*
X173619048Y-32717619D01*
X173904762Y-32717619D02*
X173904762Y-31717619D01*
X173904762Y-31717619D02*
X173809524Y-31860476D01*
X173809524Y-31860476D02*
X173714286Y-31955714D01*
X173714286Y-31955714D02*
X173619048Y-32003333D01*
X174523810Y-31717619D02*
X175142857Y-31717619D01*
X175142857Y-31717619D02*
X174809524Y-32098571D01*
X174809524Y-32098571D02*
X174952381Y-32098571D01*
X174952381Y-32098571D02*
X175047619Y-32146190D01*
X175047619Y-32146190D02*
X175095238Y-32193809D01*
X175095238Y-32193809D02*
X175142857Y-32289047D01*
X175142857Y-32289047D02*
X175142857Y-32527142D01*
X175142857Y-32527142D02*
X175095238Y-32622380D01*
X175095238Y-32622380D02*
X175047619Y-32670000D01*
X175047619Y-32670000D02*
X174952381Y-32717619D01*
X174952381Y-32717619D02*
X174666667Y-32717619D01*
X174666667Y-32717619D02*
X174571429Y-32670000D01*
X174571429Y-32670000D02*
X174523810Y-32622380D01*
%TO.C,C1*%
X124260734Y-97317380D02*
X124213115Y-97365000D01*
X124213115Y-97365000D02*
X124070258Y-97412619D01*
X124070258Y-97412619D02*
X123975020Y-97412619D01*
X123975020Y-97412619D02*
X123832163Y-97365000D01*
X123832163Y-97365000D02*
X123736925Y-97269761D01*
X123736925Y-97269761D02*
X123689306Y-97174523D01*
X123689306Y-97174523D02*
X123641687Y-96984047D01*
X123641687Y-96984047D02*
X123641687Y-96841190D01*
X123641687Y-96841190D02*
X123689306Y-96650714D01*
X123689306Y-96650714D02*
X123736925Y-96555476D01*
X123736925Y-96555476D02*
X123832163Y-96460238D01*
X123832163Y-96460238D02*
X123975020Y-96412619D01*
X123975020Y-96412619D02*
X124070258Y-96412619D01*
X124070258Y-96412619D02*
X124213115Y-96460238D01*
X124213115Y-96460238D02*
X124260734Y-96507857D01*
X125213115Y-97412619D02*
X124641687Y-97412619D01*
X124927401Y-97412619D02*
X124927401Y-96412619D01*
X124927401Y-96412619D02*
X124832163Y-96555476D01*
X124832163Y-96555476D02*
X124736925Y-96650714D01*
X124736925Y-96650714D02*
X124641687Y-96698333D01*
%TO.C,R3*%
X65613333Y-99832619D02*
X65280000Y-99356428D01*
X65041905Y-99832619D02*
X65041905Y-98832619D01*
X65041905Y-98832619D02*
X65422857Y-98832619D01*
X65422857Y-98832619D02*
X65518095Y-98880238D01*
X65518095Y-98880238D02*
X65565714Y-98927857D01*
X65565714Y-98927857D02*
X65613333Y-99023095D01*
X65613333Y-99023095D02*
X65613333Y-99165952D01*
X65613333Y-99165952D02*
X65565714Y-99261190D01*
X65565714Y-99261190D02*
X65518095Y-99308809D01*
X65518095Y-99308809D02*
X65422857Y-99356428D01*
X65422857Y-99356428D02*
X65041905Y-99356428D01*
X65946667Y-98832619D02*
X66565714Y-98832619D01*
X66565714Y-98832619D02*
X66232381Y-99213571D01*
X66232381Y-99213571D02*
X66375238Y-99213571D01*
X66375238Y-99213571D02*
X66470476Y-99261190D01*
X66470476Y-99261190D02*
X66518095Y-99308809D01*
X66518095Y-99308809D02*
X66565714Y-99404047D01*
X66565714Y-99404047D02*
X66565714Y-99642142D01*
X66565714Y-99642142D02*
X66518095Y-99737380D01*
X66518095Y-99737380D02*
X66470476Y-99785000D01*
X66470476Y-99785000D02*
X66375238Y-99832619D01*
X66375238Y-99832619D02*
X66089524Y-99832619D01*
X66089524Y-99832619D02*
X65994286Y-99785000D01*
X65994286Y-99785000D02*
X65946667Y-99737380D01*
%TO.C,SW2*%
X76765000Y-38233332D02*
X76812619Y-38090475D01*
X76812619Y-38090475D02*
X76812619Y-37852380D01*
X76812619Y-37852380D02*
X76765000Y-37757142D01*
X76765000Y-37757142D02*
X76717380Y-37709523D01*
X76717380Y-37709523D02*
X76622142Y-37661904D01*
X76622142Y-37661904D02*
X76526904Y-37661904D01*
X76526904Y-37661904D02*
X76431666Y-37709523D01*
X76431666Y-37709523D02*
X76384047Y-37757142D01*
X76384047Y-37757142D02*
X76336428Y-37852380D01*
X76336428Y-37852380D02*
X76288809Y-38042856D01*
X76288809Y-38042856D02*
X76241190Y-38138094D01*
X76241190Y-38138094D02*
X76193571Y-38185713D01*
X76193571Y-38185713D02*
X76098333Y-38233332D01*
X76098333Y-38233332D02*
X76003095Y-38233332D01*
X76003095Y-38233332D02*
X75907857Y-38185713D01*
X75907857Y-38185713D02*
X75860238Y-38138094D01*
X75860238Y-38138094D02*
X75812619Y-38042856D01*
X75812619Y-38042856D02*
X75812619Y-37804761D01*
X75812619Y-37804761D02*
X75860238Y-37661904D01*
X75812619Y-37328570D02*
X76812619Y-37090475D01*
X76812619Y-37090475D02*
X76098333Y-36899999D01*
X76098333Y-36899999D02*
X76812619Y-36709523D01*
X76812619Y-36709523D02*
X75812619Y-36471428D01*
X75907857Y-36138094D02*
X75860238Y-36090475D01*
X75860238Y-36090475D02*
X75812619Y-35995237D01*
X75812619Y-35995237D02*
X75812619Y-35757142D01*
X75812619Y-35757142D02*
X75860238Y-35661904D01*
X75860238Y-35661904D02*
X75907857Y-35614285D01*
X75907857Y-35614285D02*
X76003095Y-35566666D01*
X76003095Y-35566666D02*
X76098333Y-35566666D01*
X76098333Y-35566666D02*
X76241190Y-35614285D01*
X76241190Y-35614285D02*
X76812619Y-36185713D01*
X76812619Y-36185713D02*
X76812619Y-35566666D01*
%TO.C,R11*%
X70482619Y-67142857D02*
X70006428Y-67476190D01*
X70482619Y-67714285D02*
X69482619Y-67714285D01*
X69482619Y-67714285D02*
X69482619Y-67333333D01*
X69482619Y-67333333D02*
X69530238Y-67238095D01*
X69530238Y-67238095D02*
X69577857Y-67190476D01*
X69577857Y-67190476D02*
X69673095Y-67142857D01*
X69673095Y-67142857D02*
X69815952Y-67142857D01*
X69815952Y-67142857D02*
X69911190Y-67190476D01*
X69911190Y-67190476D02*
X69958809Y-67238095D01*
X69958809Y-67238095D02*
X70006428Y-67333333D01*
X70006428Y-67333333D02*
X70006428Y-67714285D01*
X70482619Y-66190476D02*
X70482619Y-66761904D01*
X70482619Y-66476190D02*
X69482619Y-66476190D01*
X69482619Y-66476190D02*
X69625476Y-66571428D01*
X69625476Y-66571428D02*
X69720714Y-66666666D01*
X69720714Y-66666666D02*
X69768333Y-66761904D01*
X70482619Y-65238095D02*
X70482619Y-65809523D01*
X70482619Y-65523809D02*
X69482619Y-65523809D01*
X69482619Y-65523809D02*
X69625476Y-65619047D01*
X69625476Y-65619047D02*
X69720714Y-65714285D01*
X69720714Y-65714285D02*
X69768333Y-65809523D01*
%TO.C,J11*%
X121217619Y-35009523D02*
X121931904Y-35009523D01*
X121931904Y-35009523D02*
X122074761Y-35057142D01*
X122074761Y-35057142D02*
X122170000Y-35152380D01*
X122170000Y-35152380D02*
X122217619Y-35295237D01*
X122217619Y-35295237D02*
X122217619Y-35390475D01*
X122217619Y-34009523D02*
X122217619Y-34580951D01*
X122217619Y-34295237D02*
X121217619Y-34295237D01*
X121217619Y-34295237D02*
X121360476Y-34390475D01*
X121360476Y-34390475D02*
X121455714Y-34485713D01*
X121455714Y-34485713D02*
X121503333Y-34580951D01*
X122217619Y-33057142D02*
X122217619Y-33628570D01*
X122217619Y-33342856D02*
X121217619Y-33342856D01*
X121217619Y-33342856D02*
X121360476Y-33438094D01*
X121360476Y-33438094D02*
X121455714Y-33533332D01*
X121455714Y-33533332D02*
X121503333Y-33628570D01*
%TO.C,J7*%
X126466666Y-137512619D02*
X126466666Y-138226904D01*
X126466666Y-138226904D02*
X126419047Y-138369761D01*
X126419047Y-138369761D02*
X126323809Y-138465000D01*
X126323809Y-138465000D02*
X126180952Y-138512619D01*
X126180952Y-138512619D02*
X126085714Y-138512619D01*
X126847619Y-137512619D02*
X127514285Y-137512619D01*
X127514285Y-137512619D02*
X127085714Y-138512619D01*
%TO.C,R7*%
X86682619Y-66666666D02*
X86206428Y-66999999D01*
X86682619Y-67238094D02*
X85682619Y-67238094D01*
X85682619Y-67238094D02*
X85682619Y-66857142D01*
X85682619Y-66857142D02*
X85730238Y-66761904D01*
X85730238Y-66761904D02*
X85777857Y-66714285D01*
X85777857Y-66714285D02*
X85873095Y-66666666D01*
X85873095Y-66666666D02*
X86015952Y-66666666D01*
X86015952Y-66666666D02*
X86111190Y-66714285D01*
X86111190Y-66714285D02*
X86158809Y-66761904D01*
X86158809Y-66761904D02*
X86206428Y-66857142D01*
X86206428Y-66857142D02*
X86206428Y-67238094D01*
X85682619Y-66333332D02*
X85682619Y-65666666D01*
X85682619Y-65666666D02*
X86682619Y-66095237D01*
%TO.C,R5*%
X95533333Y-86362619D02*
X95200000Y-85886428D01*
X94961905Y-86362619D02*
X94961905Y-85362619D01*
X94961905Y-85362619D02*
X95342857Y-85362619D01*
X95342857Y-85362619D02*
X95438095Y-85410238D01*
X95438095Y-85410238D02*
X95485714Y-85457857D01*
X95485714Y-85457857D02*
X95533333Y-85553095D01*
X95533333Y-85553095D02*
X95533333Y-85695952D01*
X95533333Y-85695952D02*
X95485714Y-85791190D01*
X95485714Y-85791190D02*
X95438095Y-85838809D01*
X95438095Y-85838809D02*
X95342857Y-85886428D01*
X95342857Y-85886428D02*
X94961905Y-85886428D01*
X96438095Y-85362619D02*
X95961905Y-85362619D01*
X95961905Y-85362619D02*
X95914286Y-85838809D01*
X95914286Y-85838809D02*
X95961905Y-85791190D01*
X95961905Y-85791190D02*
X96057143Y-85743571D01*
X96057143Y-85743571D02*
X96295238Y-85743571D01*
X96295238Y-85743571D02*
X96390476Y-85791190D01*
X96390476Y-85791190D02*
X96438095Y-85838809D01*
X96438095Y-85838809D02*
X96485714Y-85934047D01*
X96485714Y-85934047D02*
X96485714Y-86172142D01*
X96485714Y-86172142D02*
X96438095Y-86267380D01*
X96438095Y-86267380D02*
X96390476Y-86315000D01*
X96390476Y-86315000D02*
X96295238Y-86362619D01*
X96295238Y-86362619D02*
X96057143Y-86362619D01*
X96057143Y-86362619D02*
X95961905Y-86315000D01*
X95961905Y-86315000D02*
X95914286Y-86267380D01*
%TO.C,J2*%
X150127619Y-146633333D02*
X150841904Y-146633333D01*
X150841904Y-146633333D02*
X150984761Y-146680952D01*
X150984761Y-146680952D02*
X151080000Y-146776190D01*
X151080000Y-146776190D02*
X151127619Y-146919047D01*
X151127619Y-146919047D02*
X151127619Y-147014285D01*
X150222857Y-146204761D02*
X150175238Y-146157142D01*
X150175238Y-146157142D02*
X150127619Y-146061904D01*
X150127619Y-146061904D02*
X150127619Y-145823809D01*
X150127619Y-145823809D02*
X150175238Y-145728571D01*
X150175238Y-145728571D02*
X150222857Y-145680952D01*
X150222857Y-145680952D02*
X150318095Y-145633333D01*
X150318095Y-145633333D02*
X150413333Y-145633333D01*
X150413333Y-145633333D02*
X150556190Y-145680952D01*
X150556190Y-145680952D02*
X151127619Y-146252380D01*
X151127619Y-146252380D02*
X151127619Y-145633333D01*
%TO.C,R9*%
X78582619Y-66666666D02*
X78106428Y-66999999D01*
X78582619Y-67238094D02*
X77582619Y-67238094D01*
X77582619Y-67238094D02*
X77582619Y-66857142D01*
X77582619Y-66857142D02*
X77630238Y-66761904D01*
X77630238Y-66761904D02*
X77677857Y-66714285D01*
X77677857Y-66714285D02*
X77773095Y-66666666D01*
X77773095Y-66666666D02*
X77915952Y-66666666D01*
X77915952Y-66666666D02*
X78011190Y-66714285D01*
X78011190Y-66714285D02*
X78058809Y-66761904D01*
X78058809Y-66761904D02*
X78106428Y-66857142D01*
X78106428Y-66857142D02*
X78106428Y-67238094D01*
X78582619Y-66190475D02*
X78582619Y-65999999D01*
X78582619Y-65999999D02*
X78535000Y-65904761D01*
X78535000Y-65904761D02*
X78487380Y-65857142D01*
X78487380Y-65857142D02*
X78344523Y-65761904D01*
X78344523Y-65761904D02*
X78154047Y-65714285D01*
X78154047Y-65714285D02*
X77773095Y-65714285D01*
X77773095Y-65714285D02*
X77677857Y-65761904D01*
X77677857Y-65761904D02*
X77630238Y-65809523D01*
X77630238Y-65809523D02*
X77582619Y-65904761D01*
X77582619Y-65904761D02*
X77582619Y-66095237D01*
X77582619Y-66095237D02*
X77630238Y-66190475D01*
X77630238Y-66190475D02*
X77677857Y-66238094D01*
X77677857Y-66238094D02*
X77773095Y-66285713D01*
X77773095Y-66285713D02*
X78011190Y-66285713D01*
X78011190Y-66285713D02*
X78106428Y-66238094D01*
X78106428Y-66238094D02*
X78154047Y-66190475D01*
X78154047Y-66190475D02*
X78201666Y-66095237D01*
X78201666Y-66095237D02*
X78201666Y-65904761D01*
X78201666Y-65904761D02*
X78154047Y-65809523D01*
X78154047Y-65809523D02*
X78106428Y-65761904D01*
X78106428Y-65761904D02*
X78011190Y-65714285D01*
%TO.C,D1*%
X85711205Y-55128094D02*
X84711205Y-55128094D01*
X84711205Y-55128094D02*
X84711205Y-54889999D01*
X84711205Y-54889999D02*
X84758824Y-54747142D01*
X84758824Y-54747142D02*
X84854062Y-54651904D01*
X84854062Y-54651904D02*
X84949300Y-54604285D01*
X84949300Y-54604285D02*
X85139776Y-54556666D01*
X85139776Y-54556666D02*
X85282633Y-54556666D01*
X85282633Y-54556666D02*
X85473109Y-54604285D01*
X85473109Y-54604285D02*
X85568347Y-54651904D01*
X85568347Y-54651904D02*
X85663586Y-54747142D01*
X85663586Y-54747142D02*
X85711205Y-54889999D01*
X85711205Y-54889999D02*
X85711205Y-55128094D01*
X85711205Y-53604285D02*
X85711205Y-54175713D01*
X85711205Y-53889999D02*
X84711205Y-53889999D01*
X84711205Y-53889999D02*
X84854062Y-53985237D01*
X84854062Y-53985237D02*
X84949300Y-54080475D01*
X84949300Y-54080475D02*
X84996919Y-54175713D01*
%TO.C,R17*%
X97577142Y-70092619D02*
X97243809Y-69616428D01*
X97005714Y-70092619D02*
X97005714Y-69092619D01*
X97005714Y-69092619D02*
X97386666Y-69092619D01*
X97386666Y-69092619D02*
X97481904Y-69140238D01*
X97481904Y-69140238D02*
X97529523Y-69187857D01*
X97529523Y-69187857D02*
X97577142Y-69283095D01*
X97577142Y-69283095D02*
X97577142Y-69425952D01*
X97577142Y-69425952D02*
X97529523Y-69521190D01*
X97529523Y-69521190D02*
X97481904Y-69568809D01*
X97481904Y-69568809D02*
X97386666Y-69616428D01*
X97386666Y-69616428D02*
X97005714Y-69616428D01*
X98529523Y-70092619D02*
X97958095Y-70092619D01*
X98243809Y-70092619D02*
X98243809Y-69092619D01*
X98243809Y-69092619D02*
X98148571Y-69235476D01*
X98148571Y-69235476D02*
X98053333Y-69330714D01*
X98053333Y-69330714D02*
X97958095Y-69378333D01*
X98862857Y-69092619D02*
X99529523Y-69092619D01*
X99529523Y-69092619D02*
X99100952Y-70092619D01*
%TO.C,J15*%
X184690476Y-33667619D02*
X184690476Y-34381904D01*
X184690476Y-34381904D02*
X184642857Y-34524761D01*
X184642857Y-34524761D02*
X184547619Y-34620000D01*
X184547619Y-34620000D02*
X184404762Y-34667619D01*
X184404762Y-34667619D02*
X184309524Y-34667619D01*
X185690476Y-34667619D02*
X185119048Y-34667619D01*
X185404762Y-34667619D02*
X185404762Y-33667619D01*
X185404762Y-33667619D02*
X185309524Y-33810476D01*
X185309524Y-33810476D02*
X185214286Y-33905714D01*
X185214286Y-33905714D02*
X185119048Y-33953333D01*
X186595238Y-33667619D02*
X186119048Y-33667619D01*
X186119048Y-33667619D02*
X186071429Y-34143809D01*
X186071429Y-34143809D02*
X186119048Y-34096190D01*
X186119048Y-34096190D02*
X186214286Y-34048571D01*
X186214286Y-34048571D02*
X186452381Y-34048571D01*
X186452381Y-34048571D02*
X186547619Y-34096190D01*
X186547619Y-34096190D02*
X186595238Y-34143809D01*
X186595238Y-34143809D02*
X186642857Y-34239047D01*
X186642857Y-34239047D02*
X186642857Y-34477142D01*
X186642857Y-34477142D02*
X186595238Y-34572380D01*
X186595238Y-34572380D02*
X186547619Y-34620000D01*
X186547619Y-34620000D02*
X186452381Y-34667619D01*
X186452381Y-34667619D02*
X186214286Y-34667619D01*
X186214286Y-34667619D02*
X186119048Y-34620000D01*
X186119048Y-34620000D02*
X186071429Y-34572380D01*
%TO.C,R18*%
X97577142Y-74142619D02*
X97243809Y-73666428D01*
X97005714Y-74142619D02*
X97005714Y-73142619D01*
X97005714Y-73142619D02*
X97386666Y-73142619D01*
X97386666Y-73142619D02*
X97481904Y-73190238D01*
X97481904Y-73190238D02*
X97529523Y-73237857D01*
X97529523Y-73237857D02*
X97577142Y-73333095D01*
X97577142Y-73333095D02*
X97577142Y-73475952D01*
X97577142Y-73475952D02*
X97529523Y-73571190D01*
X97529523Y-73571190D02*
X97481904Y-73618809D01*
X97481904Y-73618809D02*
X97386666Y-73666428D01*
X97386666Y-73666428D02*
X97005714Y-73666428D01*
X98529523Y-74142619D02*
X97958095Y-74142619D01*
X98243809Y-74142619D02*
X98243809Y-73142619D01*
X98243809Y-73142619D02*
X98148571Y-73285476D01*
X98148571Y-73285476D02*
X98053333Y-73380714D01*
X98053333Y-73380714D02*
X97958095Y-73428333D01*
X99100952Y-73571190D02*
X99005714Y-73523571D01*
X99005714Y-73523571D02*
X98958095Y-73475952D01*
X98958095Y-73475952D02*
X98910476Y-73380714D01*
X98910476Y-73380714D02*
X98910476Y-73333095D01*
X98910476Y-73333095D02*
X98958095Y-73237857D01*
X98958095Y-73237857D02*
X99005714Y-73190238D01*
X99005714Y-73190238D02*
X99100952Y-73142619D01*
X99100952Y-73142619D02*
X99291428Y-73142619D01*
X99291428Y-73142619D02*
X99386666Y-73190238D01*
X99386666Y-73190238D02*
X99434285Y-73237857D01*
X99434285Y-73237857D02*
X99481904Y-73333095D01*
X99481904Y-73333095D02*
X99481904Y-73380714D01*
X99481904Y-73380714D02*
X99434285Y-73475952D01*
X99434285Y-73475952D02*
X99386666Y-73523571D01*
X99386666Y-73523571D02*
X99291428Y-73571190D01*
X99291428Y-73571190D02*
X99100952Y-73571190D01*
X99100952Y-73571190D02*
X99005714Y-73618809D01*
X99005714Y-73618809D02*
X98958095Y-73666428D01*
X98958095Y-73666428D02*
X98910476Y-73761666D01*
X98910476Y-73761666D02*
X98910476Y-73952142D01*
X98910476Y-73952142D02*
X98958095Y-74047380D01*
X98958095Y-74047380D02*
X99005714Y-74095000D01*
X99005714Y-74095000D02*
X99100952Y-74142619D01*
X99100952Y-74142619D02*
X99291428Y-74142619D01*
X99291428Y-74142619D02*
X99386666Y-74095000D01*
X99386666Y-74095000D02*
X99434285Y-74047380D01*
X99434285Y-74047380D02*
X99481904Y-73952142D01*
X99481904Y-73952142D02*
X99481904Y-73761666D01*
X99481904Y-73761666D02*
X99434285Y-73666428D01*
X99434285Y-73666428D02*
X99386666Y-73618809D01*
X99386666Y-73618809D02*
X99291428Y-73571190D01*
%TO.C,R26*%
X107037142Y-132192619D02*
X106703809Y-131716428D01*
X106465714Y-132192619D02*
X106465714Y-131192619D01*
X106465714Y-131192619D02*
X106846666Y-131192619D01*
X106846666Y-131192619D02*
X106941904Y-131240238D01*
X106941904Y-131240238D02*
X106989523Y-131287857D01*
X106989523Y-131287857D02*
X107037142Y-131383095D01*
X107037142Y-131383095D02*
X107037142Y-131525952D01*
X107037142Y-131525952D02*
X106989523Y-131621190D01*
X106989523Y-131621190D02*
X106941904Y-131668809D01*
X106941904Y-131668809D02*
X106846666Y-131716428D01*
X106846666Y-131716428D02*
X106465714Y-131716428D01*
X107418095Y-131287857D02*
X107465714Y-131240238D01*
X107465714Y-131240238D02*
X107560952Y-131192619D01*
X107560952Y-131192619D02*
X107799047Y-131192619D01*
X107799047Y-131192619D02*
X107894285Y-131240238D01*
X107894285Y-131240238D02*
X107941904Y-131287857D01*
X107941904Y-131287857D02*
X107989523Y-131383095D01*
X107989523Y-131383095D02*
X107989523Y-131478333D01*
X107989523Y-131478333D02*
X107941904Y-131621190D01*
X107941904Y-131621190D02*
X107370476Y-132192619D01*
X107370476Y-132192619D02*
X107989523Y-132192619D01*
X108846666Y-131192619D02*
X108656190Y-131192619D01*
X108656190Y-131192619D02*
X108560952Y-131240238D01*
X108560952Y-131240238D02*
X108513333Y-131287857D01*
X108513333Y-131287857D02*
X108418095Y-131430714D01*
X108418095Y-131430714D02*
X108370476Y-131621190D01*
X108370476Y-131621190D02*
X108370476Y-132002142D01*
X108370476Y-132002142D02*
X108418095Y-132097380D01*
X108418095Y-132097380D02*
X108465714Y-132145000D01*
X108465714Y-132145000D02*
X108560952Y-132192619D01*
X108560952Y-132192619D02*
X108751428Y-132192619D01*
X108751428Y-132192619D02*
X108846666Y-132145000D01*
X108846666Y-132145000D02*
X108894285Y-132097380D01*
X108894285Y-132097380D02*
X108941904Y-132002142D01*
X108941904Y-132002142D02*
X108941904Y-131764047D01*
X108941904Y-131764047D02*
X108894285Y-131668809D01*
X108894285Y-131668809D02*
X108846666Y-131621190D01*
X108846666Y-131621190D02*
X108751428Y-131573571D01*
X108751428Y-131573571D02*
X108560952Y-131573571D01*
X108560952Y-131573571D02*
X108465714Y-131621190D01*
X108465714Y-131621190D02*
X108418095Y-131668809D01*
X108418095Y-131668809D02*
X108370476Y-131764047D01*
%TO.C,J3*%
X42466666Y-85677619D02*
X42466666Y-86391904D01*
X42466666Y-86391904D02*
X42419047Y-86534761D01*
X42419047Y-86534761D02*
X42323809Y-86630000D01*
X42323809Y-86630000D02*
X42180952Y-86677619D01*
X42180952Y-86677619D02*
X42085714Y-86677619D01*
X42847619Y-85677619D02*
X43466666Y-85677619D01*
X43466666Y-85677619D02*
X43133333Y-86058571D01*
X43133333Y-86058571D02*
X43276190Y-86058571D01*
X43276190Y-86058571D02*
X43371428Y-86106190D01*
X43371428Y-86106190D02*
X43419047Y-86153809D01*
X43419047Y-86153809D02*
X43466666Y-86249047D01*
X43466666Y-86249047D02*
X43466666Y-86487142D01*
X43466666Y-86487142D02*
X43419047Y-86582380D01*
X43419047Y-86582380D02*
X43371428Y-86630000D01*
X43371428Y-86630000D02*
X43276190Y-86677619D01*
X43276190Y-86677619D02*
X42990476Y-86677619D01*
X42990476Y-86677619D02*
X42895238Y-86630000D01*
X42895238Y-86630000D02*
X42847619Y-86582380D01*
%TO.C,R24*%
X107137142Y-144092619D02*
X106803809Y-143616428D01*
X106565714Y-144092619D02*
X106565714Y-143092619D01*
X106565714Y-143092619D02*
X106946666Y-143092619D01*
X106946666Y-143092619D02*
X107041904Y-143140238D01*
X107041904Y-143140238D02*
X107089523Y-143187857D01*
X107089523Y-143187857D02*
X107137142Y-143283095D01*
X107137142Y-143283095D02*
X107137142Y-143425952D01*
X107137142Y-143425952D02*
X107089523Y-143521190D01*
X107089523Y-143521190D02*
X107041904Y-143568809D01*
X107041904Y-143568809D02*
X106946666Y-143616428D01*
X106946666Y-143616428D02*
X106565714Y-143616428D01*
X107518095Y-143187857D02*
X107565714Y-143140238D01*
X107565714Y-143140238D02*
X107660952Y-143092619D01*
X107660952Y-143092619D02*
X107899047Y-143092619D01*
X107899047Y-143092619D02*
X107994285Y-143140238D01*
X107994285Y-143140238D02*
X108041904Y-143187857D01*
X108041904Y-143187857D02*
X108089523Y-143283095D01*
X108089523Y-143283095D02*
X108089523Y-143378333D01*
X108089523Y-143378333D02*
X108041904Y-143521190D01*
X108041904Y-143521190D02*
X107470476Y-144092619D01*
X107470476Y-144092619D02*
X108089523Y-144092619D01*
X108946666Y-143425952D02*
X108946666Y-144092619D01*
X108708571Y-143045000D02*
X108470476Y-143759285D01*
X108470476Y-143759285D02*
X109089523Y-143759285D01*
%TO.C,R14*%
X58332619Y-67142857D02*
X57856428Y-67476190D01*
X58332619Y-67714285D02*
X57332619Y-67714285D01*
X57332619Y-67714285D02*
X57332619Y-67333333D01*
X57332619Y-67333333D02*
X57380238Y-67238095D01*
X57380238Y-67238095D02*
X57427857Y-67190476D01*
X57427857Y-67190476D02*
X57523095Y-67142857D01*
X57523095Y-67142857D02*
X57665952Y-67142857D01*
X57665952Y-67142857D02*
X57761190Y-67190476D01*
X57761190Y-67190476D02*
X57808809Y-67238095D01*
X57808809Y-67238095D02*
X57856428Y-67333333D01*
X57856428Y-67333333D02*
X57856428Y-67714285D01*
X58332619Y-66190476D02*
X58332619Y-66761904D01*
X58332619Y-66476190D02*
X57332619Y-66476190D01*
X57332619Y-66476190D02*
X57475476Y-66571428D01*
X57475476Y-66571428D02*
X57570714Y-66666666D01*
X57570714Y-66666666D02*
X57618333Y-66761904D01*
X57665952Y-65333333D02*
X58332619Y-65333333D01*
X57285000Y-65571428D02*
X57999285Y-65809523D01*
X57999285Y-65809523D02*
X57999285Y-65190476D01*
%TO.C,R32*%
X91457142Y-131992619D02*
X91123809Y-131516428D01*
X90885714Y-131992619D02*
X90885714Y-130992619D01*
X90885714Y-130992619D02*
X91266666Y-130992619D01*
X91266666Y-130992619D02*
X91361904Y-131040238D01*
X91361904Y-131040238D02*
X91409523Y-131087857D01*
X91409523Y-131087857D02*
X91457142Y-131183095D01*
X91457142Y-131183095D02*
X91457142Y-131325952D01*
X91457142Y-131325952D02*
X91409523Y-131421190D01*
X91409523Y-131421190D02*
X91361904Y-131468809D01*
X91361904Y-131468809D02*
X91266666Y-131516428D01*
X91266666Y-131516428D02*
X90885714Y-131516428D01*
X91790476Y-130992619D02*
X92409523Y-130992619D01*
X92409523Y-130992619D02*
X92076190Y-131373571D01*
X92076190Y-131373571D02*
X92219047Y-131373571D01*
X92219047Y-131373571D02*
X92314285Y-131421190D01*
X92314285Y-131421190D02*
X92361904Y-131468809D01*
X92361904Y-131468809D02*
X92409523Y-131564047D01*
X92409523Y-131564047D02*
X92409523Y-131802142D01*
X92409523Y-131802142D02*
X92361904Y-131897380D01*
X92361904Y-131897380D02*
X92314285Y-131945000D01*
X92314285Y-131945000D02*
X92219047Y-131992619D01*
X92219047Y-131992619D02*
X91933333Y-131992619D01*
X91933333Y-131992619D02*
X91838095Y-131945000D01*
X91838095Y-131945000D02*
X91790476Y-131897380D01*
X92790476Y-131087857D02*
X92838095Y-131040238D01*
X92838095Y-131040238D02*
X92933333Y-130992619D01*
X92933333Y-130992619D02*
X93171428Y-130992619D01*
X93171428Y-130992619D02*
X93266666Y-131040238D01*
X93266666Y-131040238D02*
X93314285Y-131087857D01*
X93314285Y-131087857D02*
X93361904Y-131183095D01*
X93361904Y-131183095D02*
X93361904Y-131278333D01*
X93361904Y-131278333D02*
X93314285Y-131421190D01*
X93314285Y-131421190D02*
X92742857Y-131992619D01*
X92742857Y-131992619D02*
X93361904Y-131992619D01*
%TO.C,R4*%
X65533333Y-103042619D02*
X65200000Y-102566428D01*
X64961905Y-103042619D02*
X64961905Y-102042619D01*
X64961905Y-102042619D02*
X65342857Y-102042619D01*
X65342857Y-102042619D02*
X65438095Y-102090238D01*
X65438095Y-102090238D02*
X65485714Y-102137857D01*
X65485714Y-102137857D02*
X65533333Y-102233095D01*
X65533333Y-102233095D02*
X65533333Y-102375952D01*
X65533333Y-102375952D02*
X65485714Y-102471190D01*
X65485714Y-102471190D02*
X65438095Y-102518809D01*
X65438095Y-102518809D02*
X65342857Y-102566428D01*
X65342857Y-102566428D02*
X64961905Y-102566428D01*
X66390476Y-102375952D02*
X66390476Y-103042619D01*
X66152381Y-101995000D02*
X65914286Y-102709285D01*
X65914286Y-102709285D02*
X66533333Y-102709285D01*
%TO.C,J1*%
X42566666Y-91827619D02*
X42566666Y-92541904D01*
X42566666Y-92541904D02*
X42519047Y-92684761D01*
X42519047Y-92684761D02*
X42423809Y-92780000D01*
X42423809Y-92780000D02*
X42280952Y-92827619D01*
X42280952Y-92827619D02*
X42185714Y-92827619D01*
X43566666Y-92827619D02*
X42995238Y-92827619D01*
X43280952Y-92827619D02*
X43280952Y-91827619D01*
X43280952Y-91827619D02*
X43185714Y-91970476D01*
X43185714Y-91970476D02*
X43090476Y-92065714D01*
X43090476Y-92065714D02*
X42995238Y-92113333D01*
%TO.C,C3*%
X111833333Y-67117380D02*
X111785714Y-67165000D01*
X111785714Y-67165000D02*
X111642857Y-67212619D01*
X111642857Y-67212619D02*
X111547619Y-67212619D01*
X111547619Y-67212619D02*
X111404762Y-67165000D01*
X111404762Y-67165000D02*
X111309524Y-67069761D01*
X111309524Y-67069761D02*
X111261905Y-66974523D01*
X111261905Y-66974523D02*
X111214286Y-66784047D01*
X111214286Y-66784047D02*
X111214286Y-66641190D01*
X111214286Y-66641190D02*
X111261905Y-66450714D01*
X111261905Y-66450714D02*
X111309524Y-66355476D01*
X111309524Y-66355476D02*
X111404762Y-66260238D01*
X111404762Y-66260238D02*
X111547619Y-66212619D01*
X111547619Y-66212619D02*
X111642857Y-66212619D01*
X111642857Y-66212619D02*
X111785714Y-66260238D01*
X111785714Y-66260238D02*
X111833333Y-66307857D01*
X112166667Y-66212619D02*
X112785714Y-66212619D01*
X112785714Y-66212619D02*
X112452381Y-66593571D01*
X112452381Y-66593571D02*
X112595238Y-66593571D01*
X112595238Y-66593571D02*
X112690476Y-66641190D01*
X112690476Y-66641190D02*
X112738095Y-66688809D01*
X112738095Y-66688809D02*
X112785714Y-66784047D01*
X112785714Y-66784047D02*
X112785714Y-67022142D01*
X112785714Y-67022142D02*
X112738095Y-67117380D01*
X112738095Y-67117380D02*
X112690476Y-67165000D01*
X112690476Y-67165000D02*
X112595238Y-67212619D01*
X112595238Y-67212619D02*
X112309524Y-67212619D01*
X112309524Y-67212619D02*
X112214286Y-67165000D01*
X112214286Y-67165000D02*
X112166667Y-67117380D01*
%TO.C,D3*%
X74771609Y-55128094D02*
X73771609Y-55128094D01*
X73771609Y-55128094D02*
X73771609Y-54889999D01*
X73771609Y-54889999D02*
X73819228Y-54747142D01*
X73819228Y-54747142D02*
X73914466Y-54651904D01*
X73914466Y-54651904D02*
X74009704Y-54604285D01*
X74009704Y-54604285D02*
X74200180Y-54556666D01*
X74200180Y-54556666D02*
X74343037Y-54556666D01*
X74343037Y-54556666D02*
X74533513Y-54604285D01*
X74533513Y-54604285D02*
X74628751Y-54651904D01*
X74628751Y-54651904D02*
X74723990Y-54747142D01*
X74723990Y-54747142D02*
X74771609Y-54889999D01*
X74771609Y-54889999D02*
X74771609Y-55128094D01*
X73771609Y-54223332D02*
X73771609Y-53604285D01*
X73771609Y-53604285D02*
X74152561Y-53937618D01*
X74152561Y-53937618D02*
X74152561Y-53794761D01*
X74152561Y-53794761D02*
X74200180Y-53699523D01*
X74200180Y-53699523D02*
X74247799Y-53651904D01*
X74247799Y-53651904D02*
X74343037Y-53604285D01*
X74343037Y-53604285D02*
X74581132Y-53604285D01*
X74581132Y-53604285D02*
X74676370Y-53651904D01*
X74676370Y-53651904D02*
X74723990Y-53699523D01*
X74723990Y-53699523D02*
X74771609Y-53794761D01*
X74771609Y-53794761D02*
X74771609Y-54080475D01*
X74771609Y-54080475D02*
X74723990Y-54175713D01*
X74723990Y-54175713D02*
X74676370Y-54223332D01*
%TO.C,J14*%
X208490476Y-45212619D02*
X208490476Y-45926904D01*
X208490476Y-45926904D02*
X208442857Y-46069761D01*
X208442857Y-46069761D02*
X208347619Y-46165000D01*
X208347619Y-46165000D02*
X208204762Y-46212619D01*
X208204762Y-46212619D02*
X208109524Y-46212619D01*
X209490476Y-46212619D02*
X208919048Y-46212619D01*
X209204762Y-46212619D02*
X209204762Y-45212619D01*
X209204762Y-45212619D02*
X209109524Y-45355476D01*
X209109524Y-45355476D02*
X209014286Y-45450714D01*
X209014286Y-45450714D02*
X208919048Y-45498333D01*
X210347619Y-45545952D02*
X210347619Y-46212619D01*
X210109524Y-45165000D02*
X209871429Y-45879285D01*
X209871429Y-45879285D02*
X210490476Y-45879285D01*
%TO.C,D2*%
X80241407Y-55128094D02*
X79241407Y-55128094D01*
X79241407Y-55128094D02*
X79241407Y-54889999D01*
X79241407Y-54889999D02*
X79289026Y-54747142D01*
X79289026Y-54747142D02*
X79384264Y-54651904D01*
X79384264Y-54651904D02*
X79479502Y-54604285D01*
X79479502Y-54604285D02*
X79669978Y-54556666D01*
X79669978Y-54556666D02*
X79812835Y-54556666D01*
X79812835Y-54556666D02*
X80003311Y-54604285D01*
X80003311Y-54604285D02*
X80098549Y-54651904D01*
X80098549Y-54651904D02*
X80193788Y-54747142D01*
X80193788Y-54747142D02*
X80241407Y-54889999D01*
X80241407Y-54889999D02*
X80241407Y-55128094D01*
X79336645Y-54175713D02*
X79289026Y-54128094D01*
X79289026Y-54128094D02*
X79241407Y-54032856D01*
X79241407Y-54032856D02*
X79241407Y-53794761D01*
X79241407Y-53794761D02*
X79289026Y-53699523D01*
X79289026Y-53699523D02*
X79336645Y-53651904D01*
X79336645Y-53651904D02*
X79431883Y-53604285D01*
X79431883Y-53604285D02*
X79527121Y-53604285D01*
X79527121Y-53604285D02*
X79669978Y-53651904D01*
X79669978Y-53651904D02*
X80241407Y-54223332D01*
X80241407Y-54223332D02*
X80241407Y-53604285D01*
%TO.C,U1*%
X58167619Y-123971904D02*
X58977142Y-123971904D01*
X58977142Y-123971904D02*
X59072380Y-123924285D01*
X59072380Y-123924285D02*
X59120000Y-123876666D01*
X59120000Y-123876666D02*
X59167619Y-123781428D01*
X59167619Y-123781428D02*
X59167619Y-123590952D01*
X59167619Y-123590952D02*
X59120000Y-123495714D01*
X59120000Y-123495714D02*
X59072380Y-123448095D01*
X59072380Y-123448095D02*
X58977142Y-123400476D01*
X58977142Y-123400476D02*
X58167619Y-123400476D01*
X59167619Y-122400476D02*
X59167619Y-122971904D01*
X59167619Y-122686190D02*
X58167619Y-122686190D01*
X58167619Y-122686190D02*
X58310476Y-122781428D01*
X58310476Y-122781428D02*
X58405714Y-122876666D01*
X58405714Y-122876666D02*
X58453333Y-122971904D01*
%TO.C,R31*%
X135357142Y-113092619D02*
X135023809Y-112616428D01*
X134785714Y-113092619D02*
X134785714Y-112092619D01*
X134785714Y-112092619D02*
X135166666Y-112092619D01*
X135166666Y-112092619D02*
X135261904Y-112140238D01*
X135261904Y-112140238D02*
X135309523Y-112187857D01*
X135309523Y-112187857D02*
X135357142Y-112283095D01*
X135357142Y-112283095D02*
X135357142Y-112425952D01*
X135357142Y-112425952D02*
X135309523Y-112521190D01*
X135309523Y-112521190D02*
X135261904Y-112568809D01*
X135261904Y-112568809D02*
X135166666Y-112616428D01*
X135166666Y-112616428D02*
X134785714Y-112616428D01*
X135690476Y-112092619D02*
X136309523Y-112092619D01*
X136309523Y-112092619D02*
X135976190Y-112473571D01*
X135976190Y-112473571D02*
X136119047Y-112473571D01*
X136119047Y-112473571D02*
X136214285Y-112521190D01*
X136214285Y-112521190D02*
X136261904Y-112568809D01*
X136261904Y-112568809D02*
X136309523Y-112664047D01*
X136309523Y-112664047D02*
X136309523Y-112902142D01*
X136309523Y-112902142D02*
X136261904Y-112997380D01*
X136261904Y-112997380D02*
X136214285Y-113045000D01*
X136214285Y-113045000D02*
X136119047Y-113092619D01*
X136119047Y-113092619D02*
X135833333Y-113092619D01*
X135833333Y-113092619D02*
X135738095Y-113045000D01*
X135738095Y-113045000D02*
X135690476Y-112997380D01*
X137261904Y-113092619D02*
X136690476Y-113092619D01*
X136976190Y-113092619D02*
X136976190Y-112092619D01*
X136976190Y-112092619D02*
X136880952Y-112235476D01*
X136880952Y-112235476D02*
X136785714Y-112330714D01*
X136785714Y-112330714D02*
X136690476Y-112378333D01*
%TO.C,U4*%
X105967619Y-123871904D02*
X106777142Y-123871904D01*
X106777142Y-123871904D02*
X106872380Y-123824285D01*
X106872380Y-123824285D02*
X106920000Y-123776666D01*
X106920000Y-123776666D02*
X106967619Y-123681428D01*
X106967619Y-123681428D02*
X106967619Y-123490952D01*
X106967619Y-123490952D02*
X106920000Y-123395714D01*
X106920000Y-123395714D02*
X106872380Y-123348095D01*
X106872380Y-123348095D02*
X106777142Y-123300476D01*
X106777142Y-123300476D02*
X105967619Y-123300476D01*
X106300952Y-122395714D02*
X106967619Y-122395714D01*
X105920000Y-122633809D02*
X106634285Y-122871904D01*
X106634285Y-122871904D02*
X106634285Y-122252857D01*
%TO.C,R20*%
X97657142Y-52992619D02*
X97323809Y-52516428D01*
X97085714Y-52992619D02*
X97085714Y-51992619D01*
X97085714Y-51992619D02*
X97466666Y-51992619D01*
X97466666Y-51992619D02*
X97561904Y-52040238D01*
X97561904Y-52040238D02*
X97609523Y-52087857D01*
X97609523Y-52087857D02*
X97657142Y-52183095D01*
X97657142Y-52183095D02*
X97657142Y-52325952D01*
X97657142Y-52325952D02*
X97609523Y-52421190D01*
X97609523Y-52421190D02*
X97561904Y-52468809D01*
X97561904Y-52468809D02*
X97466666Y-52516428D01*
X97466666Y-52516428D02*
X97085714Y-52516428D01*
X98038095Y-52087857D02*
X98085714Y-52040238D01*
X98085714Y-52040238D02*
X98180952Y-51992619D01*
X98180952Y-51992619D02*
X98419047Y-51992619D01*
X98419047Y-51992619D02*
X98514285Y-52040238D01*
X98514285Y-52040238D02*
X98561904Y-52087857D01*
X98561904Y-52087857D02*
X98609523Y-52183095D01*
X98609523Y-52183095D02*
X98609523Y-52278333D01*
X98609523Y-52278333D02*
X98561904Y-52421190D01*
X98561904Y-52421190D02*
X97990476Y-52992619D01*
X97990476Y-52992619D02*
X98609523Y-52992619D01*
X99228571Y-51992619D02*
X99323809Y-51992619D01*
X99323809Y-51992619D02*
X99419047Y-52040238D01*
X99419047Y-52040238D02*
X99466666Y-52087857D01*
X99466666Y-52087857D02*
X99514285Y-52183095D01*
X99514285Y-52183095D02*
X99561904Y-52373571D01*
X99561904Y-52373571D02*
X99561904Y-52611666D01*
X99561904Y-52611666D02*
X99514285Y-52802142D01*
X99514285Y-52802142D02*
X99466666Y-52897380D01*
X99466666Y-52897380D02*
X99419047Y-52945000D01*
X99419047Y-52945000D02*
X99323809Y-52992619D01*
X99323809Y-52992619D02*
X99228571Y-52992619D01*
X99228571Y-52992619D02*
X99133333Y-52945000D01*
X99133333Y-52945000D02*
X99085714Y-52897380D01*
X99085714Y-52897380D02*
X99038095Y-52802142D01*
X99038095Y-52802142D02*
X98990476Y-52611666D01*
X98990476Y-52611666D02*
X98990476Y-52373571D01*
X98990476Y-52373571D02*
X99038095Y-52183095D01*
X99038095Y-52183095D02*
X99085714Y-52087857D01*
X99085714Y-52087857D02*
X99133333Y-52040238D01*
X99133333Y-52040238D02*
X99228571Y-51992619D01*
D12*
%TO.C,J16*%
X178490000Y-35140000D02*
X179600000Y-35140000D01*
X178490000Y-35900000D02*
X178490000Y-35140000D01*
X178490000Y-36660000D02*
X178490000Y-37865000D01*
X178490000Y-36660000D02*
X179036529Y-36660000D01*
X178490000Y-37865000D02*
X179292470Y-37865000D01*
X179907530Y-37865000D02*
X180710000Y-37865000D01*
X180163471Y-36660000D02*
X180710000Y-36660000D01*
X180710000Y-36660000D02*
X180710000Y-37865000D01*
%TO.C,R22*%
X103740000Y-140400000D02*
X104510000Y-140400000D01*
X104510000Y-139030000D02*
X104510000Y-141770000D01*
X104510000Y-141770000D02*
X111050000Y-141770000D01*
X111050000Y-139030000D02*
X104510000Y-139030000D01*
X111050000Y-141770000D02*
X111050000Y-139030000D01*
X111820000Y-140400000D02*
X111050000Y-140400000D01*
%TO.C,R6*%
X91660000Y-96000000D02*
X92430000Y-96000000D01*
X92430000Y-94630000D02*
X92430000Y-97370000D01*
X92430000Y-97370000D02*
X98970000Y-97370000D01*
X98970000Y-94630000D02*
X92430000Y-94630000D01*
X98970000Y-97370000D02*
X98970000Y-94630000D01*
X99740000Y-96000000D02*
X98970000Y-96000000D01*
%TO.C,R16*%
X94180000Y-67950000D02*
X94950000Y-67950000D01*
X94950000Y-66580000D02*
X94950000Y-69320000D01*
X94950000Y-69320000D02*
X101490000Y-69320000D01*
X101490000Y-66580000D02*
X94950000Y-66580000D01*
X101490000Y-69320000D02*
X101490000Y-66580000D01*
X102260000Y-67950000D02*
X101490000Y-67950000D01*
%TO.C,R30*%
X87940000Y-140100000D02*
X88710000Y-140100000D01*
X88710000Y-138730000D02*
X88710000Y-141470000D01*
X88710000Y-141470000D02*
X95250000Y-141470000D01*
X95250000Y-138730000D02*
X88710000Y-138730000D01*
X95250000Y-141470000D02*
X95250000Y-138730000D01*
X96020000Y-140100000D02*
X95250000Y-140100000D01*
%TO.C,SW3*%
X64300000Y-33400000D02*
X62800000Y-33400000D01*
X60300000Y-34650000D02*
X60300000Y-39150000D01*
X66800000Y-39150000D02*
X66800000Y-34650000D01*
X62800000Y-40400000D02*
X64300000Y-40400000D01*
%TO.C,J4*%
X213500000Y-66370000D02*
X213500000Y-67500000D01*
X212740000Y-66370000D02*
X213500000Y-66370000D01*
X211980000Y-66370000D02*
X189185000Y-66370000D01*
X211980000Y-66370000D02*
X211980000Y-66936529D01*
X189185000Y-66370000D02*
X189185000Y-67192470D01*
X189185000Y-67807530D02*
X189185000Y-68462470D01*
X211980000Y-68063471D02*
X211980000Y-68206529D01*
X213435000Y-68260000D02*
X213435000Y-68462470D01*
X213303471Y-68260000D02*
X213435000Y-68260000D01*
X212033471Y-68260000D02*
X212176529Y-68260000D01*
X213435000Y-69077530D02*
X213435000Y-69900000D01*
X189185000Y-69077530D02*
X189185000Y-69900000D01*
X213435000Y-69900000D02*
X189185000Y-69900000D01*
%TO.C,D6*%
X56175596Y-52830000D02*
X56019596Y-52830000D01*
X53859596Y-52830000D02*
X53703596Y-52830000D01*
X56018204Y-56062334D02*
G75*
G03*
X56175111Y-52830001I-1078608J1672334D01*
G01*
X56019432Y-55431129D02*
G75*
G03*
X56019595Y-53349040I-1079836J1041129D01*
G01*
X53859597Y-53349040D02*
G75*
G03*
X53859760Y-55431129I1079999J-1040960D01*
G01*
X53704081Y-52830001D02*
G75*
G03*
X53860988Y-56062334I1235515J-1559999D01*
G01*
%TO.C,R1*%
X69740000Y-92900000D02*
X68970000Y-92900000D01*
X68970000Y-94270000D02*
X68970000Y-91530000D01*
X68970000Y-91530000D02*
X62430000Y-91530000D01*
X62430000Y-94270000D02*
X68970000Y-94270000D01*
X62430000Y-91530000D02*
X62430000Y-94270000D01*
X61660000Y-92900000D02*
X62430000Y-92900000D01*
%TO.C,J6*%
X139110000Y-147810000D02*
X138000000Y-147810000D01*
X139110000Y-147050000D02*
X139110000Y-147810000D01*
X139110000Y-146290000D02*
X139110000Y-145085000D01*
X139110000Y-146290000D02*
X138563471Y-146290000D01*
X139110000Y-145085000D02*
X138307530Y-145085000D01*
X137692470Y-145085000D02*
X136890000Y-145085000D01*
X137436529Y-146290000D02*
X136890000Y-146290000D01*
X136890000Y-146290000D02*
X136890000Y-145085000D01*
%TO.C,C4*%
X147057600Y-81005000D02*
X147457600Y-81005000D01*
X147257600Y-80805000D02*
X147257600Y-81205000D01*
X149327401Y-80120000D02*
X149327401Y-84280000D01*
X149367401Y-80120000D02*
X149367401Y-84280000D01*
X149407401Y-80121000D02*
X149407401Y-84279000D01*
X149447401Y-80123000D02*
X149447401Y-84277000D01*
X149487401Y-80126000D02*
X149487401Y-84274000D01*
X149527401Y-80129000D02*
X149527401Y-81360000D01*
X149527401Y-83040000D02*
X149527401Y-84271000D01*
X149567401Y-80133000D02*
X149567401Y-81360000D01*
X149567401Y-83040000D02*
X149567401Y-84267000D01*
X149607401Y-80138000D02*
X149607401Y-81360000D01*
X149607401Y-83040000D02*
X149607401Y-84262000D01*
X149647401Y-80144000D02*
X149647401Y-81360000D01*
X149647401Y-83040000D02*
X149647401Y-84256000D01*
X149687401Y-80150000D02*
X149687401Y-81360000D01*
X149687401Y-83040000D02*
X149687401Y-84250000D01*
X149727401Y-80158000D02*
X149727401Y-81360000D01*
X149727401Y-83040000D02*
X149727401Y-84242000D01*
X149767401Y-80166000D02*
X149767401Y-81360000D01*
X149767401Y-83040000D02*
X149767401Y-84234000D01*
X149807401Y-80175000D02*
X149807401Y-81360000D01*
X149807401Y-83040000D02*
X149807401Y-84225000D01*
X149847401Y-80184000D02*
X149847401Y-81360000D01*
X149847401Y-83040000D02*
X149847401Y-84216000D01*
X149887401Y-80195000D02*
X149887401Y-81360000D01*
X149887401Y-83040000D02*
X149887401Y-84205000D01*
X149927401Y-80206000D02*
X149927401Y-81360000D01*
X149927401Y-83040000D02*
X149927401Y-84194000D01*
X149967401Y-80218000D02*
X149967401Y-81360000D01*
X149967401Y-83040000D02*
X149967401Y-84182000D01*
X150007401Y-80232000D02*
X150007401Y-81360000D01*
X150007401Y-83040000D02*
X150007401Y-84168000D01*
X150048401Y-80246000D02*
X150048401Y-81360000D01*
X150048401Y-83040000D02*
X150048401Y-84154000D01*
X150088401Y-80260000D02*
X150088401Y-81360000D01*
X150088401Y-83040000D02*
X150088401Y-84140000D01*
X150128401Y-80276000D02*
X150128401Y-81360000D01*
X150128401Y-83040000D02*
X150128401Y-84124000D01*
X150168401Y-80293000D02*
X150168401Y-81360000D01*
X150168401Y-83040000D02*
X150168401Y-84107000D01*
X150208401Y-80311000D02*
X150208401Y-81360000D01*
X150208401Y-83040000D02*
X150208401Y-84089000D01*
X150248401Y-80330000D02*
X150248401Y-81360000D01*
X150248401Y-83040000D02*
X150248401Y-84070000D01*
X150288401Y-80349000D02*
X150288401Y-81360000D01*
X150288401Y-83040000D02*
X150288401Y-84051000D01*
X150328401Y-80370000D02*
X150328401Y-81360000D01*
X150328401Y-83040000D02*
X150328401Y-84030000D01*
X150368401Y-80392000D02*
X150368401Y-81360000D01*
X150368401Y-83040000D02*
X150368401Y-84008000D01*
X150408401Y-80415000D02*
X150408401Y-81360000D01*
X150408401Y-83040000D02*
X150408401Y-83985000D01*
X150448401Y-80440000D02*
X150448401Y-81360000D01*
X150448401Y-83040000D02*
X150448401Y-83960000D01*
X150488401Y-80465000D02*
X150488401Y-81360000D01*
X150488401Y-83040000D02*
X150488401Y-83935000D01*
X150528401Y-80492000D02*
X150528401Y-81360000D01*
X150528401Y-83040000D02*
X150528401Y-83908000D01*
X150568401Y-80520000D02*
X150568401Y-81360000D01*
X150568401Y-83040000D02*
X150568401Y-83880000D01*
X150608401Y-80550000D02*
X150608401Y-81360000D01*
X150608401Y-83040000D02*
X150608401Y-83850000D01*
X150648401Y-80581000D02*
X150648401Y-81360000D01*
X150648401Y-83040000D02*
X150648401Y-83819000D01*
X150688401Y-80613000D02*
X150688401Y-81360000D01*
X150688401Y-83040000D02*
X150688401Y-83787000D01*
X150728401Y-80648000D02*
X150728401Y-81360000D01*
X150728401Y-83040000D02*
X150728401Y-83752000D01*
X150768401Y-80684000D02*
X150768401Y-81360000D01*
X150768401Y-83040000D02*
X150768401Y-83716000D01*
X150808401Y-80722000D02*
X150808401Y-81360000D01*
X150808401Y-83040000D02*
X150808401Y-83678000D01*
X150848401Y-80762000D02*
X150848401Y-81360000D01*
X150848401Y-83040000D02*
X150848401Y-83638000D01*
X150888401Y-80804000D02*
X150888401Y-81360000D01*
X150888401Y-83040000D02*
X150888401Y-83596000D01*
X150928401Y-80849000D02*
X150928401Y-81360000D01*
X150928401Y-83040000D02*
X150928401Y-83551000D01*
X150968401Y-80896000D02*
X150968401Y-81360000D01*
X150968401Y-83040000D02*
X150968401Y-83504000D01*
X151008401Y-80946000D02*
X151008401Y-81360000D01*
X151008401Y-83040000D02*
X151008401Y-83454000D01*
X151048401Y-81000000D02*
X151048401Y-81360000D01*
X151048401Y-83040000D02*
X151048401Y-83400000D01*
X151088401Y-81058000D02*
X151088401Y-81360000D01*
X151088401Y-83040000D02*
X151088401Y-83342000D01*
X151128401Y-81120000D02*
X151128401Y-81360000D01*
X151128401Y-83040000D02*
X151128401Y-83280000D01*
X151168401Y-81187000D02*
X151168401Y-83213000D01*
X151208401Y-81260000D02*
X151208401Y-83140000D01*
X151248401Y-81341000D02*
X151248401Y-83059000D01*
X151288401Y-81432000D02*
X151288401Y-82968000D01*
X151328401Y-81536000D02*
X151328401Y-82864000D01*
X151368401Y-81663000D02*
X151368401Y-82737000D01*
X151408401Y-81830000D02*
X151408401Y-82570000D01*
X151447401Y-82200000D02*
G75*
G03*
X151447401Y-82200000I-2120000J0D01*
G01*
%TO.C,R2*%
X69860000Y-100800000D02*
X69090000Y-100800000D01*
X69090000Y-102170000D02*
X69090000Y-99430000D01*
X69090000Y-99430000D02*
X62550000Y-99430000D01*
X62550000Y-102170000D02*
X69090000Y-102170000D01*
X62550000Y-99430000D02*
X62550000Y-102170000D01*
X61780000Y-100800000D02*
X62550000Y-100800000D01*
%TO.C,R23*%
X65960000Y-115000000D02*
X66730000Y-115000000D01*
X66730000Y-113630000D02*
X66730000Y-116370000D01*
X66730000Y-116370000D02*
X73270000Y-116370000D01*
X73270000Y-113630000D02*
X66730000Y-113630000D01*
X73270000Y-116370000D02*
X73270000Y-113630000D01*
X74040000Y-115000000D02*
X73270000Y-115000000D01*
%TO.C,SW1*%
X92130000Y-33460000D02*
X90820000Y-33460000D01*
X92130000Y-33460000D02*
X92130000Y-34843000D01*
X91890000Y-33700000D02*
X90820000Y-33700000D01*
X91890000Y-33700000D02*
X91890000Y-40521000D01*
X88740000Y-33700000D02*
X88229000Y-33700000D01*
X86250000Y-33700000D02*
X85689000Y-33700000D01*
X83710000Y-33700000D02*
X83149000Y-33700000D01*
X81170000Y-33700000D02*
X80050000Y-33700000D01*
X80050000Y-33700000D02*
X80050000Y-40521000D01*
X90415000Y-35300000D02*
X89145000Y-35300000D01*
X90295000Y-35300000D02*
X90295000Y-36506667D01*
X90175000Y-35300000D02*
X90175000Y-36506667D01*
X90055000Y-35300000D02*
X90055000Y-36506667D01*
X89935000Y-35300000D02*
X89935000Y-36506667D01*
X89815000Y-35300000D02*
X89815000Y-36506667D01*
X89695000Y-35300000D02*
X89695000Y-36506667D01*
X89575000Y-35300000D02*
X89575000Y-36506667D01*
X89455000Y-35300000D02*
X89455000Y-36506667D01*
X89335000Y-35300000D02*
X89335000Y-36506667D01*
X89215000Y-35300000D02*
X89215000Y-36506667D01*
X89145000Y-35300000D02*
X89145000Y-38920000D01*
X87875000Y-35300000D02*
X86605000Y-35300000D01*
X87755000Y-35300000D02*
X87755000Y-36506667D01*
X87635000Y-35300000D02*
X87635000Y-36506667D01*
X87515000Y-35300000D02*
X87515000Y-36506667D01*
X87395000Y-35300000D02*
X87395000Y-36506667D01*
X87275000Y-35300000D02*
X87275000Y-36506667D01*
X87155000Y-35300000D02*
X87155000Y-36506667D01*
X87035000Y-35300000D02*
X87035000Y-36506667D01*
X86915000Y-35300000D02*
X86915000Y-36506667D01*
X86795000Y-35300000D02*
X86795000Y-36506667D01*
X86675000Y-35300000D02*
X86675000Y-36506667D01*
X86605000Y-35300000D02*
X86605000Y-38920000D01*
X85335000Y-35300000D02*
X84065000Y-35300000D01*
X85215000Y-35300000D02*
X85215000Y-36506667D01*
X85095000Y-35300000D02*
X85095000Y-36506667D01*
X84975000Y-35300000D02*
X84975000Y-36506667D01*
X84855000Y-35300000D02*
X84855000Y-36506667D01*
X84735000Y-35300000D02*
X84735000Y-36506667D01*
X84615000Y-35300000D02*
X84615000Y-36506667D01*
X84495000Y-35300000D02*
X84495000Y-36506667D01*
X84375000Y-35300000D02*
X84375000Y-36506667D01*
X84255000Y-35300000D02*
X84255000Y-36506667D01*
X84135000Y-35300000D02*
X84135000Y-36506667D01*
X84065000Y-35300000D02*
X84065000Y-38920000D01*
X82795000Y-35300000D02*
X81525000Y-35300000D01*
X82675000Y-35300000D02*
X82675000Y-36506667D01*
X82555000Y-35300000D02*
X82555000Y-36506667D01*
X82435000Y-35300000D02*
X82435000Y-36506667D01*
X82315000Y-35300000D02*
X82315000Y-36506667D01*
X82195000Y-35300000D02*
X82195000Y-36506667D01*
X82075000Y-35300000D02*
X82075000Y-36506667D01*
X81955000Y-35300000D02*
X81955000Y-36506667D01*
X81835000Y-35300000D02*
X81835000Y-36506667D01*
X81715000Y-35300000D02*
X81715000Y-36506667D01*
X81595000Y-35300000D02*
X81595000Y-36506667D01*
X81525000Y-35300000D02*
X81525000Y-38920000D01*
X90415000Y-36506667D02*
X89145000Y-36506667D01*
X87875000Y-36506667D02*
X86605000Y-36506667D01*
X85335000Y-36506667D02*
X84065000Y-36506667D01*
X82795000Y-36506667D02*
X81525000Y-36506667D01*
X90415000Y-38920000D02*
X90415000Y-35300000D01*
X89145000Y-38920000D02*
X90415000Y-38920000D01*
X87875000Y-38920000D02*
X87875000Y-35300000D01*
X86605000Y-38920000D02*
X87875000Y-38920000D01*
X85335000Y-38920000D02*
X85335000Y-35300000D01*
X84065000Y-38920000D02*
X85335000Y-38920000D01*
X82795000Y-38920000D02*
X82795000Y-35300000D01*
X81525000Y-38920000D02*
X82795000Y-38920000D01*
X91890000Y-40521000D02*
X90770000Y-40521000D01*
X88790000Y-40521000D02*
X88229000Y-40521000D01*
X86250000Y-40521000D02*
X85689000Y-40521000D01*
X83710000Y-40521000D02*
X83149000Y-40521000D01*
X81170000Y-40521000D02*
X80050000Y-40521000D01*
%TO.C,R21*%
X49960000Y-115000000D02*
X50730000Y-115000000D01*
X50730000Y-113630000D02*
X50730000Y-116370000D01*
X50730000Y-116370000D02*
X57270000Y-116370000D01*
X57270000Y-113630000D02*
X50730000Y-113630000D01*
X57270000Y-116370000D02*
X57270000Y-113630000D01*
X58040000Y-115000000D02*
X57270000Y-115000000D01*
%TO.C,U2*%
X73540000Y-120560000D02*
X68340000Y-120560000D01*
X68340000Y-120560000D02*
X68340000Y-125860000D01*
X73540000Y-122210000D02*
X73540000Y-120560000D01*
X73540000Y-125860000D02*
X73540000Y-124210000D01*
X68340000Y-125860000D02*
X73540000Y-125860000D01*
X73540000Y-122210000D02*
G75*
G03*
X73540000Y-124210000I0J-1000000D01*
G01*
D13*
%TO.C,Y1*%
X109400000Y-102900000D02*
X109400000Y-102900000D01*
X109600000Y-102900000D02*
X109600000Y-102900000D01*
D14*
X110200000Y-101600000D02*
X110200000Y-100000000D01*
X112300000Y-98300000D02*
X115000000Y-98300000D01*
X112300000Y-103300000D02*
X115100000Y-103300000D01*
X117200000Y-101500000D02*
X117200000Y-99900000D01*
D13*
X109600000Y-102900000D02*
G75*
G03*
X109400000Y-102900000I-100000J0D01*
G01*
X109400000Y-102900000D02*
G75*
G03*
X109600000Y-102900000I100000J0D01*
G01*
%TO.C,IC1*%
X121050000Y-66350000D02*
X140350000Y-66350000D01*
X121050000Y-85650000D02*
X121050000Y-66350000D01*
X140350000Y-66350000D02*
X140350000Y-85650000D01*
X140350000Y-85650000D02*
X121050000Y-85650000D01*
D11*
X119600000Y-66500000D02*
G75*
G03*
X119600000Y-66500000I-125000J0D01*
G01*
D12*
%TO.C,U6*%
X138605000Y-120360000D02*
X133405000Y-120360000D01*
X133405000Y-120360000D02*
X133405000Y-125660000D01*
X138605000Y-122010000D02*
X138605000Y-120360000D01*
X138605000Y-125660000D02*
X138605000Y-124010000D01*
X133405000Y-125660000D02*
X138605000Y-125660000D01*
X138605000Y-122010000D02*
G75*
G03*
X138605000Y-124010000I0J-1000000D01*
G01*
%TO.C,R10*%
X71700000Y-62460000D02*
X71700000Y-63230000D01*
X73070000Y-63230000D02*
X70330000Y-63230000D01*
X70330000Y-63230000D02*
X70330000Y-69770000D01*
X73070000Y-69770000D02*
X73070000Y-63230000D01*
X70330000Y-69770000D02*
X73070000Y-69770000D01*
X71700000Y-70540000D02*
X71700000Y-69770000D01*
%TO.C,J9*%
X150010000Y-35310000D02*
X150010000Y-34200000D01*
X150770000Y-35310000D02*
X150010000Y-35310000D01*
X151530000Y-35310000D02*
X170515000Y-35310000D01*
X151530000Y-35310000D02*
X151530000Y-34763471D01*
X170515000Y-35310000D02*
X170515000Y-34507530D01*
X170515000Y-33892470D02*
X170515000Y-33090000D01*
X151530000Y-33636529D02*
X151530000Y-33090000D01*
X151530000Y-33090000D02*
X170515000Y-33090000D01*
%TO.C,U7*%
X177340000Y-45730000D02*
X177340000Y-50371000D01*
X177340000Y-45730000D02*
X187580000Y-45730000D01*
X177340000Y-47240000D02*
X187580000Y-47240000D01*
X177340000Y-50371000D02*
X187580000Y-50371000D01*
X180610000Y-45730000D02*
X180610000Y-47240000D01*
X184311000Y-45730000D02*
X184311000Y-47240000D01*
X187580000Y-45730000D02*
X187580000Y-50371000D01*
%TO.C,R27*%
X98960000Y-115000000D02*
X99730000Y-115000000D01*
X99730000Y-113630000D02*
X99730000Y-116370000D01*
X99730000Y-116370000D02*
X106270000Y-116370000D01*
X106270000Y-113630000D02*
X99730000Y-113630000D01*
X106270000Y-116370000D02*
X106270000Y-113630000D01*
X107040000Y-115000000D02*
X106270000Y-115000000D01*
%TO.C,R13*%
X59550000Y-62460000D02*
X59550000Y-63230000D01*
X60920000Y-63230000D02*
X58180000Y-63230000D01*
X58180000Y-63230000D02*
X58180000Y-69770000D01*
X60920000Y-69770000D02*
X60920000Y-63230000D01*
X58180000Y-69770000D02*
X60920000Y-69770000D01*
X59550000Y-70540000D02*
X59550000Y-69770000D01*
%TO.C,D7*%
X50705798Y-52830000D02*
X50549798Y-52830000D01*
X48389798Y-52830000D02*
X48233798Y-52830000D01*
X50548406Y-56062334D02*
G75*
G03*
X50705313Y-52830001I-1078608J1672334D01*
G01*
X50549634Y-55431129D02*
G75*
G03*
X50549797Y-53349040I-1079836J1041129D01*
G01*
X48389799Y-53349040D02*
G75*
G03*
X48389962Y-55431129I1079999J-1040960D01*
G01*
X48234283Y-52830001D02*
G75*
G03*
X48391190Y-56062334I1235515J-1559999D01*
G01*
%TO.C,R8*%
X79800000Y-62460000D02*
X79800000Y-63230000D01*
X81170000Y-63230000D02*
X78430000Y-63230000D01*
X78430000Y-63230000D02*
X78430000Y-69770000D01*
X81170000Y-69770000D02*
X81170000Y-63230000D01*
X78430000Y-69770000D02*
X81170000Y-69770000D01*
X79800000Y-70540000D02*
X79800000Y-69770000D01*
%TO.C,D8*%
X45236000Y-52830000D02*
X45080000Y-52830000D01*
X42920000Y-52830000D02*
X42764000Y-52830000D01*
X45078608Y-56062334D02*
G75*
G03*
X45235515Y-52830001I-1078608J1672334D01*
G01*
X45079836Y-55431129D02*
G75*
G03*
X45079999Y-53349040I-1079836J1041129D01*
G01*
X42920001Y-53349040D02*
G75*
G03*
X42920164Y-55431129I1079999J-1040960D01*
G01*
X42764485Y-52830001D02*
G75*
G03*
X42921392Y-56062334I1235515J-1559999D01*
G01*
%TO.C,U5*%
X123285000Y-120460000D02*
X118085000Y-120460000D01*
X118085000Y-120460000D02*
X118085000Y-125760000D01*
X123285000Y-122110000D02*
X123285000Y-120460000D01*
X123285000Y-125760000D02*
X123285000Y-124110000D01*
X118085000Y-125760000D02*
X123285000Y-125760000D01*
X123285000Y-122110000D02*
G75*
G03*
X123285000Y-124110000I0J-1000000D01*
G01*
%TO.C,J10*%
X98970000Y-35510000D02*
X98970000Y-34400000D01*
X99730000Y-35510000D02*
X98970000Y-35510000D01*
X100490000Y-35510000D02*
X119475000Y-35510000D01*
X100490000Y-35510000D02*
X100490000Y-34963471D01*
X119475000Y-35510000D02*
X119475000Y-34707530D01*
X119475000Y-34092470D02*
X119475000Y-33290000D01*
X100490000Y-33836529D02*
X100490000Y-33290000D01*
X100490000Y-33290000D02*
X119475000Y-33290000D01*
%TO.C,D4*%
X67115192Y-52830000D02*
X66959192Y-52830000D01*
X64799192Y-52830000D02*
X64643192Y-52830000D01*
X66957800Y-56062334D02*
G75*
G03*
X67114707Y-52830001I-1078608J1672334D01*
G01*
X66959028Y-55431129D02*
G75*
G03*
X66959191Y-53349040I-1079836J1041129D01*
G01*
X64799193Y-53349040D02*
G75*
G03*
X64799356Y-55431129I1079999J-1040960D01*
G01*
X64643677Y-52830001D02*
G75*
G03*
X64800584Y-56062334I1235515J-1559999D01*
G01*
%TO.C,R25*%
X81960000Y-115000000D02*
X82730000Y-115000000D01*
X82730000Y-113630000D02*
X82730000Y-116370000D01*
X82730000Y-116370000D02*
X89270000Y-116370000D01*
X89270000Y-113630000D02*
X82730000Y-113630000D01*
X89270000Y-116370000D02*
X89270000Y-113630000D01*
X90040000Y-115000000D02*
X89270000Y-115000000D01*
%TO.C,R12*%
X63600000Y-62460000D02*
X63600000Y-63230000D01*
X64970000Y-63230000D02*
X62230000Y-63230000D01*
X62230000Y-63230000D02*
X62230000Y-69770000D01*
X64970000Y-69770000D02*
X64970000Y-63230000D01*
X62230000Y-69770000D02*
X64970000Y-69770000D01*
X63600000Y-70540000D02*
X63600000Y-69770000D01*
%TO.C,R15*%
X94180000Y-63900000D02*
X94950000Y-63900000D01*
X94950000Y-62530000D02*
X94950000Y-65270000D01*
X94950000Y-65270000D02*
X101490000Y-65270000D01*
X101490000Y-62530000D02*
X94950000Y-62530000D01*
X101490000Y-65270000D02*
X101490000Y-62530000D01*
X102260000Y-63900000D02*
X101490000Y-63900000D01*
%TO.C,R28*%
X88040000Y-145700000D02*
X88810000Y-145700000D01*
X88810000Y-144330000D02*
X88810000Y-147070000D01*
X88810000Y-147070000D02*
X95350000Y-147070000D01*
X95350000Y-144330000D02*
X88810000Y-144330000D01*
X95350000Y-147070000D02*
X95350000Y-144330000D01*
X96120000Y-145700000D02*
X95350000Y-145700000D01*
%TO.C,R19*%
X94180000Y-59100000D02*
X94950000Y-59100000D01*
X94950000Y-57730000D02*
X94950000Y-60470000D01*
X94950000Y-60470000D02*
X101490000Y-60470000D01*
X101490000Y-57730000D02*
X94950000Y-57730000D01*
X101490000Y-60470000D02*
X101490000Y-57730000D01*
X102260000Y-59100000D02*
X101490000Y-59100000D01*
%TO.C,RV1*%
X43079000Y-43470000D02*
X44400000Y-43470000D01*
X43079000Y-43470000D02*
X43079000Y-39533000D01*
X46850000Y-43470000D02*
X47230000Y-43470000D01*
X48971000Y-43470000D02*
X49730000Y-43470000D01*
X51470000Y-43470000D02*
X53120000Y-43470000D01*
X53120000Y-43470000D02*
X53120000Y-39533000D01*
X43079000Y-35166000D02*
X43079000Y-31230000D01*
X53120000Y-35166000D02*
X53120000Y-31230000D01*
X43079000Y-31230000D02*
X53120000Y-31230000D01*
%TO.C,U3*%
X89805000Y-120460000D02*
X84605000Y-120460000D01*
X84605000Y-120460000D02*
X84605000Y-125760000D01*
X89805000Y-122110000D02*
X89805000Y-120460000D01*
X89805000Y-125760000D02*
X89805000Y-124110000D01*
X84605000Y-125760000D02*
X89805000Y-125760000D01*
X89805000Y-122110000D02*
G75*
G03*
X89805000Y-124110000I0J-1000000D01*
G01*
%TO.C,R29*%
X115960000Y-115000000D02*
X116730000Y-115000000D01*
X116730000Y-113630000D02*
X116730000Y-116370000D01*
X116730000Y-116370000D02*
X123270000Y-116370000D01*
X123270000Y-113630000D02*
X116730000Y-113630000D01*
X123270000Y-116370000D02*
X123270000Y-113630000D01*
X124040000Y-115000000D02*
X123270000Y-115000000D01*
%TO.C,D5*%
X61645394Y-52830000D02*
X61489394Y-52830000D01*
X59329394Y-52830000D02*
X59173394Y-52830000D01*
X61488002Y-56062334D02*
G75*
G03*
X61644909Y-52830001I-1078608J1672334D01*
G01*
X61489230Y-55431129D02*
G75*
G03*
X61489393Y-53349040I-1079836J1041129D01*
G01*
X59329395Y-53349040D02*
G75*
G03*
X59329558Y-55431129I1079999J-1040960D01*
G01*
X59173879Y-52830001D02*
G75*
G03*
X59330786Y-56062334I1235515J-1559999D01*
G01*
%TO.C,C2*%
X73830199Y-101905000D02*
X74230199Y-101905000D01*
X74030199Y-101705000D02*
X74030199Y-102105000D01*
X76100000Y-101020000D02*
X76100000Y-105180000D01*
X76140000Y-101020000D02*
X76140000Y-105180000D01*
X76180000Y-101021000D02*
X76180000Y-105179000D01*
X76220000Y-101023000D02*
X76220000Y-105177000D01*
X76260000Y-101026000D02*
X76260000Y-105174000D01*
X76300000Y-101029000D02*
X76300000Y-102260000D01*
X76300000Y-103940000D02*
X76300000Y-105171000D01*
X76340000Y-101033000D02*
X76340000Y-102260000D01*
X76340000Y-103940000D02*
X76340000Y-105167000D01*
X76380000Y-101038000D02*
X76380000Y-102260000D01*
X76380000Y-103940000D02*
X76380000Y-105162000D01*
X76420000Y-101044000D02*
X76420000Y-102260000D01*
X76420000Y-103940000D02*
X76420000Y-105156000D01*
X76460000Y-101050000D02*
X76460000Y-102260000D01*
X76460000Y-103940000D02*
X76460000Y-105150000D01*
X76500000Y-101058000D02*
X76500000Y-102260000D01*
X76500000Y-103940000D02*
X76500000Y-105142000D01*
X76540000Y-101066000D02*
X76540000Y-102260000D01*
X76540000Y-103940000D02*
X76540000Y-105134000D01*
X76580000Y-101075000D02*
X76580000Y-102260000D01*
X76580000Y-103940000D02*
X76580000Y-105125000D01*
X76620000Y-101084000D02*
X76620000Y-102260000D01*
X76620000Y-103940000D02*
X76620000Y-105116000D01*
X76660000Y-101095000D02*
X76660000Y-102260000D01*
X76660000Y-103940000D02*
X76660000Y-105105000D01*
X76700000Y-101106000D02*
X76700000Y-102260000D01*
X76700000Y-103940000D02*
X76700000Y-105094000D01*
X76740000Y-101118000D02*
X76740000Y-102260000D01*
X76740000Y-103940000D02*
X76740000Y-105082000D01*
X76780000Y-101132000D02*
X76780000Y-102260000D01*
X76780000Y-103940000D02*
X76780000Y-105068000D01*
X76821000Y-101146000D02*
X76821000Y-102260000D01*
X76821000Y-103940000D02*
X76821000Y-105054000D01*
X76861000Y-101160000D02*
X76861000Y-102260000D01*
X76861000Y-103940000D02*
X76861000Y-105040000D01*
X76901000Y-101176000D02*
X76901000Y-102260000D01*
X76901000Y-103940000D02*
X76901000Y-105024000D01*
X76941000Y-101193000D02*
X76941000Y-102260000D01*
X76941000Y-103940000D02*
X76941000Y-105007000D01*
X76981000Y-101211000D02*
X76981000Y-102260000D01*
X76981000Y-103940000D02*
X76981000Y-104989000D01*
X77021000Y-101230000D02*
X77021000Y-102260000D01*
X77021000Y-103940000D02*
X77021000Y-104970000D01*
X77061000Y-101249000D02*
X77061000Y-102260000D01*
X77061000Y-103940000D02*
X77061000Y-104951000D01*
X77101000Y-101270000D02*
X77101000Y-102260000D01*
X77101000Y-103940000D02*
X77101000Y-104930000D01*
X77141000Y-101292000D02*
X77141000Y-102260000D01*
X77141000Y-103940000D02*
X77141000Y-104908000D01*
X77181000Y-101315000D02*
X77181000Y-102260000D01*
X77181000Y-103940000D02*
X77181000Y-104885000D01*
X77221000Y-101340000D02*
X77221000Y-102260000D01*
X77221000Y-103940000D02*
X77221000Y-104860000D01*
X77261000Y-101365000D02*
X77261000Y-102260000D01*
X77261000Y-103940000D02*
X77261000Y-104835000D01*
X77301000Y-101392000D02*
X77301000Y-102260000D01*
X77301000Y-103940000D02*
X77301000Y-104808000D01*
X77341000Y-101420000D02*
X77341000Y-102260000D01*
X77341000Y-103940000D02*
X77341000Y-104780000D01*
X77381000Y-101450000D02*
X77381000Y-102260000D01*
X77381000Y-103940000D02*
X77381000Y-104750000D01*
X77421000Y-101481000D02*
X77421000Y-102260000D01*
X77421000Y-103940000D02*
X77421000Y-104719000D01*
X77461000Y-101513000D02*
X77461000Y-102260000D01*
X77461000Y-103940000D02*
X77461000Y-104687000D01*
X77501000Y-101548000D02*
X77501000Y-102260000D01*
X77501000Y-103940000D02*
X77501000Y-104652000D01*
X77541000Y-101584000D02*
X77541000Y-102260000D01*
X77541000Y-103940000D02*
X77541000Y-104616000D01*
X77581000Y-101622000D02*
X77581000Y-102260000D01*
X77581000Y-103940000D02*
X77581000Y-104578000D01*
X77621000Y-101662000D02*
X77621000Y-102260000D01*
X77621000Y-103940000D02*
X77621000Y-104538000D01*
X77661000Y-101704000D02*
X77661000Y-102260000D01*
X77661000Y-103940000D02*
X77661000Y-104496000D01*
X77701000Y-101749000D02*
X77701000Y-102260000D01*
X77701000Y-103940000D02*
X77701000Y-104451000D01*
X77741000Y-101796000D02*
X77741000Y-102260000D01*
X77741000Y-103940000D02*
X77741000Y-104404000D01*
X77781000Y-101846000D02*
X77781000Y-102260000D01*
X77781000Y-103940000D02*
X77781000Y-104354000D01*
X77821000Y-101900000D02*
X77821000Y-102260000D01*
X77821000Y-103940000D02*
X77821000Y-104300000D01*
X77861000Y-101958000D02*
X77861000Y-102260000D01*
X77861000Y-103940000D02*
X77861000Y-104242000D01*
X77901000Y-102020000D02*
X77901000Y-102260000D01*
X77901000Y-103940000D02*
X77901000Y-104180000D01*
X77941000Y-102087000D02*
X77941000Y-104113000D01*
X77981000Y-102160000D02*
X77981000Y-104040000D01*
X78021000Y-102241000D02*
X78021000Y-103959000D01*
X78061000Y-102332000D02*
X78061000Y-103868000D01*
X78101000Y-102436000D02*
X78101000Y-103764000D01*
X78141000Y-102563000D02*
X78141000Y-103637000D01*
X78181000Y-102730000D02*
X78181000Y-103470000D01*
X78220000Y-103100000D02*
G75*
G03*
X78220000Y-103100000I-2120000J0D01*
G01*
%TO.C,J13*%
X172890000Y-33190000D02*
X174000000Y-33190000D01*
X172890000Y-33950000D02*
X172890000Y-33190000D01*
X172890000Y-34710000D02*
X172890000Y-53695000D01*
X172890000Y-34710000D02*
X173436529Y-34710000D01*
X172890000Y-53695000D02*
X173692470Y-53695000D01*
X174307530Y-53695000D02*
X175110000Y-53695000D01*
X174563471Y-34710000D02*
X175110000Y-34710000D01*
X175110000Y-34710000D02*
X175110000Y-53695000D01*
%TO.C,C1*%
X122157600Y-99005000D02*
X122557600Y-99005000D01*
X122357600Y-98805000D02*
X122357600Y-99205000D01*
X124427401Y-98120000D02*
X124427401Y-102280000D01*
X124467401Y-98120000D02*
X124467401Y-102280000D01*
X124507401Y-98121000D02*
X124507401Y-102279000D01*
X124547401Y-98123000D02*
X124547401Y-102277000D01*
X124587401Y-98126000D02*
X124587401Y-102274000D01*
X124627401Y-98129000D02*
X124627401Y-99360000D01*
X124627401Y-101040000D02*
X124627401Y-102271000D01*
X124667401Y-98133000D02*
X124667401Y-99360000D01*
X124667401Y-101040000D02*
X124667401Y-102267000D01*
X124707401Y-98138000D02*
X124707401Y-99360000D01*
X124707401Y-101040000D02*
X124707401Y-102262000D01*
X124747401Y-98144000D02*
X124747401Y-99360000D01*
X124747401Y-101040000D02*
X124747401Y-102256000D01*
X124787401Y-98150000D02*
X124787401Y-99360000D01*
X124787401Y-101040000D02*
X124787401Y-102250000D01*
X124827401Y-98158000D02*
X124827401Y-99360000D01*
X124827401Y-101040000D02*
X124827401Y-102242000D01*
X124867401Y-98166000D02*
X124867401Y-99360000D01*
X124867401Y-101040000D02*
X124867401Y-102234000D01*
X124907401Y-98175000D02*
X124907401Y-99360000D01*
X124907401Y-101040000D02*
X124907401Y-102225000D01*
X124947401Y-98184000D02*
X124947401Y-99360000D01*
X124947401Y-101040000D02*
X124947401Y-102216000D01*
X124987401Y-98195000D02*
X124987401Y-99360000D01*
X124987401Y-101040000D02*
X124987401Y-102205000D01*
X125027401Y-98206000D02*
X125027401Y-99360000D01*
X125027401Y-101040000D02*
X125027401Y-102194000D01*
X125067401Y-98218000D02*
X125067401Y-99360000D01*
X125067401Y-101040000D02*
X125067401Y-102182000D01*
X125107401Y-98232000D02*
X125107401Y-99360000D01*
X125107401Y-101040000D02*
X125107401Y-102168000D01*
X125148401Y-98246000D02*
X125148401Y-99360000D01*
X125148401Y-101040000D02*
X125148401Y-102154000D01*
X125188401Y-98260000D02*
X125188401Y-99360000D01*
X125188401Y-101040000D02*
X125188401Y-102140000D01*
X125228401Y-98276000D02*
X125228401Y-99360000D01*
X125228401Y-101040000D02*
X125228401Y-102124000D01*
X125268401Y-98293000D02*
X125268401Y-99360000D01*
X125268401Y-101040000D02*
X125268401Y-102107000D01*
X125308401Y-98311000D02*
X125308401Y-99360000D01*
X125308401Y-101040000D02*
X125308401Y-102089000D01*
X125348401Y-98330000D02*
X125348401Y-99360000D01*
X125348401Y-101040000D02*
X125348401Y-102070000D01*
X125388401Y-98349000D02*
X125388401Y-99360000D01*
X125388401Y-101040000D02*
X125388401Y-102051000D01*
X125428401Y-98370000D02*
X125428401Y-99360000D01*
X125428401Y-101040000D02*
X125428401Y-102030000D01*
X125468401Y-98392000D02*
X125468401Y-99360000D01*
X125468401Y-101040000D02*
X125468401Y-102008000D01*
X125508401Y-98415000D02*
X125508401Y-99360000D01*
X125508401Y-101040000D02*
X125508401Y-101985000D01*
X125548401Y-98440000D02*
X125548401Y-99360000D01*
X125548401Y-101040000D02*
X125548401Y-101960000D01*
X125588401Y-98465000D02*
X125588401Y-99360000D01*
X125588401Y-101040000D02*
X125588401Y-101935000D01*
X125628401Y-98492000D02*
X125628401Y-99360000D01*
X125628401Y-101040000D02*
X125628401Y-101908000D01*
X125668401Y-98520000D02*
X125668401Y-99360000D01*
X125668401Y-101040000D02*
X125668401Y-101880000D01*
X125708401Y-98550000D02*
X125708401Y-99360000D01*
X125708401Y-101040000D02*
X125708401Y-101850000D01*
X125748401Y-98581000D02*
X125748401Y-99360000D01*
X125748401Y-101040000D02*
X125748401Y-101819000D01*
X125788401Y-98613000D02*
X125788401Y-99360000D01*
X125788401Y-101040000D02*
X125788401Y-101787000D01*
X125828401Y-98648000D02*
X125828401Y-99360000D01*
X125828401Y-101040000D02*
X125828401Y-101752000D01*
X125868401Y-98684000D02*
X125868401Y-99360000D01*
X125868401Y-101040000D02*
X125868401Y-101716000D01*
X125908401Y-98722000D02*
X125908401Y-99360000D01*
X125908401Y-101040000D02*
X125908401Y-101678000D01*
X125948401Y-98762000D02*
X125948401Y-99360000D01*
X125948401Y-101040000D02*
X125948401Y-101638000D01*
X125988401Y-98804000D02*
X125988401Y-99360000D01*
X125988401Y-101040000D02*
X125988401Y-101596000D01*
X126028401Y-98849000D02*
X126028401Y-99360000D01*
X126028401Y-101040000D02*
X126028401Y-101551000D01*
X126068401Y-98896000D02*
X126068401Y-99360000D01*
X126068401Y-101040000D02*
X126068401Y-101504000D01*
X126108401Y-98946000D02*
X126108401Y-99360000D01*
X126108401Y-101040000D02*
X126108401Y-101454000D01*
X126148401Y-99000000D02*
X126148401Y-99360000D01*
X126148401Y-101040000D02*
X126148401Y-101400000D01*
X126188401Y-99058000D02*
X126188401Y-99360000D01*
X126188401Y-101040000D02*
X126188401Y-101342000D01*
X126228401Y-99120000D02*
X126228401Y-99360000D01*
X126228401Y-101040000D02*
X126228401Y-101280000D01*
X126268401Y-99187000D02*
X126268401Y-101213000D01*
X126308401Y-99260000D02*
X126308401Y-101140000D01*
X126348401Y-99341000D02*
X126348401Y-101059000D01*
X126388401Y-99432000D02*
X126388401Y-100968000D01*
X126428401Y-99536000D02*
X126428401Y-100864000D01*
X126468401Y-99663000D02*
X126468401Y-100737000D01*
X126508401Y-99830000D02*
X126508401Y-100570000D01*
X126547401Y-100200000D02*
G75*
G03*
X126547401Y-100200000I-2120000J0D01*
G01*
%TO.C,R3*%
X69820000Y-97000000D02*
X69050000Y-97000000D01*
X69050000Y-98370000D02*
X69050000Y-95630000D01*
X69050000Y-95630000D02*
X62510000Y-95630000D01*
X62510000Y-98370000D02*
X69050000Y-98370000D01*
X62510000Y-95630000D02*
X62510000Y-98370000D01*
X61740000Y-97000000D02*
X62510000Y-97000000D01*
%TO.C,SW2*%
X72850000Y-33400000D02*
X71350000Y-33400000D01*
X68850000Y-34650000D02*
X68850000Y-39150000D01*
X75350000Y-39150000D02*
X75350000Y-34650000D01*
X71350000Y-40400000D02*
X72850000Y-40400000D01*
%TO.C,R11*%
X67650000Y-62460000D02*
X67650000Y-63230000D01*
X69020000Y-63230000D02*
X66280000Y-63230000D01*
X66280000Y-63230000D02*
X66280000Y-69770000D01*
X69020000Y-69770000D02*
X69020000Y-63230000D01*
X66280000Y-69770000D02*
X69020000Y-69770000D01*
X67650000Y-70540000D02*
X67650000Y-69770000D01*
%TO.C,J11*%
X122690000Y-35310000D02*
X122690000Y-34200000D01*
X123450000Y-35310000D02*
X122690000Y-35310000D01*
X124210000Y-35310000D02*
X143195000Y-35310000D01*
X124210000Y-35310000D02*
X124210000Y-34763471D01*
X143195000Y-35310000D02*
X143195000Y-34507530D01*
X143195000Y-33892470D02*
X143195000Y-33090000D01*
X124210000Y-33636529D02*
X124210000Y-33090000D01*
X124210000Y-33090000D02*
X143195000Y-33090000D01*
%TO.C,J7*%
X121690000Y-138840000D02*
X124100000Y-138840000D01*
X121690000Y-141250000D02*
X121690000Y-138840000D01*
X121990000Y-139140000D02*
X121990000Y-147860000D01*
X121990000Y-147860000D02*
X131610000Y-147860000D01*
X122600000Y-140750000D02*
X122600000Y-146250000D01*
X122600000Y-146250000D02*
X124900000Y-146250000D01*
X124900000Y-146250000D02*
X124900000Y-147250000D01*
X124900000Y-147250000D02*
X127500000Y-147250000D01*
X127500000Y-146250000D02*
X128400000Y-146250000D01*
X127500000Y-147250000D02*
X127500000Y-146250000D01*
X128400000Y-146250000D02*
X128400000Y-147250000D01*
X128400000Y-147250000D02*
X131000000Y-147250000D01*
X131000000Y-140750000D02*
X122600000Y-140750000D01*
X131000000Y-147250000D02*
X131000000Y-140750000D01*
X131610000Y-139140000D02*
X121990000Y-139140000D01*
X131610000Y-147860000D02*
X131610000Y-139140000D01*
%TO.C,R7*%
X83850000Y-62460000D02*
X83850000Y-63230000D01*
X85220000Y-63230000D02*
X82480000Y-63230000D01*
X82480000Y-63230000D02*
X82480000Y-69770000D01*
X85220000Y-69770000D02*
X85220000Y-63230000D01*
X82480000Y-69770000D02*
X85220000Y-69770000D01*
X83850000Y-70540000D02*
X83850000Y-69770000D01*
%TO.C,R5*%
X91660000Y-87900000D02*
X92430000Y-87900000D01*
X92430000Y-86530000D02*
X92430000Y-89270000D01*
X92430000Y-89270000D02*
X98970000Y-89270000D01*
X98970000Y-86530000D02*
X92430000Y-86530000D01*
X98970000Y-89270000D02*
X98970000Y-86530000D01*
X99740000Y-87900000D02*
X98970000Y-87900000D01*
%TO.C,J2*%
X151600000Y-147410000D02*
X151600000Y-146300000D01*
X152360000Y-147410000D02*
X151600000Y-147410000D01*
X153120000Y-147410000D02*
X161945000Y-147410000D01*
X153120000Y-147410000D02*
X153120000Y-146863471D01*
X161945000Y-147410000D02*
X161945000Y-146607530D01*
X161945000Y-145992470D02*
X161945000Y-145190000D01*
X153120000Y-145736529D02*
X153120000Y-145190000D01*
X153120000Y-145190000D02*
X161945000Y-145190000D01*
%TO.C,R9*%
X75750000Y-62460000D02*
X75750000Y-63230000D01*
X77120000Y-63230000D02*
X74380000Y-63230000D01*
X74380000Y-63230000D02*
X74380000Y-69770000D01*
X77120000Y-69770000D02*
X77120000Y-63230000D01*
X74380000Y-69770000D02*
X77120000Y-69770000D01*
X75750000Y-70540000D02*
X75750000Y-69770000D01*
%TO.C,D1*%
X83524586Y-52830000D02*
X83368586Y-52830000D01*
X81208586Y-52830000D02*
X81052586Y-52830000D01*
X83367194Y-56062334D02*
G75*
G03*
X83524101Y-52830001I-1078608J1672334D01*
G01*
X83368422Y-55431129D02*
G75*
G03*
X83368585Y-53349040I-1079836J1041129D01*
G01*
X81208587Y-53349040D02*
G75*
G03*
X81208750Y-55431129I1079999J-1040960D01*
G01*
X81053071Y-52830001D02*
G75*
G03*
X81209978Y-56062334I1235515J-1559999D01*
G01*
%TO.C,R17*%
X94180000Y-72000000D02*
X94950000Y-72000000D01*
X94950000Y-70630000D02*
X94950000Y-73370000D01*
X94950000Y-73370000D02*
X101490000Y-73370000D01*
X101490000Y-70630000D02*
X94950000Y-70630000D01*
X101490000Y-73370000D02*
X101490000Y-70630000D01*
X102260000Y-72000000D02*
X101490000Y-72000000D01*
%TO.C,J15*%
X184390000Y-35140000D02*
X185500000Y-35140000D01*
X184390000Y-35900000D02*
X184390000Y-35140000D01*
X184390000Y-36660000D02*
X184390000Y-37865000D01*
X184390000Y-36660000D02*
X184936529Y-36660000D01*
X184390000Y-37865000D02*
X185192470Y-37865000D01*
X185807530Y-37865000D02*
X186610000Y-37865000D01*
X186063471Y-36660000D02*
X186610000Y-36660000D01*
X186610000Y-36660000D02*
X186610000Y-37865000D01*
%TO.C,R18*%
X94180000Y-76050000D02*
X94950000Y-76050000D01*
X94950000Y-74680000D02*
X94950000Y-77420000D01*
X94950000Y-77420000D02*
X101490000Y-77420000D01*
X101490000Y-74680000D02*
X94950000Y-74680000D01*
X101490000Y-77420000D02*
X101490000Y-74680000D01*
X102260000Y-76050000D02*
X101490000Y-76050000D01*
%TO.C,R26*%
X103640000Y-134100000D02*
X104410000Y-134100000D01*
X104410000Y-132730000D02*
X104410000Y-135470000D01*
X104410000Y-135470000D02*
X110950000Y-135470000D01*
X110950000Y-132730000D02*
X104410000Y-132730000D01*
X110950000Y-135470000D02*
X110950000Y-132730000D01*
X111720000Y-134100000D02*
X110950000Y-134100000D01*
%TO.C,J3*%
X43910000Y-85280000D02*
X42800000Y-85280000D01*
X43910000Y-84520000D02*
X43910000Y-85280000D01*
X43910000Y-83760000D02*
X43910000Y-72395000D01*
X43910000Y-83760000D02*
X43363471Y-83760000D01*
X43910000Y-72395000D02*
X43107530Y-72395000D01*
X42492470Y-72395000D02*
X41690000Y-72395000D01*
X42236529Y-83760000D02*
X41690000Y-83760000D01*
X41690000Y-83760000D02*
X41690000Y-72395000D01*
%TO.C,J5*%
X213460000Y-128600000D02*
X213460000Y-129730000D01*
X212700000Y-128600000D02*
X213460000Y-128600000D01*
X211940000Y-128600000D02*
X189145000Y-128600000D01*
X211940000Y-128600000D02*
X211940000Y-129166529D01*
X189145000Y-128600000D02*
X189145000Y-129422470D01*
X189145000Y-130037530D02*
X189145000Y-130692470D01*
X211940000Y-130293471D02*
X211940000Y-130436529D01*
X213395000Y-130490000D02*
X213395000Y-130692470D01*
X213263471Y-130490000D02*
X213395000Y-130490000D01*
X211993471Y-130490000D02*
X212136529Y-130490000D01*
X213395000Y-131307530D02*
X213395000Y-132130000D01*
X189145000Y-131307530D02*
X189145000Y-132130000D01*
X213395000Y-132130000D02*
X189145000Y-132130000D01*
%TO.C,R24*%
X103740000Y-146000000D02*
X104510000Y-146000000D01*
X104510000Y-144630000D02*
X104510000Y-147370000D01*
X104510000Y-147370000D02*
X111050000Y-147370000D01*
X111050000Y-144630000D02*
X104510000Y-144630000D01*
X111050000Y-147370000D02*
X111050000Y-144630000D01*
X111820000Y-146000000D02*
X111050000Y-146000000D01*
%TO.C,R14*%
X55500000Y-62460000D02*
X55500000Y-63230000D01*
X56870000Y-63230000D02*
X54130000Y-63230000D01*
X54130000Y-63230000D02*
X54130000Y-69770000D01*
X56870000Y-69770000D02*
X56870000Y-63230000D01*
X54130000Y-69770000D02*
X56870000Y-69770000D01*
X55500000Y-70540000D02*
X55500000Y-69770000D01*
%TO.C,R32*%
X88060000Y-133900000D02*
X88830000Y-133900000D01*
X88830000Y-132530000D02*
X88830000Y-135270000D01*
X88830000Y-135270000D02*
X95370000Y-135270000D01*
X95370000Y-132530000D02*
X88830000Y-132530000D01*
X95370000Y-135270000D02*
X95370000Y-132530000D01*
X96140000Y-133900000D02*
X95370000Y-133900000D01*
%TO.C,R4*%
X61660000Y-104950000D02*
X62430000Y-104950000D01*
X62430000Y-103580000D02*
X62430000Y-106320000D01*
X62430000Y-106320000D02*
X68970000Y-106320000D01*
X68970000Y-103580000D02*
X62430000Y-103580000D01*
X68970000Y-106320000D02*
X68970000Y-103580000D01*
X69740000Y-104950000D02*
X68970000Y-104950000D01*
%TO.C,J1*%
X41790000Y-93300000D02*
X42900000Y-93300000D01*
X41790000Y-94060000D02*
X41790000Y-93300000D01*
X41790000Y-94820000D02*
X41790000Y-103645000D01*
X41790000Y-94820000D02*
X42336529Y-94820000D01*
X41790000Y-103645000D02*
X42592470Y-103645000D01*
X43207530Y-103645000D02*
X44010000Y-103645000D01*
X43463471Y-94820000D02*
X44010000Y-94820000D01*
X44010000Y-94820000D02*
X44010000Y-103645000D01*
%TO.C,C3*%
X109730199Y-68805000D02*
X110130199Y-68805000D01*
X109930199Y-68605000D02*
X109930199Y-69005000D01*
X112000000Y-67920000D02*
X112000000Y-72080000D01*
X112040000Y-67920000D02*
X112040000Y-72080000D01*
X112080000Y-67921000D02*
X112080000Y-72079000D01*
X112120000Y-67923000D02*
X112120000Y-72077000D01*
X112160000Y-67926000D02*
X112160000Y-72074000D01*
X112200000Y-67929000D02*
X112200000Y-69160000D01*
X112200000Y-70840000D02*
X112200000Y-72071000D01*
X112240000Y-67933000D02*
X112240000Y-69160000D01*
X112240000Y-70840000D02*
X112240000Y-72067000D01*
X112280000Y-67938000D02*
X112280000Y-69160000D01*
X112280000Y-70840000D02*
X112280000Y-72062000D01*
X112320000Y-67944000D02*
X112320000Y-69160000D01*
X112320000Y-70840000D02*
X112320000Y-72056000D01*
X112360000Y-67950000D02*
X112360000Y-69160000D01*
X112360000Y-70840000D02*
X112360000Y-72050000D01*
X112400000Y-67958000D02*
X112400000Y-69160000D01*
X112400000Y-70840000D02*
X112400000Y-72042000D01*
X112440000Y-67966000D02*
X112440000Y-69160000D01*
X112440000Y-70840000D02*
X112440000Y-72034000D01*
X112480000Y-67975000D02*
X112480000Y-69160000D01*
X112480000Y-70840000D02*
X112480000Y-72025000D01*
X112520000Y-67984000D02*
X112520000Y-69160000D01*
X112520000Y-70840000D02*
X112520000Y-72016000D01*
X112560000Y-67995000D02*
X112560000Y-69160000D01*
X112560000Y-70840000D02*
X112560000Y-72005000D01*
X112600000Y-68006000D02*
X112600000Y-69160000D01*
X112600000Y-70840000D02*
X112600000Y-71994000D01*
X112640000Y-68018000D02*
X112640000Y-69160000D01*
X112640000Y-70840000D02*
X112640000Y-71982000D01*
X112680000Y-68032000D02*
X112680000Y-69160000D01*
X112680000Y-70840000D02*
X112680000Y-71968000D01*
X112721000Y-68046000D02*
X112721000Y-69160000D01*
X112721000Y-70840000D02*
X112721000Y-71954000D01*
X112761000Y-68060000D02*
X112761000Y-69160000D01*
X112761000Y-70840000D02*
X112761000Y-71940000D01*
X112801000Y-68076000D02*
X112801000Y-69160000D01*
X112801000Y-70840000D02*
X112801000Y-71924000D01*
X112841000Y-68093000D02*
X112841000Y-69160000D01*
X112841000Y-70840000D02*
X112841000Y-71907000D01*
X112881000Y-68111000D02*
X112881000Y-69160000D01*
X112881000Y-70840000D02*
X112881000Y-71889000D01*
X112921000Y-68130000D02*
X112921000Y-69160000D01*
X112921000Y-70840000D02*
X112921000Y-71870000D01*
X112961000Y-68149000D02*
X112961000Y-69160000D01*
X112961000Y-70840000D02*
X112961000Y-71851000D01*
X113001000Y-68170000D02*
X113001000Y-69160000D01*
X113001000Y-70840000D02*
X113001000Y-71830000D01*
X113041000Y-68192000D02*
X113041000Y-69160000D01*
X113041000Y-70840000D02*
X113041000Y-71808000D01*
X113081000Y-68215000D02*
X113081000Y-69160000D01*
X113081000Y-70840000D02*
X113081000Y-71785000D01*
X113121000Y-68240000D02*
X113121000Y-69160000D01*
X113121000Y-70840000D02*
X113121000Y-71760000D01*
X113161000Y-68265000D02*
X113161000Y-69160000D01*
X113161000Y-70840000D02*
X113161000Y-71735000D01*
X113201000Y-68292000D02*
X113201000Y-69160000D01*
X113201000Y-70840000D02*
X113201000Y-71708000D01*
X113241000Y-68320000D02*
X113241000Y-69160000D01*
X113241000Y-70840000D02*
X113241000Y-71680000D01*
X113281000Y-68350000D02*
X113281000Y-69160000D01*
X113281000Y-70840000D02*
X113281000Y-71650000D01*
X113321000Y-68381000D02*
X113321000Y-69160000D01*
X113321000Y-70840000D02*
X113321000Y-71619000D01*
X113361000Y-68413000D02*
X113361000Y-69160000D01*
X113361000Y-70840000D02*
X113361000Y-71587000D01*
X113401000Y-68448000D02*
X113401000Y-69160000D01*
X113401000Y-70840000D02*
X113401000Y-71552000D01*
X113441000Y-68484000D02*
X113441000Y-69160000D01*
X113441000Y-70840000D02*
X113441000Y-71516000D01*
X113481000Y-68522000D02*
X113481000Y-69160000D01*
X113481000Y-70840000D02*
X113481000Y-71478000D01*
X113521000Y-68562000D02*
X113521000Y-69160000D01*
X113521000Y-70840000D02*
X113521000Y-71438000D01*
X113561000Y-68604000D02*
X113561000Y-69160000D01*
X113561000Y-70840000D02*
X113561000Y-71396000D01*
X113601000Y-68649000D02*
X113601000Y-69160000D01*
X113601000Y-70840000D02*
X113601000Y-71351000D01*
X113641000Y-68696000D02*
X113641000Y-69160000D01*
X113641000Y-70840000D02*
X113641000Y-71304000D01*
X113681000Y-68746000D02*
X113681000Y-69160000D01*
X113681000Y-70840000D02*
X113681000Y-71254000D01*
X113721000Y-68800000D02*
X113721000Y-69160000D01*
X113721000Y-70840000D02*
X113721000Y-71200000D01*
X113761000Y-68858000D02*
X113761000Y-69160000D01*
X113761000Y-70840000D02*
X113761000Y-71142000D01*
X113801000Y-68920000D02*
X113801000Y-69160000D01*
X113801000Y-70840000D02*
X113801000Y-71080000D01*
X113841000Y-68987000D02*
X113841000Y-71013000D01*
X113881000Y-69060000D02*
X113881000Y-70940000D01*
X113921000Y-69141000D02*
X113921000Y-70859000D01*
X113961000Y-69232000D02*
X113961000Y-70768000D01*
X114001000Y-69336000D02*
X114001000Y-70664000D01*
X114041000Y-69463000D02*
X114041000Y-70537000D01*
X114081000Y-69630000D02*
X114081000Y-70370000D01*
X114120000Y-70000000D02*
G75*
G03*
X114120000Y-70000000I-2120000J0D01*
G01*
%TO.C,D3*%
X72584990Y-52830000D02*
X72428990Y-52830000D01*
X70268990Y-52830000D02*
X70112990Y-52830000D01*
X72427598Y-56062334D02*
G75*
G03*
X72584505Y-52830001I-1078608J1672334D01*
G01*
X72428826Y-55431129D02*
G75*
G03*
X72428989Y-53349040I-1079836J1041129D01*
G01*
X70268991Y-53349040D02*
G75*
G03*
X70269154Y-55431129I1079999J-1040960D01*
G01*
X70113475Y-52830001D02*
G75*
G03*
X70270382Y-56062334I1235515J-1559999D01*
G01*
%TO.C,J14*%
X211800000Y-45000000D02*
X197700000Y-45000000D01*
X211800000Y-40200000D02*
X211800000Y-45000000D01*
X211800000Y-31900000D02*
X211800000Y-36700000D01*
X204000000Y-45700000D02*
X203500000Y-45200000D01*
X203500000Y-45200000D02*
X203000000Y-45700000D01*
X203000000Y-45700000D02*
X204000000Y-45700000D01*
X197700000Y-45000000D02*
X197700000Y-40200000D01*
X197700000Y-36700000D02*
X197700000Y-31900000D01*
X197700000Y-31900000D02*
X211800000Y-31900000D01*
%TO.C,D2*%
X78054788Y-52830000D02*
X77898788Y-52830000D01*
X75738788Y-52830000D02*
X75582788Y-52830000D01*
X77897396Y-56062334D02*
G75*
G03*
X78054303Y-52830001I-1078608J1672334D01*
G01*
X77898624Y-55431129D02*
G75*
G03*
X77898787Y-53349040I-1079836J1041129D01*
G01*
X75738789Y-53349040D02*
G75*
G03*
X75738952Y-55431129I1079999J-1040960D01*
G01*
X75583273Y-52830001D02*
G75*
G03*
X75740180Y-56062334I1235515J-1559999D01*
G01*
%TO.C,U1*%
X57705000Y-120560000D02*
X52505000Y-120560000D01*
X52505000Y-120560000D02*
X52505000Y-125860000D01*
X57705000Y-122210000D02*
X57705000Y-120560000D01*
X57705000Y-125860000D02*
X57705000Y-124210000D01*
X52505000Y-125860000D02*
X57705000Y-125860000D01*
X57705000Y-122210000D02*
G75*
G03*
X57705000Y-124210000I0J-1000000D01*
G01*
%TO.C,R31*%
X131960000Y-115000000D02*
X132730000Y-115000000D01*
X132730000Y-113630000D02*
X132730000Y-116370000D01*
X132730000Y-116370000D02*
X139270000Y-116370000D01*
X139270000Y-113630000D02*
X132730000Y-113630000D01*
X139270000Y-116370000D02*
X139270000Y-113630000D01*
X140040000Y-115000000D02*
X139270000Y-115000000D01*
%TO.C,U4*%
X105505000Y-120460000D02*
X100305000Y-120460000D01*
X100305000Y-120460000D02*
X100305000Y-125760000D01*
X105505000Y-122110000D02*
X105505000Y-120460000D01*
X105505000Y-125760000D02*
X105505000Y-124110000D01*
X100305000Y-125760000D02*
X105505000Y-125760000D01*
X105505000Y-122110000D02*
G75*
G03*
X105505000Y-124110000I0J-1000000D01*
G01*
%TO.C,R20*%
X94260000Y-54900000D02*
X95030000Y-54900000D01*
X95030000Y-53530000D02*
X95030000Y-56270000D01*
X95030000Y-56270000D02*
X101570000Y-56270000D01*
X101570000Y-53530000D02*
X95030000Y-53530000D01*
X101570000Y-56270000D02*
X101570000Y-53530000D01*
X102340000Y-54900000D02*
X101570000Y-54900000D01*
%TD*%
M02*
