M48
; DRILL file {KiCad 7.0.1} date Fri Apr 21 00:09:47 2023
; FORMAT={-:-/ absolute / inch / decimal}
; #@! TF.CreationDate,2023-04-21T00:09:47+02:00
; #@! TF.GenerationSoftware,Kicad,Pcbnew,7.0.1
; #@! TF.FileFunction,Plated,1,2,PTH
FMAT,2
INCH
; #@! TA.AperFunction,Plated,PTH,ViaDrill
T1C0.0157
; #@! TA.AperFunction,Plated,PTH,ComponentDrill
T2C0.0236
; #@! TA.AperFunction,Plated,PTH,ComponentDrill
T3C0.0256
; #@! TA.AperFunction,Plated,PTH,ComponentDrill
T4C0.0315
; #@! TA.AperFunction,Plated,PTH,ComponentDrill
T5C0.0354
; #@! TA.AperFunction,Plated,PTH,ComponentDrill
T6C0.0362
; #@! TA.AperFunction,Plated,PTH,ComponentDrill
T7C0.0394
; #@! TA.AperFunction,Plated,PTH,ComponentDrill
T8C0.0433
; #@! TA.AperFunction,Plated,PTH,ComponentDrill
T9C0.0630
; #@! TA.AperFunction,Plated,PTH,ComponentDrill
T10C0.0709
; #@! TA.AperFunction,Plated,PTH,ComponentDrill
T11C0.0906
%
G90
G05
T1
X1.8386Y-2.1024
X1.8674Y-2.2861
X2.9606Y-5.2913
X3.1142Y-3.2992
X3.1216Y-3.2446
X3.315Y-1.9892
X3.3622Y-1.9646
X3.4331Y-1.9488
X3.4449Y-2.0709
X3.4843Y-1.9488
X3.4882Y-2.0394
X3.6732Y-5.6535
X4.0327Y-3.6732
X4.1801Y-3.874
X4.3701Y-2.9134
X4.3831Y-2.9734
X4.4094Y-2.8849
X4.4098Y-2.9445
X4.5Y-3.8858
X4.6102Y-2.752
X4.6378Y-3.2283
X4.6732Y-3.3976
X4.6814Y-3.6641
X4.7357Y-3.6098
X4.7717Y-4.1063
X4.7882Y-3.2066
X4.7953Y-2.7402
X4.8031Y-5.189
X4.8189Y-3.0984
X4.8307Y-3.3268
X4.8425Y-2.7559
X4.8942Y-2.7672
X4.9213Y-2.4606
X4.9685Y-3.4921
X4.9695Y-3.5354
X4.9705Y-2.691
X4.9747Y-3.576
X4.9843Y-3.6181
X5.0Y-2.7205
X5.0409Y-2.6393
X5.0536Y-2.7072
X5.1654Y-3.3553
X5.2047Y-2.4724
X5.2332Y-2.6627
X5.2598Y-2.7677
X5.263Y-2.6294
X5.3071Y-3.3346
X5.311Y-2.7323
X5.3228Y-2.4724
X5.3307Y-2.3622
X5.3489Y-3.6708
X5.3504Y-3.7126
X5.3632Y-3.189
X5.3661Y-2.7087
X5.4213Y-2.6693
X5.4685Y-2.6417
X5.499Y-2.8386
X5.5Y-3.1929
X5.5669Y-2.5906
X5.6535Y-3.2077
X5.6601Y-4.3872
X5.7126Y-2.6063
X5.8937Y-3.8386
X5.8976Y-3.7844
X5.8976Y-3.8976
X5.8976Y-3.9488
X5.9016Y-3.9921
X5.9016Y-4.4409
X5.9016Y-4.4921
X5.9055Y-4.0354
X5.9055Y-4.0827
X5.9055Y-4.126
X5.9055Y-4.1811
X5.9055Y-4.2913
X5.9055Y-4.3858
X5.9094Y-4.2283
X5.9699Y-3.7559
X6.0118Y-3.4764
X6.0394Y-3.4479
X6.1063Y-3.5512
X6.1306Y-5.5079
X6.1699Y-5.5079
X6.2441Y-3.503
X6.2441Y-3.8101
X6.248Y-3.9409
X6.2795Y-3.9882
X6.3071Y-4.0709
X6.3307Y-4.122
X6.3868Y-4.6939
X6.4488Y-4.7441
X6.4882Y-5.1102
X6.5039Y-4.5118
X6.5354Y-3.8583
X6.5827Y-4.5827
X6.622Y-4.6654
X6.626Y-4.4094
X6.6535Y-3.937
X6.6818Y-3.1306
X6.6929Y-3.9764
X6.6939Y-3.8691
X6.7349Y-3.8691
X6.75Y-4.0906
T2
X2.9567Y-4.0591
X3.0354Y-4.0591
X4.3701Y-2.7559
X4.4488Y-2.7559
X4.8593Y-3.9449
X4.9381Y-3.9449
X5.8397Y-3.2362
X5.9184Y-3.2362
T3
X1.685Y-2.8776
X1.685Y-2.9276
X1.685Y-2.9776
X1.685Y-3.0276
X1.685Y-3.0776
X1.685Y-3.1276
X1.685Y-3.1776
X1.685Y-3.2276
X1.685Y-3.2776
X1.685Y-3.3276
X1.689Y-3.7031
X1.689Y-3.7531
X1.689Y-3.8031
X1.689Y-3.8531
X1.689Y-3.9031
X1.689Y-3.9531
X1.689Y-4.0031
X1.689Y-4.0531
X2.3437Y-5.5669
X2.3437Y-5.6169
X2.3937Y-5.5669
X2.3937Y-5.6169
X2.4437Y-5.5669
X2.4437Y-5.6169
X2.4937Y-5.5669
X2.4937Y-5.6169
X2.5437Y-5.5669
X2.5437Y-5.6169
X2.5937Y-5.5669
X2.5937Y-5.6169
X3.9264Y-1.3543
X3.9764Y-1.3543
X4.0264Y-1.3543
X4.0764Y-1.3543
X4.1264Y-1.3543
X4.1764Y-1.3543
X4.2264Y-1.3543
X4.2764Y-1.3543
X4.3264Y-1.3543
X4.3764Y-1.3543
X4.4264Y-1.3543
X4.4764Y-1.3543
X4.5264Y-1.3543
X4.5764Y-1.3543
X4.6264Y-1.3543
X4.6764Y-1.3543
X4.8602Y-1.3465
X4.9102Y-1.3465
X4.9602Y-1.3465
X5.0102Y-1.3465
X5.0602Y-1.3465
X5.1102Y-1.3465
X5.1602Y-1.3465
X5.2102Y-1.3465
X5.2602Y-1.3465
X5.3102Y-1.3465
X5.3602Y-1.3465
X5.4102Y-1.3465
X5.4331Y-5.7394
X5.4331Y-5.7894
X5.4602Y-1.3465
X5.5102Y-1.3465
X5.5602Y-1.3465
X5.6102Y-1.3465
X5.9358Y-1.3465
X5.9858Y-1.3465
X5.9984Y-5.7598
X6.0358Y-1.3465
X6.0484Y-5.7598
X6.0858Y-1.3465
X6.0984Y-5.7598
X6.1358Y-1.3465
X6.1484Y-5.7598
X6.1858Y-1.3465
X6.1984Y-5.7598
X6.2358Y-1.3465
X6.2484Y-5.7598
X6.2858Y-1.3465
X6.2984Y-5.7598
X6.3358Y-1.3465
X6.3484Y-5.7598
X6.3858Y-1.3465
X6.4358Y-1.3465
X6.4858Y-1.3465
X6.5358Y-1.3465
X6.5858Y-1.3465
X6.6358Y-1.3465
X6.6858Y-1.3465
X6.8504Y-1.3366
X6.8504Y-1.3866
X6.8504Y-1.4366
X6.8504Y-1.4866
X6.8504Y-1.5366
X6.8504Y-1.5866
X6.8504Y-1.6366
X6.8504Y-1.6866
X6.8504Y-1.7366
X6.8504Y-1.7866
X6.8504Y-1.8366
X6.8504Y-1.8866
X6.8504Y-1.9366
X6.8504Y-1.9866
X6.8504Y-2.0366
X6.8504Y-2.0866
X7.0709Y-1.4134
X7.0709Y-1.4634
X7.3031Y-1.4134
X7.3031Y-1.4634
X7.474Y-5.1075
X7.474Y-5.1575
X7.4756Y-2.6575
X7.4756Y-2.7075
X7.524Y-5.1075
X7.524Y-5.1575
X7.5256Y-2.6575
X7.5256Y-2.7075
X7.574Y-5.1075
X7.574Y-5.1575
X7.5756Y-2.6575
X7.5756Y-2.7075
X7.624Y-5.1075
X7.624Y-5.1575
X7.6256Y-2.6575
X7.6256Y-2.7075
X7.674Y-5.1075
X7.674Y-5.1575
X7.6756Y-2.6575
X7.6756Y-2.7075
X7.724Y-5.1075
X7.724Y-5.1575
X7.7256Y-2.6575
X7.7256Y-2.7075
X7.774Y-5.1075
X7.774Y-5.1575
X7.7756Y-2.6575
X7.7756Y-2.7075
X7.824Y-5.1075
X7.824Y-5.1575
X7.8256Y-2.6575
X7.8256Y-2.7075
X7.874Y-5.1075
X7.874Y-5.1575
X7.8756Y-2.6575
X7.8756Y-2.7075
X7.924Y-5.1075
X7.924Y-5.1575
X7.9256Y-2.6575
X7.9256Y-2.7075
X7.974Y-5.1075
X7.974Y-5.1575
X7.9756Y-2.6575
X7.9756Y-2.7075
X8.024Y-5.1075
X8.024Y-5.1575
X8.0256Y-2.6575
X8.0256Y-2.7075
X8.074Y-5.1075
X8.074Y-5.1575
X8.0756Y-2.6575
X8.0756Y-2.7075
X8.124Y-5.1075
X8.124Y-5.1575
X8.1256Y-2.6575
X8.1256Y-2.7075
X8.174Y-5.1075
X8.174Y-5.1575
X8.1756Y-2.6575
X8.1756Y-2.7075
X8.224Y-5.1075
X8.224Y-5.1575
X8.2256Y-2.6575
X8.2256Y-2.7075
X8.274Y-5.1075
X8.274Y-5.1575
X8.2756Y-2.6575
X8.2756Y-2.7075
X8.324Y-5.1075
X8.324Y-5.1575
X8.3256Y-2.6575
X8.3256Y-2.7075
X8.374Y-5.1075
X8.374Y-5.1575
X8.3756Y-2.6575
X8.3756Y-2.7075
T4
X1.926Y-4.5276
X2.1195Y-4.7008
X2.1195Y-5.0008
X2.185Y-2.4181
X2.185Y-2.8181
X2.2195Y-4.7008
X2.2195Y-5.0008
X2.326Y-4.5276
X2.3445Y-2.4181
X2.3445Y-2.8181
X2.3866Y-3.6575
X2.3866Y-4.1319
X2.3898Y-3.8189
X2.3913Y-3.9685
X2.5039Y-2.4181
X2.5039Y-2.8181
X2.5559Y-4.5276
X2.6634Y-2.4181
X2.6634Y-2.8181
X2.7429Y-4.7008
X2.7429Y-5.0008
X2.7866Y-3.6575
X2.7866Y-4.1319
X2.7898Y-3.8189
X2.7913Y-3.9685
X2.8228Y-2.4181
X2.8228Y-2.8181
X2.8429Y-4.7008
X2.8429Y-5.0008
X2.9559Y-4.5276
X2.9823Y-2.4181
X2.9823Y-2.8181
X3.1417Y-2.4181
X3.1417Y-2.8181
X3.1858Y-4.5276
X3.2346Y-1.311
X3.2346Y-1.611
X3.3012Y-2.4181
X3.3012Y-2.8181
X3.3346Y-1.311
X3.3346Y-1.611
X3.3833Y-4.6969
X3.3833Y-4.9969
X3.4213Y-5.5157
X3.4252Y-5.7362
X3.426Y-5.2717
X3.4346Y-1.311
X3.4346Y-1.611
X3.4833Y-4.6969
X3.4833Y-4.9969
X3.5346Y-1.311
X3.5346Y-1.611
X3.5677Y-3.4606
X3.5677Y-3.7795
X3.5858Y-4.5276
X3.6669Y-2.3268
X3.6669Y-2.5157
X3.6669Y-2.6752
X3.6669Y-2.8346
X3.6669Y-2.9941
X3.6701Y-2.1614
X3.8213Y-5.5157
X3.8252Y-5.7362
X3.826Y-5.2717
X3.8551Y-4.5276
X3.9677Y-3.4606
X3.9677Y-3.7795
X4.0014Y-4.6969
X4.0014Y-4.9969
X4.0394Y-5.2795
X4.0433Y-5.5276
X4.0433Y-5.748
X4.0669Y-2.3268
X4.0669Y-2.5157
X4.0669Y-2.6752
X4.0669Y-2.8346
X4.0669Y-2.9941
X4.0701Y-2.1614
X4.1014Y-4.6969
X4.1014Y-4.9969
X4.2551Y-4.5276
X4.4394Y-5.2795
X4.4433Y-5.5276
X4.4433Y-5.748
X4.5244Y-4.5276
X4.7014Y-4.6969
X4.7014Y-4.9969
X4.8014Y-4.6969
X4.8014Y-4.9969
X4.9244Y-4.5276
X5.1543Y-4.5276
X5.3045Y-4.6929
X5.3045Y-4.9929
X5.4045Y-4.6929
X5.4045Y-4.9929
X5.5543Y-4.5276
T5
X1.7323Y-2.0913
X1.7323Y-2.1913
X1.9476Y-2.0913
X1.9476Y-2.1913
X2.163Y-2.0913
X2.163Y-2.1913
X2.3783Y-2.0913
X2.3783Y-2.1913
X2.5937Y-2.0913
X2.5937Y-2.1913
X2.809Y-2.0913
X2.809Y-2.1913
X3.0244Y-2.0913
X3.0244Y-2.1913
X3.2397Y-2.0913
X3.2397Y-2.1913
T6
X8.0118Y-1.4961
X8.0118Y-1.622
X8.1102Y-1.4961
X8.1102Y-1.622
T7
X1.7953Y-1.7461
X1.8937Y-1.7461
X1.9921Y-1.7461
T8
X2.4134Y-1.3248
X2.4134Y-1.5807
X2.5906Y-1.3248
X2.5906Y-1.5807
X2.75Y-1.3248
X2.75Y-1.5807
X2.9272Y-1.3248
X2.9272Y-1.5807
X7.0835Y-1.9291
X7.1835Y-1.9291
X7.2835Y-1.9291
T9
X4.9173Y-5.6457
X5.0551Y-5.6457
T11
X7.824Y-1.5154
X8.298Y-1.5154
T10
G00X1.7205Y-1.4764
M15
G01X1.7205Y-1.4646
M16
G05
G00X2.0669Y-1.4764
M15
G01X2.0669Y-1.4646
M16
G05
T0
M30
