%TF.GenerationSoftware,KiCad,Pcbnew,7.0.1*%
%TF.CreationDate,2023-04-21T00:09:37+02:00*%
%TF.ProjectId,SimpleLattice,53696d70-6c65-44c6-9174-746963652e6b,rev?*%
%TF.SameCoordinates,Original*%
%TF.FileFunction,Legend,Bot*%
%TF.FilePolarity,Positive*%
%FSLAX46Y46*%
G04 Gerber Fmt 4.6, Leading zero omitted, Abs format (unit mm)*
G04 Created by KiCad (PCBNEW 7.0.1) date 2023-04-21 00:09:37*
%MOMM*%
%LPD*%
G01*
G04 APERTURE LIST*
%ADD10C,0.150000*%
%ADD11C,0.120000*%
G04 APERTURE END LIST*
D10*
%TO.C,J8*%
X57297619Y-141701666D02*
X58011904Y-141701666D01*
X58011904Y-141701666D02*
X58154761Y-141654047D01*
X58154761Y-141654047D02*
X58250000Y-141558809D01*
X58250000Y-141558809D02*
X58297619Y-141415952D01*
X58297619Y-141415952D02*
X58297619Y-141320714D01*
X57726190Y-142320714D02*
X57678571Y-142225476D01*
X57678571Y-142225476D02*
X57630952Y-142177857D01*
X57630952Y-142177857D02*
X57535714Y-142130238D01*
X57535714Y-142130238D02*
X57488095Y-142130238D01*
X57488095Y-142130238D02*
X57392857Y-142177857D01*
X57392857Y-142177857D02*
X57345238Y-142225476D01*
X57345238Y-142225476D02*
X57297619Y-142320714D01*
X57297619Y-142320714D02*
X57297619Y-142511190D01*
X57297619Y-142511190D02*
X57345238Y-142606428D01*
X57345238Y-142606428D02*
X57392857Y-142654047D01*
X57392857Y-142654047D02*
X57488095Y-142701666D01*
X57488095Y-142701666D02*
X57535714Y-142701666D01*
X57535714Y-142701666D02*
X57630952Y-142654047D01*
X57630952Y-142654047D02*
X57678571Y-142606428D01*
X57678571Y-142606428D02*
X57726190Y-142511190D01*
X57726190Y-142511190D02*
X57726190Y-142320714D01*
X57726190Y-142320714D02*
X57773809Y-142225476D01*
X57773809Y-142225476D02*
X57821428Y-142177857D01*
X57821428Y-142177857D02*
X57916666Y-142130238D01*
X57916666Y-142130238D02*
X58107142Y-142130238D01*
X58107142Y-142130238D02*
X58202380Y-142177857D01*
X58202380Y-142177857D02*
X58250000Y-142225476D01*
X58250000Y-142225476D02*
X58297619Y-142320714D01*
X58297619Y-142320714D02*
X58297619Y-142511190D01*
X58297619Y-142511190D02*
X58250000Y-142606428D01*
X58250000Y-142606428D02*
X58202380Y-142654047D01*
X58202380Y-142654047D02*
X58107142Y-142701666D01*
X58107142Y-142701666D02*
X57916666Y-142701666D01*
X57916666Y-142701666D02*
X57821428Y-142654047D01*
X57821428Y-142654047D02*
X57773809Y-142606428D01*
X57773809Y-142606428D02*
X57726190Y-142511190D01*
D11*
X66575000Y-140270000D02*
X66575000Y-141092470D01*
X60290000Y-140270000D02*
X66575000Y-140270000D01*
X60290000Y-140270000D02*
X60290000Y-140836529D01*
X59530000Y-140270000D02*
X58770000Y-140270000D01*
X58770000Y-140270000D02*
X58770000Y-141400000D01*
X66575000Y-141707530D02*
X66575000Y-142362470D01*
X60290000Y-141963471D02*
X60290000Y-142106529D01*
X60236529Y-142160000D02*
X60093471Y-142160000D01*
X58966529Y-142160000D02*
X58835000Y-142160000D01*
X58835000Y-142160000D02*
X58835000Y-142362470D01*
X66575000Y-142977530D02*
X66575000Y-143800000D01*
X58835000Y-142977530D02*
X58835000Y-143800000D01*
X58835000Y-143800000D02*
X66575000Y-143800000D01*
%TD*%
M02*
