%TF.GenerationSoftware,KiCad,Pcbnew,7.0.1*%
%TF.CreationDate,2023-04-21T00:09:37+02:00*%
%TF.ProjectId,SimpleLattice,53696d70-6c65-44c6-9174-746963652e6b,rev?*%
%TF.SameCoordinates,Original*%
%TF.FileFunction,Paste,Top*%
%TF.FilePolarity,Positive*%
%FSLAX46Y46*%
G04 Gerber Fmt 4.6, Leading zero omitted, Abs format (unit mm)*
G04 Created by KiCad (PCBNEW 7.0.1) date 2023-04-21 00:09:37*
%MOMM*%
%LPD*%
G01*
G04 APERTURE LIST*
%ADD10R,1.800000X2.000000*%
%ADD11R,1.475000X0.300000*%
%ADD12R,0.300000X1.475000*%
G04 APERTURE END LIST*
D10*
%TO.C,Y1*%
X111160000Y-102900000D03*
X116240000Y-102900000D03*
X116240000Y-98700000D03*
X111160000Y-98700000D03*
%TD*%
D11*
%TO.C,IC1*%
X119962000Y-67250000D03*
X119962000Y-67750000D03*
X119962000Y-68250000D03*
X119962000Y-68750000D03*
X119962000Y-69250000D03*
X119962000Y-69750000D03*
X119962000Y-70250000D03*
X119962000Y-70750000D03*
X119962000Y-71250000D03*
X119962000Y-71750000D03*
X119962000Y-72250000D03*
X119962000Y-72750000D03*
X119962000Y-73250000D03*
X119962000Y-73750000D03*
X119962000Y-74250000D03*
X119962000Y-74750000D03*
X119962000Y-75250000D03*
X119962000Y-75750000D03*
X119962000Y-76250000D03*
X119962000Y-76750000D03*
X119962000Y-77250000D03*
X119962000Y-77750000D03*
X119962000Y-78250000D03*
X119962000Y-78750000D03*
X119962000Y-79250000D03*
X119962000Y-79750000D03*
X119962000Y-80250000D03*
X119962000Y-80750000D03*
X119962000Y-81250000D03*
X119962000Y-81750000D03*
X119962000Y-82250000D03*
X119962000Y-82750000D03*
X119962000Y-83250000D03*
X119962000Y-83750000D03*
X119962000Y-84250000D03*
X119962000Y-84750000D03*
D12*
X121950000Y-86738000D03*
X122450000Y-86738000D03*
X122950000Y-86738000D03*
X123450000Y-86738000D03*
X123950000Y-86738000D03*
X124450000Y-86738000D03*
X124950000Y-86738000D03*
X125450000Y-86738000D03*
X125950000Y-86738000D03*
X126450000Y-86738000D03*
X126950000Y-86738000D03*
X127450000Y-86738000D03*
X127950000Y-86738000D03*
X128450000Y-86738000D03*
X128950000Y-86738000D03*
X129450000Y-86738000D03*
X129950000Y-86738000D03*
X130450000Y-86738000D03*
X130950000Y-86738000D03*
X131450000Y-86738000D03*
X131950000Y-86738000D03*
X132450000Y-86738000D03*
X132950000Y-86738000D03*
X133450000Y-86738000D03*
X133950000Y-86738000D03*
X134450000Y-86738000D03*
X134950000Y-86738000D03*
X135450000Y-86738000D03*
X135950000Y-86738000D03*
X136450000Y-86738000D03*
X136950000Y-86738000D03*
X137450000Y-86738000D03*
X137950000Y-86738000D03*
X138450000Y-86738000D03*
X138950000Y-86738000D03*
X139450000Y-86738000D03*
D11*
X141438000Y-84750000D03*
X141438000Y-84250000D03*
X141438000Y-83750000D03*
X141438000Y-83250000D03*
X141438000Y-82750000D03*
X141438000Y-82250000D03*
X141438000Y-81750000D03*
X141438000Y-81250000D03*
X141438000Y-80750000D03*
X141438000Y-80250000D03*
X141438000Y-79750000D03*
X141438000Y-79250000D03*
X141438000Y-78750000D03*
X141438000Y-78250000D03*
X141438000Y-77750000D03*
X141438000Y-77250000D03*
X141438000Y-76750000D03*
X141438000Y-76250000D03*
X141438000Y-75750000D03*
X141438000Y-75250000D03*
X141438000Y-74750000D03*
X141438000Y-74250000D03*
X141438000Y-73750000D03*
X141438000Y-73250000D03*
X141438000Y-72750000D03*
X141438000Y-72250000D03*
X141438000Y-71750000D03*
X141438000Y-71250000D03*
X141438000Y-70750000D03*
X141438000Y-70250000D03*
X141438000Y-69750000D03*
X141438000Y-69250000D03*
X141438000Y-68750000D03*
X141438000Y-68250000D03*
X141438000Y-67750000D03*
X141438000Y-67250000D03*
D12*
X139450000Y-65262000D03*
X138950000Y-65262000D03*
X138450000Y-65262000D03*
X137950000Y-65262000D03*
X137450000Y-65262000D03*
X136950000Y-65262000D03*
X136450000Y-65262000D03*
X135950000Y-65262000D03*
X135450000Y-65262000D03*
X134950000Y-65262000D03*
X134450000Y-65262000D03*
X133950000Y-65262000D03*
X133450000Y-65262000D03*
X132950000Y-65262000D03*
X132450000Y-65262000D03*
X131950000Y-65262000D03*
X131450000Y-65262000D03*
X130950000Y-65262000D03*
X130450000Y-65262000D03*
X129950000Y-65262000D03*
X129450000Y-65262000D03*
X128950000Y-65262000D03*
X128450000Y-65262000D03*
X127950000Y-65262000D03*
X127450000Y-65262000D03*
X126950000Y-65262000D03*
X126450000Y-65262000D03*
X125950000Y-65262000D03*
X125450000Y-65262000D03*
X124950000Y-65262000D03*
X124450000Y-65262000D03*
X123950000Y-65262000D03*
X123450000Y-65262000D03*
X122950000Y-65262000D03*
X122450000Y-65262000D03*
X121950000Y-65262000D03*
%TD*%
M02*
